<?xml version="1.0" encoding="UTF-8"?>
<svg width="100%" height="100%" viewBox="0 0 24 24" version="1.1" xmlns="http://www.w3.org/2000/svg" xmlns:xlink="http://www.w3.org/1999/xlink">
    <!-- Generator: Sketch 52.2 (67145) - http://www.bohemiancoding.com/sketch -->
    <title>24px / company</title>
    <desc>Created with Sketch.</desc>
    <g id="24px-/-company" stroke="none" stroke-width="1" fill="none" fill-rule="evenodd">
        <path d="M12,6 L12,2 L2,2 L2,20 L22,20 L22,6 L12,6 Z M6,18 L4,18 L4,16 L6,16 L6,18 Z M6,14 L4,14 L4,12 L6,12 L6,14 Z M6,10 L4,10 L4,8 L6,8 L6,10 Z M6,6 L4,6 L4,4 L6,4 L6,6 Z M10,18 L8,18 L8,16 L10,16 L10,18 Z M10,14 L8,14 L8,12 L10,12 L10,14 Z M10,10 L8,10 L8,8 L10,8 L10,10 Z M10,6 L8,6 L8,4 L10,4 L10,6 Z M20,18 L12,18 L12,16 L14,16 L14,14 L12,14 L12,12 L14,12 L14,10 L12,10 L12,8 L20,8 L20,18 Z M18,10 L16,10 L16,12 L18,12 L18,10 Z M18,14 L16,14 L16,16 L18,16 L18,14 Z" id="Shape" fill="#3D3D3D" fill-rule="nonzero"></path>
    </g>
</svg>