<?xml version="1.0" encoding="UTF-8"?>
<svg width="100%" height="100%" viewBox="0 0 24 24" version="1.1" xmlns="http://www.w3.org/2000/svg" xmlns:xlink="http://www.w3.org/1999/xlink">
    <!-- Generator: Sketch 52.2 (67145) - http://www.bohemiancoding.com/sketch -->
    <title>24px / recommendations</title>
    <desc>Created with Sketch.</desc>
    <g id="24px-/-recommendations" stroke="none" stroke-width="1" fill="none" fill-rule="evenodd">
        <path d="M11,12 C13.21,12 15,10.21 15,8 C15,5.79 13.21,4 11,4 C8.79,4 7,5.79 7,8 C7,10.21 8.79,12 11,12 Z M11,6 C12.1,6 13,6.9 13,8 C13,9.1 12.1,10 11,10 C9.9,10 9,9.1 9,8 C9,6.9 9.9,6 11,6 Z M5,18 L10,18 L12,20 L3,20 L3,18 C3,15.34 8.33,14 11,14 C11.32,14 11.61,14.02 12,14.06 L9.96,16.06 C7.57,16.32 5.2,17.37 5,18 Z M20.6,12.5 L22,13.91 L15.47,20.5 L12,17 L13.4,15.59 L15.47,17.67 L20.6,12.5 Z" id="Combined-Shape" fill="#3D3D3D" fill-rule="nonzero"></path>
    </g>
</svg>