<?xml version="1.0" encoding="UTF-8"?>
<svg width="100%" height="100%" viewBox="0 0 18 18" version="1.1" xmlns="http://www.w3.org/2000/svg" xmlns:xlink="http://www.w3.org/1999/xlink">
    <!-- Generator: Sketch 52.2 (67145) - http://www.bohemiancoding.com/sketch -->
    <title>18px / candidate</title>
    <desc>Created with Sketch.</desc>
    <g id="18px-/-candidate" stroke="none" stroke-width="1" fill="none" fill-rule="evenodd">
        <path d="M7.89473684,8.81818182 C9.52315789,8.81818182 10.8421053,7.51636364 10.8421053,5.90909091 C10.8421053,4.30181818 9.52315789,3 7.89473684,3 C6.26631579,3 4.94736842,4.30181818 4.94736842,5.90909091 C4.94736842,7.51636364 6.26631579,8.81818182 7.89473684,8.81818182 Z M7.89473684,4.45454545 C8.70526316,4.45454545 9.36842105,5.10909091 9.36842105,5.90909091 C9.36842105,6.70909091 8.70526316,7.36363636 7.89473684,7.36363636 C7.08421053,7.36363636 6.42105263,6.70909091 6.42105263,5.90909091 C6.42105263,5.10909091 7.08421053,4.45454545 7.89473684,4.45454545 Z M3.47368421,13.1818182 L7.15789474,13.1818182 L8.63157895,14.6363636 L2,14.6363636 L2,13.1818182 C2,11.2472727 5.92736842,10.2727273 7.89473684,10.2727273 C8.13052632,10.2727273 8.34421053,10.2872727 8.63157895,10.3163636 L7.12842105,11.7709091 C5.36736842,11.96 3.62105263,12.7236364 3.47368421,13.1818182 Z M14.9684211,9.18181818 L16,10.2072727 L11.1884211,15 L8.63157895,12.4545455 L9.66315789,11.4290909 L11.1884211,12.9418182 L14.9684211,9.18181818 Z" id="Combined-Shape" fill="#F57C00" fill-rule="nonzero"></path>
    </g>
</svg>