<?xml version="1.0" encoding="UTF-8"?>
<svg width="100%" height="100%" viewBox="0 0 18 18" version="1.1" xmlns="http://www.w3.org/2000/svg" xmlns:xlink="http://www.w3.org/1999/xlink">
    <!-- Generator: Sketch 52.2 (67145) - http://www.bohemiancoding.com/sketch -->
    <title>18px / teams</title>
    <desc>Created with Sketch.</desc>
    <g id="18px-/-teams" stroke="none" stroke-width="1" fill="none" fill-rule="evenodd">
        <path d="M14.6,4.375 L9,4.375 L7.6,3 L3.4,3 C2.63,3 2.007,3.61875 2.007,4.375 L2,12.625 C2,13.38125 2.63,14 3.4,14 L14.6,14 C15.37,14 16,13.38125 16,12.625 L16,5.75 C16,4.99375 15.37,4.375 14.6,4.375 Z M14.6,12.625 L3.4,12.625 L3.4,4.375 L7.019,4.375 L8.419,5.75 L14.6,5.75 L14.6,12.625 Z M11.1,9.1875 C11.87,9.1875 12.5,8.56875 12.5,7.8125 C12.5,7.05625 11.87,6.4375 11.1,6.4375 C10.33,6.4375 9.7,7.05625 9.7,7.8125 C9.7,8.56875 10.33,9.1875 11.1,9.1875 Z M8.3,11.9375 L13.9,11.9375 L13.9,11.25 C13.9,10.335625 12.031,9.875 11.1,9.875 C10.169,9.875 8.3,10.335625 8.3,11.25 L8.3,11.9375 Z" id="Combined-Shape" fill="#3D3D3D" fill-rule="nonzero"></path>
    </g>
</svg>