<?xml version="1.0" encoding="UTF-8"?>
<svg width="100%" height="100%" viewBox="0 0 18 18" version="1.1" xmlns="http://www.w3.org/2000/svg" xmlns:xlink="http://www.w3.org/1999/xlink">
    <!-- Generator: Sketch 52.2 (67145) - http://www.bohemiancoding.com/sketch -->
    <title>18px / web</title>
    <desc>Created with Sketch.</desc>
    <g id="18px-/-web" stroke="none" stroke-width="1" fill="none" fill-rule="evenodd">
        <path d="M9.4925,2 C5.3525,2 2,5.36 2,9.5 C2,13.64 5.3525,17 9.4925,17 C13.64,17 17,13.64 17,9.5 C17,5.36 13.64,2 9.4925,2 Z M14.69,6.5 L12.4775,6.5 C12.2375,5.5625 11.8925,4.6625 11.4425,3.83 C12.8225,4.3025 13.97,5.2625 14.69,6.5 Z M9.5,3.53 C10.1225,4.43 10.61,5.4275 10.9325,6.5 L8.0675,6.5 C8.39,5.4275 8.8775,4.43 9.5,3.53 Z M3.695,11 C3.575,10.52 3.5,10.0175 3.5,9.5 C3.5,8.9825 3.575,8.48 3.695,8 L6.23,8 C6.17,8.495 6.125,8.99 6.125,9.5 C6.125,10.01 6.17,10.505 6.23,11 L3.695,11 Z M4.31,12.5 L6.5225,12.5 C6.7625,13.4375 7.1075,14.3375 7.5575,15.17 C6.1775,14.6975 5.03,13.745 4.31,12.5 Z M6.5225,6.5 L4.31,6.5 C5.03,5.255 6.1775,4.3025 7.5575,3.83 C7.1075,4.6625 6.7625,5.5625 6.5225,6.5 Z M9.5,15.47 C8.8775,14.57 8.39,13.5725 8.0675,12.5 L10.9325,12.5 C10.61,13.5725 10.1225,14.57 9.5,15.47 Z M11.255,11 L7.745,11 C7.6775,10.505 7.625,10.01 7.625,9.5 C7.625,8.99 7.6775,8.4875 7.745,8 L11.255,8 C11.3225,8.4875 11.375,8.99 11.375,9.5 C11.375,10.01 11.3225,10.505 11.255,11 Z M11.4425,15.17 C11.8925,14.3375 12.2375,13.4375 12.4775,12.5 L14.69,12.5 C13.97,13.7375 12.8225,14.6975 11.4425,15.17 Z M12.77,11 C12.83,10.505 12.875,10.01 12.875,9.5 C12.875,8.99 12.83,8.495 12.77,8 L15.305,8 C15.425,8.48 15.5,8.9825 15.5,9.5 C15.5,10.0175 15.425,10.52 15.305,11 L12.77,11 Z" id="Shape" fill="#F57C00" fill-rule="nonzero"></path>
    </g>
</svg>