<?xml version="1.0" encoding="UTF-8"?>
<svg width="18px" height="18px" viewBox="0 0 18 18" version="1.1" xmlns="http://www.w3.org/2000/svg" xmlns:xlink="http://www.w3.org/1999/xlink">
    <!-- Generator: Sketch 56.2 (81672) - https://sketch.com -->
    <title>18px / attach</title>
    <desc>Created with Sketch.</desc>
    <g id="18px-/-attach" stroke="none" stroke-width="1" fill="none" fill-rule="evenodd">
        <rect id="Rectangle" x="0" y="0" width="18" height="18"></rect>
        <path d="M11.9090909,4.86363636 L11.9090909,13.75 C11.9090909,15.4577273 10.6072727,16.8409091 9,16.8409091 C7.39272727,16.8409091 6.09090909,15.4577273 6.09090909,13.75 L6.09090909,4.09090909 C6.09090909,3.02454545 6.90545455,2.15909091 7.90909091,2.15909091 C8.91272727,2.15909091 9.72727273,3.02454545 9.72727273,4.09090909 L9.72727273,12.2045455 C9.72727273,12.6295455 9.4,12.9772727 9,12.9772727 C8.6,12.9772727 8.27272727,12.6295455 8.27272727,12.2045455 L8.27272727,4.86363636 L7.18181818,4.86363636 L7.18181818,12.2045455 C7.18181818,13.2709091 7.99636364,14.1363636 9,14.1363636 C10.0036364,14.1363636 10.8181818,13.2709091 10.8181818,12.2045455 L10.8181818,4.09090909 C10.8181818,2.38318182 9.51636364,1 7.90909091,1 C6.30181818,1 5,2.38318182 5,4.09090909 L5,13.75 C5,16.0990909 6.78909091,18 9,18 C11.2109091,18 13,16.0990909 13,13.75 L13,4.86363636 L11.9090909,4.86363636 Z" id="Shape" fill="#3D3D3D" fill-rule="nonzero" transform="translate(9.000000, 9.500000) rotate(-330.000000) translate(-9.000000, -9.500000) "></path>
    </g>
</svg>