<?xml version="1.0" encoding="UTF-8"?>
<svg width="24px" height="24px" viewBox="0 0 24 24" version="1.1" xmlns="http://www.w3.org/2000/svg" xmlns:xlink="http://www.w3.org/1999/xlink">
    <title>24px / award</title>
    <g id="24px-/-award" stroke="none" stroke-width="1" fill="none" fill-rule="evenodd">
        <rect id="Rectangle" x="0" y="0" width="24" height="24"></rect>
        <path d="M12,1 C15.866,1 19,4.13401 19,8 C19,10.4685164 17.7222458,12.6385912 15.7920475,13.8849141 L17,23 L12,20 L7,23 L8.21,13.89 C6.28175303,12.6453696 5,10.4723721 5,8 C5,4.13401 8.13401,1 12,1 Z M12,15 C11.3461929,15 10.7133209,14.9103652 10.1130026,14.7427137 L9.52889,19.1503 L12,17.6676 L14.4718,19.1507 L13.8870009,14.7427137 C13.2866819,14.9103652 12.6538088,15 12,15 Z M12,3 C9.23858,3 7,5.23858 7,8 C7,10.7614 9.23858,13 12,13 C14.7614,13 17,10.7614 17,8 C17,5.23858 14.7614,3 12,3 Z" id="Combined-Shape" fill="currentColor"></path>
    </g>
</svg>
