<svg width="24" height="24" viewBox="0 0 24 24" fill="none" xmlns="http://www.w3.org/2000/svg">
<path fill-rule="evenodd" clip-rule="evenodd" d="M12 13C14.7614 13 17 10.7614 17 8C17 5.23858 14.7614 3 12 3C9.23858 3 7 5.23858 7 8C7 10.7614 9.23858 13 12 13ZM19 8C19 11.866 15.866 15 12 15C8.13401 15 5 11.866 5 8C5 4.13401 8.13401 1 12 1C15.866 1 19 4.13401 19 8Z" fill="#3D3D3D"/>
<path fill-rule="evenodd" clip-rule="evenodd" d="M10.2279 13.8873L9.52889 19.1503L12 17.6676L14.4718 19.1507L13.7728 13.8827L15.79 13.88L17 23L12 20L7 23L8.21 13.89L10.2279 13.8873Z" fill="#3D3D3D"/>
</svg>
