<?xml version="1.0" encoding="utf-8"?>
<!-- Generator: Adobe Illustrator 21.1.0, SVG Export Plug-In . SVG Version: 6.00 Build 0)  -->
<svg version="1.1" id="Layer_1" xmlns="http://www.w3.org/2000/svg" xmlns:xlink="http://www.w3.org/1999/xlink" x="0px" y="0px"
	 viewBox="0 0 841.9 595.3" style="enable-background:new 0 0 841.9 595.3;" xml:space="preserve">
<g>
	<path d="M271.2,504.1c-4.1-0.9-8.4-1.5-12.4-2.6c-23.5-6.6-37.5-26-38.1-51.6c-0.5-19.4,3.6-37.8,10.1-55.9
		c13.9-38.4,35.3-72.4,59.8-104.7c7.2-9.5,14.9-18.8,22.6-28.5c3.6,3.1,6.9,5.9,10.5,9c-3.5,4.3-6.9,8.4-10.2,12.5
		c-24.2,30-45.7,61.7-61.7,96.8c-8,17.5-14.7,35.5-16.7,54.8c-0.9,8.4-0.8,17.2,0.6,25.4c3,17.5,16,28.3,33.9,30.5
		c16.6,2,32.3-1.6,48-6.2c5.6-1.7,11-3.8,17.3-6c-34.3-16.8-61.4-40.4-82.1-72c3.8-2.5,7.4-4.8,11.3-7.4
		c30.5,44.9,72.2,72.9,125.5,82.5c43.2,7.8,84.4,0.8,122.9-20.4c75.6-41.5,101.4-121.5,96.3-174.5c-8.1,0-16.2-0.2-24.3,0.1
		c-4.6,0.1-7.4-1.6-9.6-5.5c-7.3-13.1-14.9-26.1-22.3-39.3c-1.3-2.3-2.7-3.1-5.3-3.1c-8.8,0.2-17.6,0.1-26.4,0
		c-2.4,0-3.9,0.7-5.2,2.7c-2.9,4.6-6.1,9.1-9,13.7c-1.8,2.8-4.2,4.2-7.6,4.1c-8.1-0.1-16.3,0-24.4,0c-6,0-8.5-2.5-8.5-8.6
		c-0.1-14.8-0.1-29.6,0-44.4c0-5.9,2.7-8.4,8.7-8.5c10.8-0.1,21.6-0.1,32.4,0c2.7,0,4.7-0.7,6.7-2.7c6.9-7.1,14-13.9,20.9-21
		c2.5-2.6,5.3-3.8,8.9-3.7c5.4,0.1,10.9,0,17.5,0c-31.9-33.9-69.8-53.5-114.6-60.2c-0.3,0.4-0.6,0.6-0.6,0.8
		c-0.9,10.4-0.9,10.4-11,12.9c-5.7,1.4-11.5,2.4-17,4.3c-3.9,1.4-7.5,3.8-11.2,5.9c-3.4,2-6.8,4.2-10,6.6c-3.6,2.7-6.9,2.6-10.8,0.6
		c-11.1-5.7-22.3-11.3-33.6-16.7c-1.5-0.7-3.7-1-5.1-0.4c-38.2,16.8-67.7,43.3-88.5,79.5c-0.2,0.3-0.3,0.7-0.3,0.7
		c7.5,12.5,15,24.8,22.3,37.1c2.1,3.5,1.3,6.6-1.5,9.4c-5.1,5.1-10.3,10-15.2,15.3c-1.4,1.6-2.4,4.1-2.5,6.2
		c-0.3,6.4,0,12.8-0.1,19.2c-0.1,5.9-2.4,8.2-8.3,8.2c-6.1,0.1-12.2,0-18.9,0c0.1,18,3.2,35.1,8.4,52.5c-4.3,1.4-8.5,2.7-13.7,4.4
		c-2.4-12.1-5.4-23.6-6.8-35.2c-6.5-55,7.1-104.8,40.9-148.6c31.5-40.8,73.2-66,124-74.7c85.3-14.7,168.1,24.7,210.5,99.8
		c19.4,34.4,27.7,71.5,25.3,111c-4.5,75.6-53.1,147.4-130.6,176c-45,16.6-90.4,17-135.9,1.6c-2.9-1-5.2-0.9-7.9,0.3
		c-18.8,8.4-38.2,15-58.8,17.1c-0.5,0-1,0.4-1.4,0.6C282.4,504.1,276.8,504.1,271.2,504.1z M607.9,272.1
		c-4.5-32.1-15.7-60.8-34.4-86.5c-0.8-1.1-2.8-2-4.2-2.1c-7.6-0.2-15.2-0.2-22.8,0c-1.6,0-3.6,1-4.8,2.1c-7.2,6.9-14.3,14-21.2,21.2
		c-2.7,2.8-5.7,4-9.6,3.9c-8.9-0.2-17.9-0.1-26.8,0c-1.4,0-2.8,0.1-4.3,0.2c0,11.5,0,22.6,0,34c4.7,0,9.1-0.1,13.5,0
		c2.2,0.1,3.6-0.6,4.9-2.5c2.7-4.4,5.8-8.6,8.6-13c2.2-3.5,5-5.1,9.2-5.1c12.1,0.1,24.3,0.1,36.4,0c4.3,0,7.2,1.5,9.4,5.4
		c7.4,13.3,15,26.4,22.6,39.5c0.7,1.2,2.1,2.7,3.3,2.8C594.1,272.3,600.8,272.1,607.9,272.1z M247.5,285.6c0-6.1,0.1-11.7,0-17.2
		c-0.1-4,1.2-7.1,4.1-9.9c5-4.7,9.8-9.7,14.7-14.6c-5.2-8.7-10.2-17-15.5-25.7c-9.7,21.8-15.5,44-16.6,67.4
		C238.9,285.6,242.9,285.6,247.5,285.6z M431.7,109.7c-0.1-0.5-0.2-0.9-0.4-1.4c-21.5-1.1-42.5,1.4-64.1,8c7.2,3.6,13.5,6.6,19.7,10
		c2.5,1.3,4.3,1.3,6.5-0.5c9.8-8.1,21.1-12.5,33.5-14.7C428.6,110.8,430.1,110.2,431.7,109.7z"/>
	<path d="M381.4,235.9c-3.3,3.7-6.2,6.6-8.8,9.8c-0.7,0.9-1,2.6-0.7,3.8c1.4,6.4,3,12.7,4.7,19c1.1,4,0.3,7.2-2.8,10.1
		c-3.7,3.4-7.2,7.2-10.8,10.7c-5,4.9-9.4,4.4-13-1.6c-5.7-9.3-11.2-18.8-16.9-28c-1.1-1.8-2.8-3.6-4.6-4.7
		c-9.2-5.7-18.5-11.1-27.7-16.7c-6.4-3.9-7-8.2-1.8-13.5c3.6-3.6,7.3-7.1,10.7-10.8c2.8-3,5.9-3.7,9.8-2.7c6.3,1.7,12.6,3.3,19,4.7
		c1.4,0.3,3.3-0.2,4.4-1.1c3.1-2.5,5.8-5.4,9.2-8.6c-3.8-1.7-6.9-3.2-10-4.5c-13.5-6-27-12-40.5-18c-7.3-3.3-8.2-7.9-2.6-13.5
		c3.4-3.4,6.9-6.6,10.1-10.2c3.2-3.7,6.7-4.4,11.4-3c19.1,5.9,38.2,11.5,57.3,17.4c3.2,1,5.3,0.6,7.7-1.9
		c6.7-6.7,13.3-13.5,20.6-19.4c8.8-7.1,19.5-10.2,30.8-10.6c6-0.2,8.9,2.8,8.6,8.8c-0.7,15-6.1,28-16.7,38.6
		c-4.6,4.6-9.2,9.3-14,13.7c-1.9,1.8-2.2,3.5-1.4,6c5.9,19.6,11.6,39.3,17.5,58.9c1.4,4.7,0.7,8.2-3.2,11.3c-3.8,3-7.2,6.3-10.8,9.5
		c-5.9,5.2-10.4,4.2-13.6-3.2c-6.6-15.3-13.2-30.5-19.8-45.8C382.9,239.3,382.4,238.2,381.4,235.9z M357.8,274.4
		c4.2-2.3,5.2-5.2,3.8-9.5c-1.7-5-2.5-10.4-4.1-15.4c-1.5-4.8-0.2-8.2,3.3-11.7c19.2-18.8,38.3-37.8,57.4-56.8
		c6.6-6.6,11.2-14.3,12.6-24c-9.8,1.7-17.4,6.5-24,13.2c-19.1,19.2-38.3,38.2-57.3,57.4c-3,3.1-6.1,4.2-10.4,2.9
		c-5.5-1.6-11.2-2.4-16.6-4.3c-4.6-1.6-6.9,0.2-9.1,3.9c8.1,4.9,16.2,9.6,24,14.6c2.3,1.4,4.4,3.5,5.8,5.8
		C348.3,258.3,353,266.3,357.8,274.4z M412.8,274c4.2-1.6,4.1-4.3,3-7.8c-4-13.1-7.9-26.2-11.8-39.3c-0.9-3.1-1.9-6.2-3.2-10.6
		c-2.7,3.2-4.6,5.6-6.8,7.7c-1.7,1.6-1.7,2.9-0.8,4.9c2.9,6.5,5.7,13.2,8.5,19.7C405.5,257.1,409.2,265.6,412.8,274z M370.8,186.6
		c-16.8-5-33.3-9.9-49.6-14.9c-3.3-1-5.2-0.3-6.6,3c12.7,5.6,25.3,11.3,37.9,16.9c9.9,4.4,9.9,4.4,17.4-3.6
		C370.1,187.7,370.3,187.4,370.8,186.6z"/>
	<path d="M479.4,354c-5.9,0-11.5,0-17,0c-8.2,0-10.2-2-10.2-10.1c0-16.1,0-32.2,0-48.4c0-7.5,2.3-9.8,9.8-9.8
		c20.9,0,41.8,0.1,62.8-0.1c4.9,0,7.9,1.9,10,6.3c4.7,10,10.1,19.7,14.7,29.7c1.9,4.1,4.2,5.4,8.5,5.1c5.2-0.4,10.4-0.1,15.6-0.1
		c3.2,0,6.1,0.7,7.7,3.9c1.5,3,0.4,5.6-1.3,8.2c-7.7,11.5-15.5,23-23,34.6c-1.3,2.1-2.1,4.8-2.2,7.3c-0.3,6.4,0.2,12.8-0.2,19.2
		c-0.2,2.7-1.3,5.8-3.1,7.7c-8,8.5-16.3,16.8-24.9,24.9c-2,1.9-5.3,3.2-8.1,3.3c-9.4,0.4-18.9,0.2-28.4,0.2c-8.4,0-10.5-2-10.5-10.3
		c0-22.1,0-44.2,0-66.4C479.4,357.7,479.4,356.1,479.4,354z M562.3,340.4c-4.9,0-8.7-0.1-12.5,0c-4.4,0.2-7.2-1.6-9.1-5.6
		c-5.3-10.9-10.8-21.7-16.2-32.5c-0.9-1.7-1.7-3-4.1-2.9c-17.6,0.1-35.2,0.1-52.7,0.1c-0.5,0-1,0.2-1.6,0.3c0,13.5,0,26.9,0,40.6
		c5.7,0,11.2,0,16.6,0c8.5,0,10.4,1.9,10.4,10.3c0,22.2,0,44.5,0,66.7c0,1.6,0,3.1,0,5c8,0,15.5,0.1,22.9-0.1c1.2,0,2.6-1.1,3.6-2.1
		c6.5-6.3,12.9-12.7,19.2-19.2c1.1-1.2,1.9-3.2,2-4.8c0.2-6,0.3-12,0-18c-0.1-3.9,0.9-7.2,3.2-10.4C550,359,555.8,350.1,562.3,340.4
		z"/>
	<path d="M349.8,381.4c-8.2,0-15.9,0-23.6,0c-8.5,0-10.4-1.9-10.4-10.2c0-14.1,0-28.2,0-42.4c0-6.6,2.3-8.8,8.9-8.8
		c9.9,0,19.7,0.1,29.6-0.1c3.6-0.1,6.4,1,8.9,3.6c4.7,4.9,9.5,9.8,14.4,14.4c1.4,1.3,3.6,2.3,5.5,2.3c10.8,0.2,21.6,0.1,32.4,0.1
		c7.1,0,9.4,2.3,9.4,9.3c0,9.9-0.1,19.7,0.1,29.6c0.1,3.8-1.3,6.6-4.3,8.9c-9.1,7.1-18.2,14.3-27.1,21.8c-1.4,1.2-2.4,3.4-2.6,5.2
		c-0.4,4.1-0.2,8.2-0.1,12.4c0,3.5-1.3,6.1-4.2,8.1c-8.1,6-16.2,12.1-24.3,18.2c-2.7,2.1-5.6,3.2-8.8,1.6c-3.2-1.6-3.7-4.6-3.7-7.8
		c0-20.3,0-40.5,0-60.8C349.8,385.3,349.8,383.7,349.8,381.4z M329.7,367.7c8.3,0,16.3,0,24.3,0c7.5,0,9.5,2,9.5,9.5
		c0,17.9,0,35.7,0,53.6c0,1.4,0,2.8,0,4.8c8.1-5.4,16.7-9.5,13.7-21.1c-0.3-1.1,0-2.4,0-3.6c-0.2-3.9,1.4-6.8,4.5-9.2
		c9.1-7.1,18.2-14.4,27.2-21.7c1-0.8,2.3-2.2,2.4-3.3c0.2-7.4,0.1-14.8,0.1-22.7c-1.9,0-3.3,0-4.7,0c-8.9,0-17.9-0.1-26.8,0
		c-3.7,0.1-6.6-1.1-9.2-3.8c-4.8-5-9.7-9.9-14.7-14.7c-0.8-0.8-1.9-1.8-2.9-1.8c-7.7-0.1-15.4-0.1-23.3-0.1
		C329.7,345.1,329.7,356.1,329.7,367.7z"/>
</g>
</svg>
