<?xml version="1.0" encoding="utf-8"?>
<!-- Generator: Adobe Illustrator 21.1.0, SVG Export Plug-In . SVG Version: 6.00 Build 0)  -->
<svg version="1.1" id="Layer_1" xmlns="http://www.w3.org/2000/svg" xmlns:xlink="http://www.w3.org/1999/xlink" x="0px" y="0px"
	 viewBox="0 0 841.9 595.3" style="enable-background:new 0 0 841.9 595.3;" xml:space="preserve">
<g>
	<path d="M721.3,597.4c-199.2,0-397.8,0-596.9,0c0-6.4,0-12.6,0-19.5c32.8,0,65.6,0,99.2,0c0-3,0-5.3,0-7.5c0-73.7,0-147.4,0.1-221
		c0-4.6-1.3-7.7-4.8-10.8c-29.9-26.9-59.6-54-89.3-81.1c-8.2-7.4-11.5-16.6-9.1-27.3c2.3-10.4,8.9-17.6,19.3-20.5
		c10.3-2.9,19.4-0.4,27.5,6.8c22,19.6,44,39.2,66.2,58.6c2.4,2.1,6.2,3.4,9.4,3.5c9.4,0.5,18.9,0.2,28.6-0.4
		c-13.3-4.7-24.3-12.1-31.3-24.6c-6.9-12.3-8.5-25.4-4.4-39c6.6-21.9,27.1-36.4,49.6-35.3c23.1,1.1,42.3,17.2,46.7,39.1
		c5.3,26-6.4,45-38,60.3c13.3,0,24.9,0.3,36.6-0.1c5.5-0.2,8.8,1.7,12.2,5.9c21.5,26.7,43.3,53.2,65.1,79.7c1.3,1.6,2.7,3,5,5.6
		c0-123.9,0-246.5,0-369.5c56.7,0,112.8,0,169.4,0c0,13,0,25.7,0,39.1c38.1,0,75.7,0,114.3,0c-1.1,2.9-1.8,5-2.6,7.1
		c-6.3,15.8-12.9,31.5-18.8,47.5c-1.2,3.3-1.1,7.9,0.1,11.2c5.9,15.9,12.5,31.7,18.8,47.5c0.8,1.9,1.4,3.8,2.2,6.3
		c-54.6,0-108.5,0-163.4,0c0-12.9,0-25.8,0-39.2c-33.5,0-66.2,0-99.4,0c0,82.7,0,165.6,0,249.3c1.6-1.7,2.8-2.8,3.9-4.2
		c22.3-27.2,44.6-54.3,66.7-81.7c2.6-3.3,5.3-4.7,9.6-4.6c12.2,0.3,24.4,0.1,36.8-0.5c-13.7-4.8-24.9-12.6-31.8-25.6
		c-6.9-12.9-7.9-26.5-3.1-40.3c7.8-22.5,29.9-35.6,54.4-32.6c22.2,2.8,39.6,21.6,42.1,45.4c2.4,23.2-12.6,44-37.9,53.5
		c4.5,0,9.2-0.6,13.6,0.1c15,2.2,26.1-3.4,36.8-13.9c16.9-16.7,35.3-31.9,53.1-47.6c13.3-11.8,30.3-11.7,41.1,0.2
		c11.1,12.3,9.6,28.9-4,41.3c-29.4,26.8-58.9,53.5-88.2,80.4c-2.2,2-4.1,5.5-4.1,8.4c-0.2,75.2-0.2,150.3-0.2,225.5
		c0,1.2,0.2,2.5,0.3,4.4c32.8,0,65.5,0,98.7,0C721.3,584.3,721.3,590.4,721.3,597.4z M432.7,417.8c0,27.1,0,53.5,0,79.7
		c-6.9,0-13.1,0-19.7,0c0-13.7,0-26.9,0-40.2c0-13.1,0-26.2,0-39.7c-19.8,7.9-28.6,5.7-42.2-10.2c-7.7-9-15.4-17.8-23-26.9
		c-1.1-1.3-1.6-3.2-2.4-4.9c-0.6,0.6-1.1,1.2-1.7,1.9c0,66.5,0,133.1,0,199.4c53.2,0,105.9,0,158.4,0c0-67,0-133.5,0-200.4
		c-0.8,0.5-1.2,0.7-1.5,1c-8.5,9.9-17,19.8-25.5,29.7C461.4,423.4,453.3,425.5,432.7,417.8z M572.4,438.7c0,46.3,0,92.5,0,138.5
		c10.4,0,20,0,29.9,0c0-3,0-5.5,0-8c0-75.6,0.1-151.1-0.1-226.7c0-5.9,1.5-10,6-14.1c30.6-27.4,60.8-55.1,91.2-82.7
		c1.2-1.1,2.5-2.2,3.7-3.4c3.7-3.7,4.4-7.8,0.8-11.7c-3.4-3.7-7.4-3.3-11.3-0.2c-0.6,0.5-1.3,1.1-1.9,1.7
		c-23.3,20.7-46.6,41.3-69.8,62.2c-3.3,3-6.6,4.4-11.2,4.4c-29-0.2-58.1,0-87.1-0.2c-4,0-6.5,1.2-9,4.3
		c-22.7,28-45.5,55.8-68.2,83.6c-1.2,1.5-3.2,3.1-3.2,4.5c0.1,3.3,0.4,7.7,2.4,9.3c2.1,1.6,6.7,1.1,9.6,0c2.5-0.9,4.1-4.1,6-6.3
		c18.8-21.9,37.5-43.8,56.3-65.7c1.5-1.8,3.2-3.5,6.1-6.6c0,86.5,0,170.9,0,255.6c10,0,19.4,0,29.5,0c0-46.3,0-92.2,0-138.6
		C559.2,438.7,565.4,438.7,572.4,438.7z M323.3,323.6c0.4-0.2,0.9-0.4,1.3-0.6c6.1,7.1,12.2,14.3,18.4,21.4
		c15.3,17.9,30.7,35.8,46,53.7c4.4,5.1,10.1,5.7,13.5,1.5c3.6-4.5,1.8-8.6-1.4-12.5c-23.2-28.3-46.3-56.7-69.7-84.9
		c-1.7-2-5.2-3.5-7.9-3.5c-29.5-0.2-58.9-0.1-88.4-0.3c-2.8,0-6.3-1.1-8.4-2.9c-23.1-20.2-46-40.7-69-61.1c-1.9-1.7-3.7-3.5-5.8-4.9
		c-3.7-2.4-7.4-1.9-10.2,1.4c-2.8,3.3-2.7,7,0.1,10.3c1.2,1.4,2.7,2.7,4.1,3.9c30.5,27.7,61,55.6,91.7,83.1
		c4.4,3.9,6.4,7.8,6.4,13.9c-0.3,75.8-0.2,151.6-0.2,227.3c0,2.5,0,4.9,0,7.6c10.2,0,19.8,0,30,0c0-46.4,0-92.4,0-138.4
		c6.9,0,13,0,19.9,0c0,46.5,0,92.5,0,138.4c10.3,0,19.8,0,29.7,0C323.3,492.4,323.3,408,323.3,323.6z M561.9,99
		c0-26.8,0-52.8,0-79.1c-43,0-85.6,0-128.5,0c0,26.5,0,52.6,0,79.1C476.4,99,519,99,561.9,99z M582.5,119.3c-10.4,0-19.9,0-29.7,0
		c0,6.9,0,13.1,0,19.6c38.1,0,75.9,0,114.3,0c-4.4-11.2-8.5-22.2-13.1-32.9c-2-4.6-2.1-8.4-0.1-13.1c4.7-10.7,8.7-21.7,13.2-33
		c-28.5,0-56.3,0-84.6,0C582.5,79.6,582.5,98.9,582.5,119.3z M532.7,228.8c0,16.4,12.9,29.7,29.4,30c16.4,0.3,30.3-13.3,30.3-29.8
		c0-16.5-13.7-30.2-30.1-30C545.9,199.1,532.7,212.4,532.7,228.8z M313.3,228.7c-0.1-16.3-13.5-29.7-29.7-29.8
		c-16.5-0.1-29.9,13.5-29.9,30.1c0.1,16.4,13.2,29.6,29.6,29.7C299.8,258.9,313.3,245.3,313.3,228.7z"/>
</g>
</svg>
