<?xml version="1.0" encoding="utf-8"?>
<!-- Generator: Adobe Illustrator 21.1.0, SVG Export Plug-In . SVG Version: 6.00 Build 0)  -->
<svg version="1.1" id="Layer_1" xmlns="http://www.w3.org/2000/svg" xmlns:xlink="http://www.w3.org/1999/xlink" x="0px" y="0px"
	 viewBox="0 0 841.9 595.3" style="enable-background:new 0 0 841.9 595.3;" xml:space="preserve">
<g>
	<path d="M631.1,302.2c-9.5,21.5-19,42.9-28.5,64.4c-7.7,17.4-15,35-23.1,52.1c-11.7,24.7-31.2,40.3-57.3,48.5
		c-15.5,4.9-30.6,11.1-45.9,16.7c-9.4,3.5-18.7,7.5-28.3,10.2c-24.8,6.9-48.9,4-72.4-6.2c-25.2-10.9-50.3-21.9-75.7-32.2
		c-19.6-7.9-40.4-11.8-61.4-14c-6-0.6-11.9-1.1-17.9-1.8c-5-0.6-7.3-3.1-7.3-8.1c-0.1-21.4-0.1-42.7,0.1-64.1c0-2.1,0.9-4.7,2.2-6.3
		c18.5-21.6,40.9-36.4,69.9-39.5c13.7-1.4,26.8,1.4,39.8,5.1c21.1,6,40.8,14.9,59.5,26.1c11.1,6.6,22.9,11.2,35.9,12.1
		c0.9,0.1,1.8,0,3.5,0c4.6-57,3.7-113-21.6-165.2c-9.9,0.8-19,2.3-28,2.1c-30.9-0.8-49.6-18-58.3-45.3c-5.3-16.5-5.9-33.7-5.2-50.9
		c0.2-4.1,2.4-6.9,6.5-7c25.1-0.6,49.9,1,72.8,12.3c26.5,13.1,35.4,33.7,28.1,62.5c-1.2,4.7-3.3,9.2-4.7,13.9
		c-0.5,1.6-0.7,3.8,0.1,5.2c15.3,28.6,21.8,59.5,24.7,91.4c0.2,2.1,0.4,4.3,1.3,6.6c1.3-2.9,2.7-5.8,3.9-8.7c0.3-0.8,0-2-0.3-3
		c-5.1-14.5-6.4-29.2-2.7-44.1c5.3-21.5,20.2-33.8,40.6-40c15-4.6,30.5-5.2,46-4.3c4.4,0.3,7.1,2.5,7.1,6.8
		c0.3,23.3-1.5,46.3-12.6,67.4c-12.5,23.9-33.8,32.1-59.4,23.6c-1.8-0.6-3.6-1.1-5.6-1.8c-11.8,25.1-17.7,51.2-18.9,78.9
		c2.5,0,4.8,0,7,0c13.7,0,27.5,0.3,41.2-0.1c13-0.4,23.8,3.3,31.7,14.7c7.6-8.7,14.9-17.2,22.3-25.6c12-13.9,24-27.9,36.1-41.6
		c12.5-14.2,28.7-20,47.3-19.9c3.5,0,5.7,2,7.6,4.7C631.1,299.5,631.1,300.8,631.1,302.2z M227,426.9c3.3,0.4,6.4,0.7,9.5,1
		c24,2.4,47.7,6.8,70.1,15.9c25.2,10.2,50,21.2,75,31.9c16.2,7,32.9,9.9,50.6,7.8c12.7-1.5,24.4-6.4,36.1-11
		c15.4-6,30.7-12.8,46.5-17.3c25.2-7.2,43.4-21.7,54-45.7c14.4-32.7,28.8-65.4,43.2-98.1c0.5-1,0.8-2.1,1.3-3.7
		c-11.1,1.9-20,6.8-27.1,14.8c-18.3,21-36.5,42.2-54.8,63.2c-4.8,5.5-10.4,10.5-10,18.7c0,0.1-0.1,0.3-0.1,0.4
		c-4.2,14.5-15.9,23-31.8,23c-28.4,0-56.9-0.2-85.3,0.1c-8.4,0.1-16.8,1.3-25.1,2.4c-4,0.5-7.8,1.8-12,2.8
		c-1.5-4.3-2.9-8.3-4.6-13.3c9.6-1.8,18.5-3.7,27.5-4.9c5.6-0.8,11.4-0.7,17.1-0.8c27.8-0.1,55.5,0,83.3,0c8.4,0,14.8-4.1,17.4-11
		c4.3-11.3-3.7-23.3-16.1-23.4c-20.7-0.2-41.4,0-62-0.1c-5.4,0-10.9-0.5-16.3-1.2c-13-1.7-24.8-6.8-36-13.5
		c-17.5-10.6-36.1-18.8-55.8-24.5c-12.4-3.6-24.8-6.1-37.8-4.3c-22,3.2-39.5,14.6-54.4,30.4c-1.4,1.5-2.4,4-2.4,6
		c-0.2,16.7-0.1,33.5-0.1,50.2C226.8,424,226.9,425.4,227,426.9z M393.3,187.2c-0.1-0.6-0.1-0.9-0.2-1.1c-0.5-0.8-1.1-1.5-1.7-2.3
		c-9.3-12.1-20.8-21.4-34.6-27.8c-4.5-2.1-5.9-6-4-9.6c1.8-3.5,5.8-4.9,9.8-2.5c7.8,4.6,15.7,9.2,23,14.6c6.7,5,12.6,10.9,18.5,16.2
		c0.5-1.7,1.5-5,2.2-8.2c3.8-17.4-1.8-31.5-17.5-40c-8.2-4.4-17.5-7.3-26.6-9.8c-12.2-3.3-24.8-4.1-37.9-3.8
		c-0.1,16.2,1,31.8,7.3,46.6c5.6,13.3,14.6,23.1,28.9,27.2C371.3,189.8,382.3,189.5,393.3,187.2z M463.6,274.6
		c21.6,8.6,38.1,2.1,47.5-18.3c5.2-11.3,7.6-23.2,8.9-35.4c0.6-5.5,0.7-11,1.1-16.7c-12.5-0.2-24,0.7-35.4,3.8
		c-27.1,7.5-37.3,30.1-32.1,55.5c4.7-6,9-12.3,14.2-17.7c6-6.2,12.8-11.8,19.5-17.2c3.4-2.8,7.4-1.8,9.7,1.4
		c2.2,3.2,1.4,6.9-2.1,9.6c-0.5,0.4-1.1,0.8-1.7,1.2C481.1,250,471.6,261.3,463.6,274.6z"/>
</g>
</svg>
