<?xml version="1.0" encoding="UTF-8"?>
<svg width="100%" height="100%" viewBox="0 0 18 18" version="1.1" xmlns="http://www.w3.org/2000/svg" xmlns:xlink="http://www.w3.org/1999/xlink">
    <!-- Generator: Sketch 52.2 (67145) - http://www.bohemiancoding.com/sketch -->
    <title>18px / contacted</title>
    <desc>Created with Sketch.</desc>
    <g id="18px-/-contacted" stroke="none" stroke-width="1" fill="none" fill-rule="evenodd">
        <path d="M6.8185121,10.1052632 C8.42587607,10.1052632 9.72776815,8.78631579 9.72776815,7.15789474 C9.72776815,5.52947368 8.42587607,4.21052632 6.8185121,4.21052632 C5.21114813,4.21052632 3.90925605,5.52947368 3.90925605,7.15789474 C3.90925605,8.78631579 5.21114813,10.1052632 6.8185121,10.1052632 Z M6.8185121,5.68421053 C7.61855751,5.68421053 8.27314012,6.34736842 8.27314012,7.15789474 C8.27314012,7.96842105 7.61855751,8.63157895 6.8185121,8.63157895 C6.01846668,8.63157895 5.36388407,7.96842105 5.36388407,7.15789474 C5.36388407,6.34736842 6.01846668,5.68421053 6.8185121,5.68421053 Z M6.8185121,11.5789474 C4.87658369,11.5789474 1,12.5663158 1,14.5263158 L1,16 L12.6370242,16 L12.6370242,14.5263158 C12.6370242,12.5663158 8.76044051,11.5789474 6.8185121,11.5789474 Z M2.45462802,14.5263158 C2.61463711,13.9957895 4.86203741,13.0526316 6.8185121,13.0526316 C8.78225993,13.0526316 11.0369334,14.0031579 11.1823962,14.5263158 L2.45462802,14.5263158 Z M11.2405813,5.72105263 C11.8515251,6.59052632 11.8515251,7.71789474 11.2405813,8.58736842 L12.4624688,9.83263158 C13.9316431,8.34421053 13.9316431,6.09684211 12.4624688,4.47578947 L11.2405813,5.72105263 Z M14.8698782,2 L13.6843564,3.20105263 C15.6990162,5.42631579 15.6990162,8.77157895 13.6843564,11.1147368 L14.8698782,12.3157895 C17.7064029,9.44947368 17.713676,4.98421053 14.8698782,2 Z" id="Combined-Shape" fill="#F57C00" fill-rule="nonzero"></path>
    </g>
</svg>