<?xml version="1.0" encoding="UTF-8"?>
<svg width="60px" height="60px" viewBox="0 0 60 60" version="1.1" xmlns="http://www.w3.org/2000/svg" xmlns:xlink="http://www.w3.org/1999/xlink">
    <!-- Generator: Sketch 64 (93537) - https://sketch.com -->
    <title>60 px / contract</title>
    <desc>Created with Sketch.</desc>
    <g id="60-px-/-contract" stroke="none" stroke-width="1" fill="none" fill-rule="evenodd">
        <rect id="Rectangle" x="0" y="0" width="60" height="60"></rect>
        <g id="contract" transform="translate(0.000000, 1.000000)">
            <rect id="Rectangle-5-Copy" fill="#F95632" x="0" y="13.5" width="9.75" height="9.75"></rect>
            <rect id="Rectangle-5" fill="#D4EDEB" x="33.75" y="0" width="24" height="24"></rect>
            <path d="M46.8668332,3.00227636 C46.8049938,3.00065039 46.7432634,3 46.6816421,3 L11.0453453,3 C7.86481461,3 5.27443038,5.5599275 5.25,8.71561049 C5.25,8.72200597 5.25,8.72850985 5.25,8.73501373 L5.25,54.4391936 C5.25,56.6783714 7.08293324,58.5 9.33576371,58.5 L39.0046119,58.5 C41.2575514,58.5 43.0903756,56.678263 43.0903756,54.4391936 L43.0903756,20.5670906 L49.8002244,20.5670906 C51.2888419,20.5670906 52.5,19.363439 52.5,17.8839145 L52.5,8.85739509 C52.5,5.71352749 49.9729821,3.08704361 46.8668332,3.00227636 Z M40.9093094,8.71582728 C40.9092003,8.72222276 40.9092003,8.72861825 40.9092003,8.73501373 L40.9092003,54.4391936 C40.9092003,55.4828497 40.0549003,56.3320397 39.0047209,56.3320397 L9.33576371,56.3320397 C8.28569343,56.3320397 7.43128435,55.4829581 7.43128435,54.4391936 L7.43128435,8.76016207 C7.43128435,6.77940516 9.05252394,5.16817708 11.0452363,5.16817708 L42.1726002,5.16817708 C41.3625802,6.17291827 40.9191251,7.40768005 40.9093094,8.71582728 Z M50.3187157,17.8841313 C50.3187157,18.1681341 50.0861907,18.3992387 49.8004425,18.3992387 L43.0905937,18.3992387 L43.0905937,8.76016207 C43.0905937,7.78208679 43.4791895,6.86753274 44.1847259,6.18527564 C44.8632144,5.52914246 45.7509972,5.17045344 46.6953842,5.16817708 L46.7046547,5.16817708 C46.7395552,5.16817708 46.7728198,5.16871907 46.8069569,5.16958625 C48.7433921,5.22237608 50.3187157,6.87685497 50.3187157,8.85750349 L50.3187157,17.8841313 L50.3187157,17.8841313 Z" id="Shape" fill="#333333" fill-rule="nonzero"></path>
            <path d="M19.875,9.75 C15.1192343,9.75 11.25,13.6190162 11.25,18.3748909 C11.25,23.1307657 15.1191252,27 19.875,27 C24.6308748,27 28.5,23.1308748 28.5,18.375 C28.5,13.6191252 24.6307657,9.75 19.875,9.75 Z M19.875,24.8180878 C16.3222204,24.8180878 13.4318031,21.9276705 13.4318031,18.3748909 C13.4318031,14.8221113 16.3222204,11.931694 19.875,11.931694 C23.4277796,11.931694 26.3181969,14.8221113 26.3181969,18.3748909 C26.3181969,21.9276705 23.4277796,24.8180878 19.875,24.8180878 Z" id="Shape" fill="#D4EDEB" fill-rule="nonzero"></path>
            <path d="M19.8041275,19.5375653 C18.8874912,19.5375653 18.1418647,18.8478732 18.1418647,18 C18.1418647,17.1521268 18.8876108,16.4623241 19.8041275,16.4623241 C20.4646079,16.4623241 21,15.9669847 21,15.3561621 C21,14.7453394 20.4646079,14.25 19.8041275,14.25 C17.5685634,14.25 15.75,15.9323619 15.75,18 C15.75,20.0677487 17.5686829,21.75 19.8041275,21.75 C20.4646079,21.75 21,21.2546606 21,20.6438379 C21,20.0329046 20.4646079,19.5375653 19.8041275,19.5375653 Z" id="Shape" fill="#26A59A" fill-rule="nonzero"></path>
            <path d="M35.6503122,30.75 L12.3496878,30.75 C11.7423302,30.75 11.25,31.253775 11.25,31.875 C11.25,32.496225 11.7423302,33 12.3496878,33 L35.6503122,33 C36.2576698,33 36.75,32.496225 36.75,31.875 C36.75,31.253775 36.2576698,30.75 35.6503122,30.75 Z" id="Shape" fill="#26A59A" fill-rule="nonzero"></path>
            <path d="M35.6503122,36 L12.3496878,36 C11.7423302,36 11.25,36.503775 11.25,37.125 C11.25,37.746225 11.7423302,38.25 12.3496878,38.25 L35.6503122,38.25 C36.2576698,38.25 36.75,37.746225 36.75,37.125 C36.75,36.503775 36.2576698,36 35.6503122,36 Z" id="Shape" fill="#F95632" fill-rule="nonzero"></path>
            <path d="M24.4038546,40.5 L12.3461454,40.5 C11.7407443,40.5 11.25,41.003775 11.25,41.625 C11.25,42.246225 11.7407443,42.75 12.3461454,42.75 L24.4038546,42.75 C25.0092557,42.75 25.5,42.246225 25.5,41.625 C25.5,41.0038875 25.0092557,40.5 24.4038546,40.5 Z" id="Shape" fill="#D4EDEB" fill-rule="nonzero"></path>
            <path d="M56.8798169,42.6969905 L56.8798169,39.4420414 L58.7578429,35.8643365 C58.9185337,35.558038 58.920313,35.1955469 58.7625135,34.8877327 L53.8691705,25.3488466 C53.6809009,24.9818081 53.2956876,24.75 52.8743328,24.75 C52.8737767,24.75 52.8729983,24.75 52.8724423,24.75 C52.4504202,24.7507579 52.0650958,24.9839735 51.8778269,25.3523112 L46.9842616,34.9739163 C46.8265733,35.2840043 46.8305766,35.6488774 46.9951597,35.9556089 L48.8702943,39.45027 L48.8702943,42.6968823 C47.0880156,43.0784291 45.75,44.6272448 45.75,46.4752132 C45.75,46.5110509 45.7518905,46.5467803 45.755449,46.5824014 L46.8741689,57.5244789 C46.9307721,58.0781764 47.4092862,58.5 47.9807674,58.5 L57.7675645,58.5 C58.3390457,58.5 58.8174486,58.0782847 58.874163,57.5246954 L59.994551,46.5826179 C59.9982207,46.5468885 60,46.5110509 60,46.4752132 C60,44.6273531 58.6618732,43.0785373 56.8798169,42.6969905 Z M54.6554994,40.2656584 L54.6554994,42.606043 L51.094167,42.606043 L51.094167,40.2656584 L54.6554994,40.2656584 Z" id="Shape" fill="#333333" fill-rule="nonzero"></path>
            <path d="M56.7607166,56.3345813 L48.9876153,56.3345813 L47.9747624,46.428007 C48.0005619,45.5103026 48.7753254,44.7714617 49.723902,44.7714617 L49.9822307,44.7714617 L55.7677693,44.7714617 L56.0259868,44.7714617 C56.9745634,44.7714617 57.7493269,45.5101943 57.7751264,46.4278988 L56.7607166,56.3345813 Z" id="Path" fill="#D4EDEB"></path>
            <path d="M51.7618404,30.4593431 L51.7618404,34.982578 C51.7618404,35.5804501 52.2597041,36.0652874 52.873888,36.0652874 C53.4880718,36.0652874 53.9859355,35.5804501 53.9859355,34.982578 L53.9859355,30.4236137 L56.521404,35.3659654 L55.0861954,38.1002396 L50.6549082,38.1002396 L49.2282624,35.4412137 L51.7618404,30.4593431 Z" id="Path" fill="#FFFFFF"></path>
            <path d="M23.8697466,50.8965646 C23.5894548,50.433233 22.9480342,50.2639922 22.4370505,50.5179013 C22.206253,50.6325144 21.918152,50.6040046 21.7201748,50.4468182 C20.9687903,49.8497395 19.9185405,49.6709315 18.9792044,49.9799468 L17.1948772,50.5673629 C17.0733049,50.5937679 16.9487777,50.5547344 16.8506334,50.4588727 L16.6164589,50.2298378 C15.95752,49.5855936 14.9839917,49.3444086 14.0759984,49.6007095 L11.9921728,50.1883169 C11.435705,50.345312 11.1248091,50.8814487 11.2978808,51.3860142 C11.4709525,51.8905798 12.0621402,52.1722333 12.6190301,52.0154296 L14.7029612,51.4278222 C14.831182,51.3913718 14.9646794,51.4291616 15.0687335,51.5308592 L15.302908,51.759894 C15.9556205,52.3979197 16.9211285,52.6414008 17.8227899,52.3947626 C17.8414689,52.3895964 17.8600425,52.3841432 17.8782994,52.3780203 L19.6994571,51.7784541 C19.915269,51.7075623 20.1561975,51.7485093 20.3287416,51.8857006 C20.8386699,52.2907689 21.4856838,52.5 22.1374465,52.5 C22.5880661,52.5 23.0410075,52.3999288 23.4520528,52.1954812 C23.9630364,51.9413807 24.1500383,51.3598962 23.8697466,50.8965646 Z" id="Shape" fill="#26A59A" fill-rule="nonzero"></path>
            <circle id="Oval" fill="#F95632" fill-rule="nonzero" cx="26.625" cy="51.375" r="1.125"></circle>
        </g>
    </g>
</svg>