<?xml version="1.0" encoding="UTF-8"?>
<svg  viewBox="0 0 24 24" version="1.1" xmlns="http://www.w3.org/2000/svg" xmlns:xlink="http://www.w3.org/1999/xlink">
    <!-- Generator: Sketch 56.3 (81716) - https://sketch.com -->
    <title>24px / courses</title>
    <desc>Created with Sketch.</desc>
    <g id="24px-/-courses" stroke="none" stroke-width="1" fill="none" fill-rule="evenodd">
        <polygon id="Path" points="0 0 24 0 24 24 0 24"></polygon>
        <path d="M20,18 C21.1,18 21.99,17.1 21.99,16 L22,6 C22,4.89 21.1,4 20,4 L4,4 C2.89,4 2,4.89 2,6 L2,16 C2,17.1 2.89,18 4,18 L0,18 L0,20 L24,20 L24,18 L20,18 Z M4,16 L4,6 L20,6 L20,16.01 L4,16 Z M9,12 L9,13.5345269 L12,15 L15,13.5345269 L15,12 L12,13.4654731 L9,12 Z M12,8 L7,10.5 L12,13 L17,10.5 L12,8 Z" id="Shape" fill="currentColor" fill-rule="nonzero"></path>
    </g>
</svg>
