<?xml version="1.0" encoding="UTF-8"?>
<svg  viewBox="0 0 24 24" version="1.1" xmlns="http://www.w3.org/2000/svg" xmlns:xlink="http://www.w3.org/1999/xlink">
    <!-- Generator: Sketch 56.3 (81716) - https://sketch.com -->
    <title>24px / delete</title>
    <desc>Created with Sketch.</desc>
    <g id="24px-/-delete" stroke="none" stroke-width="1" fill="none" fill-rule="evenodd">
        <rect id="Rectangle" x="0" y="0" width="24" height="24"></rect>
        <path d="M16,9 L16,19 L8,19 L8,9 L16,9 L16,9 Z M14.5,3 L9.5,3 L8.5,4 L5,4 L5,6 L19,6 L19,4 L15.5,4 L14.5,3 L14.5,3 Z M18,7 L6,7 L6,19 C6,20.1 6.9,21 8,21 L16,21 C17.1,21 18,20.1 18,19 L18,7 L18,7 Z" id="XMLID_282_" fill="#3D3D3D" fill-rule="nonzero"></path>
    </g>
</svg>