<?xml version="1.0" encoding="UTF-8"?>
<svg  viewBox="0 0 24 24" version="1.1" xmlns="http://www.w3.org/2000/svg" xmlns:xlink="http://www.w3.org/1999/xlink">
    <!-- Generator: Sketch 56.3 (81716) - https://sketch.com -->
    <title>24px / drag dots</title>
    <desc>Created with Sketch.</desc>
    <g id="24px-/-drag-dots" stroke="none" stroke-width="1" fill="none" fill-rule="evenodd">
        <polygon id="Path" points="0 0 24 0 24 24 0 24"></polygon>
        <path d="M11.5,17.25 C11.5,18.2125 10.7125,19 9.75,19 C8.7875,19 8,18.2125 8,17.25 C8,16.2875 8.7875,15.5 9.75,15.5 C10.7125,15.5 11.5,16.2875 11.5,17.25 Z M9.75,10.25 C8.7875,10.25 8,11.0375 8,12 C8,12.9625 8.7875,13.75 9.75,13.75 C10.7125,13.75 11.5,12.9625 11.5,12 C11.5,11.0375 10.7125,10.25 9.75,10.25 Z M9.75,5 C8.7875,5 8,5.7875 8,6.75 C8,7.7125 8.7875,8.5 9.75,8.5 C10.7125,8.5 11.5,7.7125 11.5,6.75 C11.5,5.7875 10.7125,5 9.75,5 Z M15,8.5 C15.9625,8.5 16.75,7.7125 16.75,6.75 C16.75,5.7875 15.9625,5 15,5 C14.0375,5 13.25,5.7875 13.25,6.75 C13.25,7.7125 14.0375,8.5 15,8.5 Z M15,10.25 C14.0375,10.25 13.25,11.0375 13.25,12 C13.25,12.9625 14.0375,13.75 15,13.75 C15.9625,13.75 16.75,12.9625 16.75,12 C16.75,11.0375 15.9625,10.25 15,10.25 Z M15,15.5 C14.0375,15.5 13.25,16.2875 13.25,17.25 C13.25,18.2125 14.0375,19 15,19 C15.9625,19 16.75,18.2125 16.75,17.25 C16.75,16.2875 15.9625,15.5 15,15.5 Z" id="Shape" fill="currentColor" fill-rule="nonzero"></path>
    </g>
</svg>
