<?xml version="1.0" encoding="UTF-8"?>
<svg xmlns="http://www.w3.org/2000/svg" xmlns:xlink="http://www.w3.org/1999/xlink" width="512" height="512" viewBox="0 0 59 60" version="1.1"><!-- Generator: Sketch 51.3 (57544) - http://www.bohemiancoding.com/sketch --><title>003 - Dreaming</title><desc>Created with Sketch.</desc><defs/><g id="Page-1" stroke="none" stroke-width="1" fill="none" fill-rule="evenodd"><g id="003---Dreaming" transform="translate(-1.000000, -1.000000)" fill="#000000" fill-rule="nonzero"><path d="M2.471,38.391 C2.80026375,38.6192011 3.14777307,38.8198802 3.51,38.991 C3.942,39.212 4.667,39.582 4.717,39.841 C4.7807262,40.1827503 4.73995247,40.5357742 4.6,40.854 C4.451,41.174 4.294,41.449 4.16,41.687 C3.793,42.333 3.181,43.416 4.105,44.172 C4.321,44.372 4.694,44.661 5.035,44.922 C4.78441543,45.359553 4.67085435,45.8622176 4.709,46.365 C4.76229209,46.7608192 4.97692342,47.1169696 5.302,47.349 C5.524,47.505 5.761,47.641 5.995,47.774 C6.586,48.111 6.817,48.267 6.895,48.581 C6.95072661,48.9834757 6.91657463,49.3932994 6.795,49.781 C6.737,50.049 6.679,50.317 6.646,50.581 C6.54659663,51.4922755 6.6588426,52.4141982 6.974,53.275 C7.4234219,54.863697 8.8602194,55.9706445 10.511,56 C10.7865898,55.9991281 11.0613626,55.9699754 11.331,55.913 C14.1877405,55.2356794 17.0027993,54.3932653 19.762,53.39 C22.015,54.712 23.438,58.732 23.809,60.241 C23.9197719,60.6870872 24.3203652,61.0002183 24.78,61 L49.88,60.93 C50.198095,60.9293833 50.4969218,60.7774667 50.6848608,60.5208273 C50.8727998,60.2641879 50.9274293,59.9334437 50.832,59.63 C50.5840507,58.9525717 50.2427579,58.3130683 49.818,57.73 C49.5784791,57.3851857 49.3623284,57.0247119 49.171,56.651 C48.7194175,55.7335946 48.3418821,54.7815634 48.042,53.804 C47.4712015,51.8714821 47.0756037,49.8914849 46.86,47.888 C46.5081643,44.8963057 46.9614389,41.8649237 48.173,39.107 C48.9122569,37.5774407 49.8234731,36.137142 50.889,34.814 C51.489,34.004 52.112,33.165 52.673,32.282 C53.1938107,31.4520809 53.6379775,30.5764665 54,29.666 C55.3150596,29.2945562 56.5213762,28.6119944 57.517,27.676 C59.0958785,26.2101279 59.9951511,24.1544407 60,22 C59.9501626,18.7885357 57.9896138,15.9163691 55.017,14.7 C55.507314,13.5280603 55.759871,12.2703741 55.76,11 C55.6067648,5.3378462 50.9026476,0.866251916 45.24,1 C43.4093303,0.999034961 41.6076703,1.45735801 40,2.333 C37.1247537,1.29796907 34.0697235,0.85575336 31.019,1.033 C27.7654281,1.25882993 24.5327746,1.72273844 21.347,2.421 C16.838,3.321 13.56,4.902 11.325,7.266 C9.56000834,9.15404797 8.19529313,11.3797039 7.313,13.809 C6.95181045,14.8534401 6.65524975,15.9191216 6.425,17 L6.325,17.422 C6.11188832,18.2074692 5.82459624,18.9709027 5.467,19.702 C5.267,20.157 5.061,20.612 4.88,21.086 C4.65224528,21.611379 4.56207696,22.1861159 4.618,22.756 C4.81913234,23.6524828 5.33679367,24.4463722 6.076,24.992 C6.564,25.44 6.885,25.756 6.889,26.031 C6.85287471,26.1828944 6.79565216,26.3289802 6.719,26.465 C5.52119196,28.9879725 4.05327497,31.3735891 2.341,33.58 C1.617,34.461 0.859,35.489 1.018,36.518 C1.23142242,37.3119913 1.7549884,37.9868977 2.471,38.391 Z M53.76,11 C53.7597337,12.3234135 53.4125256,13.6236337 52.753,14.771 C52.5979411,15.0402773 52.5768688,15.3663346 52.695977,15.6533307 C52.8150853,15.9403268 53.0608385,16.1556469 53.361,16.236 C56.0314072,16.8895079 57.9324899,19.2516206 58,22 C57.9929687,23.6034822 57.3212829,25.1322463 56.145,26.222 C54.9097539,27.375114 53.2797857,28.0113562 51.59,28 L46.014,28 C45.947,27.925 45.895,27.841 45.824,27.769 C45.467596,27.4148908 45.0637379,27.1119972 44.624,26.869 C44.717374,26.5875004 44.7843298,26.2979167 44.824,26.004 L52,26.004 C52.5522847,26.004 53,25.5562847 53,25.004 C53,24.4517153 52.5522847,24.004 52,24.004 L44.687,24.004 C44.3382475,22.7454964 43.4868374,21.6860388 42.3328726,21.0746266 C41.1789078,20.4632144 39.8241493,20.3537644 38.587,20.772 C36.6555176,18.0960213 33.0567091,17.2361668 30.1241661,18.7499957 C27.1916231,20.2638246 25.8082187,23.6955829 26.871,26.82 C26.821,26.846 26.777,26.88 26.729,26.908 C25.0491566,25.8375634 24.0228437,23.9917798 24,22 C24.0070313,20.3965178 24.6787171,18.8677537 25.855,17.778 C26.6215032,17.0625396 27.5468575,16.5392003 28.555,16.251 C28.8652778,16.1613307 29.1131446,15.9273258 29.2205022,15.6227158 C29.3278599,15.3181058 29.281489,14.9803989 29.096,14.716 C28.537082,13.9207651 28.2380603,12.9720001 28.24,12 C28.3431743,9.14489567 30.7344481,6.91006033 33.59,7 C34.5425268,6.99461213 35.4802447,7.23575926 36.312,7.7 C36.5445335,7.82993886 36.8192994,7.86173275 37.075362,7.78833064 C37.3314246,7.71492852 37.5476193,7.54239739 37.676,7.309 C39.2243983,4.60228107 42.122065,2.95156112 45.24,3 C49.7980977,2.86637968 53.6066894,6.44252209 53.76,11 Z M27.372,28.871 L27.383,28.862 C27.7092583,28.6152818 28.0780369,28.4305535 28.471,28.317 C28.763448,28.2341892 29.0023593,28.0228658 29.1202557,27.7427159 C29.238152,27.4625661 29.222235,27.1440024 29.077,26.877 C28.2958388,25.4050658 28.3592836,23.6281979 29.2434355,22.2157253 C30.1275873,20.8032528 31.6981224,19.9697637 33.3634355,20.0292253 C35.0287485,20.088687 36.5358388,21.0320658 37.317,22.504 C37.4435678,22.7488566 37.6655894,22.9306138 37.9306182,23.0063363 C38.195647,23.0820589 38.4801786,23.0450312 38.717,22.904 C39.140163,22.6516423 39.6243118,22.5198847 40.117,22.523 C41.6478283,22.5279526 42.8868062,23.7691653 42.889,25.3 C42.8917313,25.8389168 42.7336601,26.3664012 42.435,26.815 C42.2588472,27.0781472 42.2177419,27.4091771 42.3241852,27.7074154 C42.4306285,28.0056537 42.6720397,28.2358515 42.975,28.328 C43.5164129,28.4931187 44.0091147,28.7883964 44.41,29.188 C45.3805531,30.163243 45.6694776,31.6264316 45.1424639,32.8973875 C44.6154502,34.1683434 43.3758878,34.9977306 42,35 L29.407,35 C27.5253659,35 26,33.4746341 26,31.593 C26.0048702,30.5206448 26.5128772,29.5127768 27.372,28.871 Z M3.924,34.8 C5.71353526,32.4953873 7.24784001,30.0034832 8.5,27.368 C8.7352421,26.9548156 8.86763342,26.491103 8.886,26.016 C8.78386015,25.0104644 8.25093667,24.0985488 7.425,23.516 C7.025,23.145 6.639,22.795 6.595,22.471 C6.60291104,22.2346006 6.65550369,22.0018357 6.75,21.785 C6.913,21.357 7.102,20.937 7.29,20.517 C7.70056527,19.6709167 8.02842184,18.787144 8.269,17.878 L8.369,17.452 C8.58139683,16.4521828 8.85491022,15.4663323 9.188,14.5 C9.97697112,12.3245803 11.1973938,10.3310192 12.776,8.639 C14.689,6.615 17.7,5.183 21.74,4.38 C24.8299393,3.70168451 27.9652696,3.24981727 31.121,3.028 C33.4284043,2.89675508 35.7415794,3.14986949 37.966,3.777 C37.382929,4.3033167 36.8634013,4.89600791 36.418,5.543 C35.5183644,5.18407047 34.5585941,4.99978644 33.59,5 C29.629906,4.90994712 26.3431147,8.04022455 26.24,12 C26.2386446,12.951221 26.4401238,13.8917982 26.831,14.759 C25.966884,15.1472515 25.1731204,15.6760892 24.482,16.324 C22.9034908,17.7900465 22.0045905,19.8457107 22,22 C22.0200042,24.4636419 23.1928597,26.7756736 25.169,28.247 C23.8824314,29.871188 23.6386642,32.0883164 24.5416151,33.953236 C25.444566,35.8181556 27.3349861,37.00196 29.407,37 L42,37 C43.7229049,37.0213967 45.3503089,36.2103004 46.3704974,34.8217491 C47.3906859,33.4331978 47.6783359,31.6377651 47.143,30 L51.59,30 C51.617,30 51.643,30 51.67,30 C51.463,30.408 51.24,30.815 50.985,31.218 C50.466,32.039 49.866,32.847 49.285,33.629 C48.1278779,35.0728493 47.140408,36.6448155 46.342,38.314 C44.9882182,41.3985661 44.4821396,44.7885333 44.876,48.134 C45.1066185,50.2562409 45.5279887,52.3533861 46.135,54.4 C46.4639651,55.4752817 46.8789726,56.5223313 47.376,57.531 C47.6039597,57.981734 47.8629147,58.4161101 48.151,58.831 L48.218,58.931 L25.536,59 C24.8717541,56.627989 23.6669103,54.4421559 22.016,52.614 L22.916,52.298 C23.585,52.065 24.089,51.889 24.347,51.806 C28.632,50.451 30.774,48.5 30.716,46.006 C30.7162234,45.7400668 30.6079226,45.4855576 30.4161421,45.3013275 C30.2243616,45.1170974 29.9657098,45.019101 29.7,45.03 C29.1480455,45.043101 28.711146,45.5010397 28.724,46.053 C28.748,47.082 27.905,48.583 23.747,49.898 C23.476,49.985 22.955,50.167 22.264,50.408 C21.52,50.668 20.575,50.999 19.531,51.353 L19.525,51.353 C16.7107073,52.3842961 13.8392719,53.2524045 10.925,53.953 C9.99290296,54.1305494 9.08611748,53.5432097 8.867,52.62 C8.65403967,52.0505889 8.57367075,51.4401271 8.632,50.835 C8.659,50.626 8.706,50.417 8.752,50.208 C8.95538984,49.5169007 8.98493135,48.7862637 8.838,48.081 C8.54781232,47.1628818 7.87254397,46.4164365 6.988,46.036 C6.918,45.997 6.849,45.957 6.78,45.917 C6.88833948,45.6989801 7.01761396,45.492007 7.166,45.299 C7.33365336,45.0863106 7.40787187,44.8147167 7.37168403,44.5463235 C7.33549619,44.2779303 7.19199688,44.0356917 6.974,43.875 C6.734,43.699 6.168,43.275 5.753,42.941 C5.801,42.854 5.853,42.758 5.904,42.672 C6.061,42.396 6.241,42.072 6.415,41.706 C6.73195159,41.0051861 6.82518406,40.2237094 6.682,39.468 C6.442,38.248 5.273,37.65 4.42,37.214 C4.13261917,37.0772821 3.8570164,36.9170713 3.596,36.735 C3.3817006,36.5914967 3.18087589,36.4288287 2.996,36.249 C3,36.1 3.162,35.731 3.924,34.8 Z" id="Shape"/><path d="M39.821,9.635 C40.0533107,9.76318988 40.3270433,9.79379979 40.5819312,9.72009047 C40.8368192,9.64638116 41.0519646,9.47439592 41.18,9.242 C42.0249377,7.81197062 43.5796582,6.95342791 45.24,7 C47.5886521,6.868206 49.6051898,8.65275267 49.76,11 C49.7597627,11.6243086 49.5959942,12.2376648 49.285,12.779 C49.0088577,13.258107 49.173393,13.8703576 49.6525,14.1465 C50.131607,14.4226423 50.7438576,14.258107 51.02,13.779 C51.5051079,12.9331798 51.7602389,11.9750597 51.76,11 C51.606911,7.54710861 48.693694,4.86623406 45.24,5 C42.8506164,4.95304434 40.6244633,6.20822391 39.428,8.277 C39.1617285,8.76054823 39.3376365,9.36839325 39.821,9.635 Z" id="Shape"/><path d="M35.338,9.45 C34.8041084,9.15122145 34.2017959,8.99616389 33.59,9 C31.8390942,8.91072666 30.3436961,10.2498891 30.24,12 C30.2410308,12.5610961 30.4156881,13.1081226 30.74,13.566 C30.9412031,13.8681568 31.2903529,14.0375447 31.6522105,14.0085535 C32.0140681,13.9795623 32.3317953,13.7567456 32.4823245,13.4264088 C32.6328536,13.096072 32.5925405,12.7101022 32.377,12.418 C32.287604,12.2970076 32.2395646,12.1504347 32.24,12 C32.24,11.458 32.858,11 33.59,11 C33.8600804,10.9979942 34.1259505,11.0669618 34.361,11.2 C34.6730537,11.3790683 35.0572466,11.3767024 35.3670713,11.1938045 C35.676896,11.0109067 35.8645882,10.6756733 35.8585738,10.3159418 C35.8525594,9.9562102 35.6537656,9.62743855 35.338,9.455 L35.338,9.45 Z" id="Shape"/><path d="M31,33 L41,33 C41.5522847,33 42,32.5522847 42,32 C42,31.4477153 41.5522847,31 41,31 L31,31 C30.4477153,31 30,31.4477153 30,32 C30,32.5522847 30.4477153,33 31,33 Z" id="Shape"/><path d="M10.966,19.541 C11.5036006,19.6657991 12.0406657,19.3314761 12.166,18.794 L12.266,18.361 C12.4412611,17.5251451 12.6646327,16.7001058 12.935,15.89 C13.5378535,14.2207868 14.4711212,12.6902822 15.679,11.39 C16.9752482,10.1677817 18.56199,9.29662258 20.289,8.859 C20.6307245,8.75467845 20.8908361,8.47597349 20.9713533,8.12787058 C21.0518705,7.77976768 20.9405607,7.41515194 20.6793533,7.17137058 C20.4181459,6.92758923 20.0467245,6.84167845 19.705,6.946 C17.6448677,7.48195529 15.7575511,8.5396103 14.225,10.017 C12.8322993,11.5141486 11.7561411,13.277021 11.061,15.2 C10.7612456,16.087314 10.5141488,16.9915545 10.321,17.908 L10.221,18.341 C10.0960876,18.8779763 10.4293361,19.4147523 10.966,19.541 Z" id="Shape"/><circle id="Oval" cx="10" cy="22" r="1"/></g></g></svg>
