<?xml version="1.0" encoding="UTF-8"?>
<svg width="100%" height="100%" viewBox="0 0 24 24" version="1.1" xmlns="http://www.w3.org/2000/svg" xmlns:xlink="http://www.w3.org/1999/xlink">
    <!-- Generator: Sketch 52.2 (67145) - http://www.bohemiancoding.com/sketch -->
    <title>24px / duplicate</title>
    <desc>Created with Sketch.</desc>
    <g id="24px-/-duplicate" stroke="none" stroke-width="1" fill="none" fill-rule="evenodd">
        <path d="M17,1 L5,1 C3.9,1 3,1.9 3,3 L3,17 L5,17 L5,3 L17,3 L17,1 Z M16,5 L9,5 C7.9,5 7.01,5.9 7.01,7 L7,21 C7,22.1 7.89,23 8.99,23 L20,23 C21.1,23 22,22.1 22,21 L22,11 L16,5 Z M9,21 L9,7 L15,7 L15,12 L20,12 L20,21 L9,21 Z" id="Combined-Shape" fill="#3D3D3D" fill-rule="nonzero"></path>
    </g>
</svg>