<?xml version="1.0" encoding="UTF-8"?>
<svg width="100%" height="100%" viewBox="0 0 14 12" version="1.1" xmlns="http://www.w3.org/2000/svg" xmlns:xlink="http://www.w3.org/1999/xlink">
    <!-- Generator: Sketch 52.4 (67378) - http://www.bohemiancoding.com/sketch -->
    <title>18px / error</title>
    <desc>Created with Sketch.</desc>
    <g id="UI-kit" stroke="none" stroke-width="1" fill="none" fill-rule="evenodd">
        <g transform="translate(-1072.000000, -2110.000000)" fill="#3D3D3D" fill-rule="nonzero" id="Group-6-Copy-11">
            <g transform="translate(827.000000, 2080.000000)">
                <g id="Group-24" transform="translate(0.000000, 18.000000)">
                    <g id="18px-/-error" transform="translate(243.000000, 9.000000)">
                        <path d="M2,9 C2,10.6575 2.70777778,12.15 3.83555556,13.23 L2.66111111,14.3625 C2.42,14.595 2.59111111,15 2.94111111,15 L6.27777778,15 C6.49555556,15 6.66666667,14.835 6.66666667,14.625 L6.66666667,11.4075 C6.66666667,11.07 6.24666667,10.905 6.00555556,11.145 L4.92444444,12.1875 C4.08444444,11.3625 3.55555556,10.245 3.55555556,9 C3.55555556,7.2075 4.64444444,5.655 6.22333333,4.935 C6.48777778,4.815 6.66666667,4.5825 6.66666667,4.305 L6.66666667,4.1625 C6.66666667,3.6525 6.11444444,3.33 5.64,3.5475 C3.49333333,4.4925 2,6.5775 2,9 Z M8.22222222,12.75 L9.77777778,12.75 L9.77777778,11.25 L8.22222222,11.25 L8.22222222,12.75 Z M15.0588889,3 L11.7222222,3 C11.5044444,3 11.3333333,3.165 11.3333333,3.375 L11.3333333,6.5925 C11.3333333,6.93 11.7533333,7.095 11.9944444,6.855 L13.0755556,5.8125 C13.9155556,6.6375 14.4444444,7.755 14.4444444,9 C14.4444444,10.7925 13.3555556,12.345 11.7766667,13.065 C11.5122222,13.185 11.3333333,13.4175 11.3333333,13.695 L11.3333333,13.83 C11.3333333,14.34 11.8855556,14.6625 12.36,14.445 C14.5066667,13.5075 16,11.4225 16,9 C16,7.3425 15.2922222,5.85 14.1644444,4.77 L15.3388889,3.6375 C15.58,3.405 15.4088889,3 15.0588889,3 Z M9,9.75 C9.42777778,9.75 9.77777778,9.4125 9.77777778,9 L9.77777778,6 C9.77777778,5.5875 9.42777778,5.25 9,5.25 C8.57222222,5.25 8.22222222,5.5875 8.22222222,6 L8.22222222,9 C8.22222222,9.4125 8.57222222,9.75 9,9.75 Z" id="Shape"></path>
                    </g>
                </g>
            </g>
        </g>
    </g>
</svg>