<?xml version="1.0" encoding="UTF-8"?>
<svg  viewBox="0 0 18 18" version="1.1" xmlns="http://www.w3.org/2000/svg" xmlns:xlink="http://www.w3.org/1999/xlink">
    <!-- Generator: Sketch 56.2 (81672) - https://sketch.com -->
    <title>18px / eye_viewed</title>
    <desc>Created with Sketch.</desc>
    <g id="18px-/-eye_viewed" stroke="none" stroke-width="1" fill="none" fill-rule="evenodd">
        <rect id="Rectangle" x="0" y="0" width="18" height="18"></rect>
        <path d="M9.5,5.46666667 C12.4286364,5.46666667 15.0404545,7.02866667 16.3154545,9.5 C15.0404545,11.9713333 12.4363636,13.5333333 9.5,13.5333333 C6.56363636,13.5333333 3.95954545,11.9713333 2.68454545,9.5 C3.95954545,7.02866667 6.57136364,5.46666667 9.5,5.46666667 L9.5,5.46666667 Z M9.5,4 C5.63636364,4 2.33681818,6.28066667 1,9.5 C2.33681818,12.7193333 5.63636364,15 9.5,15 C13.3636364,15 16.6631818,12.7193333 18,9.5 C16.6631818,6.28066667 13.3636364,4 9.5,4 L9.5,4 Z M9.5,7.66666667 C10.5663636,7.66666667 11.4318182,8.488 11.4318182,9.5 C11.4318182,10.512 10.5663636,11.3333333 9.5,11.3333333 C8.43363636,11.3333333 7.56818182,10.512 7.56818182,9.5 C7.56818182,8.488 8.43363636,7.66666667 9.5,7.66666667 L9.5,7.66666667 Z M9.5,6.2 C7.58363636,6.2 6.02272727,7.68133333 6.02272727,9.5 C6.02272727,11.3186667 7.58363636,12.8 9.5,12.8 C11.4163636,12.8 12.9772727,11.3186667 12.9772727,9.5 C12.9772727,7.68133333 11.4163636,6.2 9.5,6.2 L9.5,6.2 Z" id="Combined-Shape" fill="currentColor" fill-rule="nonzero"></path>
    </g>
</svg>
