<?xml version="1.0" encoding="UTF-8"?>
<svg width="24px" height="24px" viewBox="0 0 24 24" version="1.1" xmlns="http://www.w3.org/2000/svg" xmlns:xlink="http://www.w3.org/1999/xlink">
    <!-- Generator: Sketch 56.3 (81716) - https://sketch.com -->
    <title>icon / 24px / facebook</title>
    <desc>Created with Sketch.</desc>
    <g id="icon-/-24px-/-facebook" stroke="none" stroke-width="1" fill="none" fill-rule="evenodd">
        <rect id="Rectangle" x="0" y="0" width="24" height="24"></rect>
        <path d="M7.36629376,9.9 C7.1639953,9.9 7,10.0678932 7,10.275 L7,13.725 C7,13.9321068 7.1639953,14.1 7.36629376,14.1 L9.52742692,14.1 L9.52742692,20.625 C9.52742692,20.8321068 9.69142222,21 9.89372068,21 L13.2636232,21 C13.4659217,21 13.629917,20.8321068 13.629917,20.625 L13.629917,14.1 L15.7910502,14.1 C15.9591305,14.1 16.1056418,13.9828885 16.1464073,13.8159509 L16.9888829,10.3659509 C17.0466792,10.1292708 16.871826,9.9 16.6335258,9.9 L13.629917,9.9 L13.629917,7.6875 C13.629917,7.41826118 13.8431109,7.2 14.1060989,7.2 L16.6335258,7.2 C16.8358243,7.2 16.9998196,7.03210678 16.9998196,6.825 L16.9998196,3.375 C16.9998196,3.16789322 16.8358243,3 16.6335258,3 L14.1060989,3 C11.5773682,3 9.52742692,5.09866524 9.52742692,7.6875 L9.52742692,9.9 L7.36629376,9.9 Z M8.46517503,11.4 L10.9926019,11.4 L10.9926019,7.6875 C10.9926019,5.92709236 12.386562,4.5 14.1060989,4.5 L15.5346445,4.5 L15.5346445,5.7 L14.1060989,5.7 C13.0339171,5.7 12.164742,6.58983406 12.164742,7.6875 L12.164742,11.4 L15.2261046,11.4 L14.9330696,12.6 L12.164742,12.6 L12.164742,19.5 L10.9926019,19.5 L10.9926019,12.6 L8.46517503,12.6 L8.46517503,11.4 Z" id="Path" fill="#26A69A" fill-rule="nonzero"></path>
    </g>
</svg>