<?xml version="1.0" encoding="utf-8"?>
<!-- Generator: Adobe Illustrator 21.1.0, SVG Export Plug-In . SVG Version: 6.00 Build 0)  -->
<svg version="1.1" id="Layer_1" xmlns="http://www.w3.org/2000/svg" xmlns:xlink="http://www.w3.org/1999/xlink" x="0px" y="0px"
	 viewBox="0 0 841.9 595.3" style="enable-background:new 0 0 841.9 595.3;" xml:space="preserve">
<g>
	<path d="M391.5,490.3c-5.2-3.1-6.2-4.9-5.2-11c1.2-7.4,2.4-14.8,3.8-22.1c0.5-2.5-0.2-3.9-1.9-5.5c-5.5-5.2-10.9-10.6-16.4-15.9
		c-2.5-2.4-4-5-3-8.6c1.1-3.8,4.1-5.1,7.6-5.6c7.5-1.1,15.1-2.2,22.6-3.2c2.3-0.3,3.8-1.1,4.8-3.4c3.3-7,6.8-13.9,10.2-20.8
		c1.5-3.2,3.7-5.3,7.4-5.4c3.7,0,5.9,2.1,7.5,5.3c3.4,7.1,6.8,14.2,10.5,21.1c0.7,1.4,2.6,2.7,4.1,3c7.5,1.3,15.1,2.3,22.6,3.3
		c3.6,0.5,6.8,1.7,8,5.6c1.2,3.8-0.6,6.5-3.2,8.9c-5.5,5.3-10.8,10.7-16.4,15.9c-1.7,1.6-2.1,3-1.7,5.2c1.3,7,2.3,14,3.8,21
		c1.1,5.2,0.3,9.3-4.4,12.2c-1.8,0-3.5,0-5.2,0c-8-4.4-16-8.7-24.1-13c-0.7-0.3-1.8-0.4-2.4-0.1c-8.2,4.3-16.3,8.7-24.5,13.1
		C394.5,490.3,393,490.3,391.5,490.3z M398.4,475.8c1.6-0.8,2.7-1.3,3.7-1.8c4.9-2.5,9.8-5,14.6-7.7c3.3-1.8,6.3-1.9,9.6-0.1
		c2.9,1.7,6,3.1,9,4.7c3,1.6,6,3.1,9.5,5c-1.2-7.1-2.1-13.4-3.4-19.6c-0.9-4.2,0.1-7.4,3.2-10.4c4.6-4.5,9-9.3,13.6-14.2
		c-6.2-0.9-12.5-2.1-18.9-2.8c-4.3-0.5-7.1-2.4-8.9-6.4c-2.7-5.8-5.7-11.5-8.9-18c-3.2,6.5-6.2,12.2-8.9,18.1
		c-1.7,3.8-4.3,5.8-8.5,6.3c-6.5,0.7-12.9,1.9-19,2.8c4.4,4.7,8.5,9.4,13,13.7c3.5,3.3,4.6,6.8,3.6,11.4
		C400.4,462.9,399.5,469,398.4,475.8z"/>
	<path d="M264.8,490.3c-4.3-2.6-5.9-6.1-4.7-11.3c1.6-7.1,2.5-14.3,3.8-21.4c0.5-2.4,0-4.2-1.9-5.9c-5.7-5.3-11.1-10.8-16.7-16.2
		c-2.4-2.4-3.7-5-2.7-8.4c1-3.4,3.6-5,6.9-5.4c7.8-1.1,15.6-2.3,23.4-3.3c2.4-0.3,3.7-1.3,4.7-3.5c3.2-6.8,6.6-13.4,9.9-20.2
		c1.6-3.4,3.7-6,7.8-5.9c4.1,0,6.1,2.7,7.7,6.1c3.2,6.8,6.5,13.5,10,20.1c0.8,1.5,2.7,2.9,4.4,3.2c7.5,1.3,15.1,2.3,22.6,3.3
		c3.6,0.5,6.7,1.7,7.8,5.4c1.2,3.8-0.5,6.7-3.2,9.3c-5.6,5.2-11.1,10.5-16.3,16c-1.1,1.1-1.7,3.3-1.5,4.8c1.1,7.7,2.5,15.3,3.9,22.9
		c0.9,4.9-0.8,8.3-5.1,10.5c-1.5,0-3,0-4.5,0c-8.1-4.3-16.2-8.7-24.3-13c-0.8-0.4-2.2-0.3-3,0.1c-8.2,4.2-16.3,8.5-24.4,12.8
		C267.8,490.3,266.2,490.3,264.8,490.3z M295.2,404.6c-3.3,6.6-6.4,12.6-9.2,18.7c-1.6,3.4-4.1,5.1-7.8,5.6
		c-6.6,0.9-13.2,1.9-19.5,2.9c4.7,4.9,9.2,9.9,13.9,14.7c2.6,2.6,3.6,5.4,2.9,9.1c-1.3,6.5-2.3,13.2-3.5,20.4
		c6.4-3.3,12.2-6.2,17.8-9.4c3.6-2.1,6.9-2.1,10.6-0.1c5.6,3.1,11.4,6,17.9,9.4c-1-6.2-1.5-11.6-2.9-16.9c-1.7-6.4-0.1-11,4.9-15.2
		c4.2-3.6,7.7-7.9,11.7-12.1c-6.6-1-13-2.1-19.4-2.8c-4-0.5-6.6-2.3-8.3-5.9C301.5,417,298.5,411.1,295.2,404.6z"/>
	<path d="M517.5,490.3c-5.3-3.4-6-5.2-4.9-11.6c1.3-7.3,2.6-14.5,3.6-21.8c0.2-1.5-0.4-3.7-1.5-4.8c-5.4-5.6-11-11-16.6-16.3
		c-2.7-2.5-4.1-5.4-3-9c1.2-3.7,4.3-4.9,7.8-5.4c7.4-1,14.8-2.2,22.3-3.1c2.6-0.3,4-1.4,5-3.7c3.1-6.6,6.4-13,9.5-19.5
		c1.6-3.5,3.5-6.4,7.9-6.4c4.5,0,6.4,3,8.1,6.6c3.2,6.6,6.4,13.3,9.8,19.8c0.7,1.4,2.6,2.7,4.1,3c7.5,1.3,15.1,2.3,22.6,3.3
		c3.7,0.5,6.8,1.7,8.1,5.6c1.2,3.7-0.6,6.4-3.2,8.9c-5.4,5.2-10.7,10.6-16.2,15.7c-1.9,1.8-2.4,3.5-1.9,5.9
		c1.3,7.1,2.2,14.3,3.8,21.4c1.2,5.2-0.4,8.7-4.7,11.3c-1.5,0-3,0-4.5,0c-8-4.3-16-8.5-24.1-12.7c-0.9-0.5-2.5-0.7-3.4-0.2
		c-8.2,4.2-16.2,8.6-24.3,12.9C520.5,490.3,519,490.3,517.5,490.3z M511,431.8c4.3,4.4,8,8.9,12.3,12.6c4.5,3.9,5.8,8.2,4.4,14
		c-1.3,5.5-1.9,11.2-3,17.6c5.9-3.1,11.1-5.5,16-8.5c4.9-3,9.3-3.2,14.3-0.1c4.9,3.1,10.3,5.5,16.1,8.5c-1.2-7-2-13.4-3.4-19.7
		c-0.9-4.3,0.3-7.4,3.4-10.4c4.6-4.5,9-9.3,13.5-14.1c-6.4-0.9-12.8-2.1-19.4-2.8c-4-0.5-6.6-2.4-8.3-6c-2.8-6-5.8-11.9-9-18.3
		c-3.1,6.3-6.2,12.1-9,18.1c-1.7,3.8-4.3,5.8-8.5,6.2C523.9,429.6,517.5,430.8,511,431.8z"/>
	<path d="M488.4,304.1c-2.7,4.7-5.1,9.1-7.7,13.3c-2.2,3.5-5.4,4.3-8.2,2.5c-2.9-1.9-3.2-5.2-1-8.9c2.1-3.5,4.1-7.1,6.4-11.2
		c-6.1-2.6-11.7-5.1-17.5-7.5c-7.2,18.2-20.2,28.6-39.7,28.3c-18.6-0.3-30.9-10.5-37.9-28c-5.6,2.4-11.2,4.8-17.7,7.6
		c3.4,5.3,6.1,10.6,9.8,15.2c18.7,23.1,52,28.9,77.5,13.7c5.3-3.2,8.4-3.1,10.4,0.4c2,3.4,0.6,6.2-4.7,9.3
		c-35.9,21.4-83.1,7.2-101.1-30.5c-0.5-1.1-1.1-2.2-1.8-3.5c-1.2,0.4-2.2,0.8-3.2,1.2c-8.8,3.8-17.7,7.6-26.4,11.5
		c-16,7.3-24.2,19.9-24.6,37.4c-0.2,5.9,0,11.7-0.1,17.6c-0.1,3.4-2.2,5.6-5.3,5.7c-2.9,0.2-5.9-2-5.8-5.1
		c0.3-10.6-0.3-21.4,1.8-31.7c3.2-15.5,13.1-26.8,27.6-33.4c19.3-8.7,38.8-17.1,58.3-25.4c2.8-1.2,3.7-2.6,3.6-5.5
		c-0.2-6.1,0-12.2-0.2-18.4c-0.1-1.5-0.8-3.4-1.9-4.5c-12.2-12.3-18.5-27-18.5-44.4c0-16.6-0.1-33.2,0-49.9
		c0.1-20,13.8-33.5,33.8-33.5c4.7,0,9.5,0,14.2,0c8.5-0.1,15.5-3.2,21.1-9.6c2.3-2.6,4.7-5.2,6.9-7.9c2.2-2.6,4.8-3.3,8-1.9
		c23.1,10.6,36.2,28.4,37.4,53.8c0.8,16.8,0.3,33.7,0.2,50.6c-0.2,16.5-6.5,30.5-18,42.4c-1.3,1.3-2.2,3.6-2.3,5.4
		c-0.3,6.1,0,12.2-0.2,18.4c-0.1,2.4,0.7,3.4,2.9,4.4c18.5,7.8,36.9,15.8,55.4,23.7c22.1,9.5,33.1,26.4,33.2,50.4
		c0,5.1,0.1,10.2,0,15.4c0,4.1-2.2,6.6-5.5,6.7c-3.5,0.1-5.6-2.5-5.7-6.8c-0.2-7.9,0.2-15.8-0.7-23.6c-1.5-12.6-8-22.5-19.2-28.4
		C511.3,313.6,499.7,309.2,488.4,304.1z M471.8,186.8c-2.6,0.6-3.8,0.9-5,1.2c-22.9,5.2-43.8,0.9-62.8-12.9
		c-2.2-1.6-4.3-3.4-6.3-5.3c-3-2.8-3.3-6-0.9-8.5c2.3-2.4,5.4-2.3,8.3,0.2c1.1,1,2.2,2,3.4,2.9c17.7,14,37.5,17.9,59.2,11.8
		c2.6-0.7,3.6-1.9,3.4-4.6c-0.3-3.2,0-6.5-0.1-9.7c-0.8-17.8-9-31.3-23.9-40.9c-2.9-1.9-4.8-1.8-7,1.1
		c-8.7,11.3-20.4,16.3-34.7,15.8c-4.2-0.2-8.5-0.1-12.7,0c-11.7,0.2-20.6,8.9-20.9,20.6c-0.2,7.2-0.1,14.5,0,21.7
		c0,0.7,0.2,1.3,0.5,2.9c2.5-1.9,4.5-3.3,6.2-5c3.2-3,6.3-3.5,8.8-1.1c2.5,2.5,2.6,6-0.8,8.8c-4.3,3.6-9.2,6.5-14.8,10.2
		c0,4.2-0.1,9.8,0,15.4c0.5,25,19,45.5,43.9,48.6c24.5,3,48.3-13,53.6-37.4C471.8,211.2,471.1,199.2,471.8,186.8z M450.2,264.3
		c-19,9.6-38.4,9.4-57.8-0.1c0,6.5-0.3,12.4,0.1,18.3c0.9,14.5,12.9,26.2,27.4,27c14.7,0.8,28.1-9.3,30.2-24
		C451,278.6,450.2,271.6,450.2,264.3z"/>
</g>
</svg>
