<?xml version="1.0" encoding="UTF-8"?>
<svg width="100%" height="100%" viewBox="0 0 24 24" version="1.1" xmlns="http://www.w3.org/2000/svg" xmlns:xlink="http://www.w3.org/1999/xlink">
    <!-- Generator: Sketch 52.2 (67145) - http://www.bohemiancoding.com/sketch -->
    <title>24px / home</title>
    <desc>Created with Sketch.</desc>
    <g id="24px-/-home" stroke="none" stroke-width="1" fill="none" fill-rule="evenodd">
        <path d="M12.4749435,5.50549831 L17.5049803,10.0635177 L17.5049803,11.8968544 L17.5049803,17.9742136 L15.4929656,17.9742136 L15.4929656,13.9226408 L15.4929656,11.8968544 L13.4809509,11.8968544 L11.4689361,11.8968544 L9.45692142,11.8968544 L9.45692142,13.9226408 L9.45692142,17.9742136 L7.4449067,17.9742136 L7.4449067,11.8968544 L7.4449067,10.0635177 L12.4749435,5.50549831 Z M3.35003395,11.8968544 L5.43289198,11.8968544 L5.43289198,19 C5.43289198,19.5522847 5.88060723,20 6.43289198,20 L10.4689361,20 C11.0212209,20 11.4689361,19.5522847 11.4689361,19 L11.4689361,13.9226408 L13.4809509,13.9226408 L13.4809509,19 C13.4809509,19.5522847 13.9286661,20 14.4809509,20 L18.5266978,20 L18.5266978,20 C19.0736238,20 19.516995,19.5566288 19.516995,19.0097028 L19.516995,18.9840621 L19.516995,11.8968544 L21.5862981,11.8968544 C22.0418919,11.8968544 22.135605,11.5 21.7953294,11.1962363 L12.9317911,3.15753835 C12.680003,2.94748722 12.3119845,2.94748722 12.0592083,3.15753835 L3.18804237,11.1962363 C2.87522762,11.5 2.96867163,11.8968544 3.35003395,11.8968544 Z" id="XMLID_1_" fill="#3D3D3D" fill-rule="nonzero"></path>
    </g>
</svg>