<?xml version="1.0" encoding="UTF-8"?>
<svg viewBox="0 0 60 60" version="1.1" xmlns="http://www.w3.org/2000/svg" xmlns:xlink="http://www.w3.org/1999/xlink">
    <!-- Generator: Sketch 64 (93537) - https://sketch.com -->
    <title>60 px / interview</title>
    <desc>Created with Sketch.</desc>
    <g id="60-px-/-interview" stroke="none" stroke-width="1" fill="none" fill-rule="evenodd">
        <rect id="Rectangle" x="0" y="0" width="60" height="60"></rect>
        <g id="interview" transform="translate(0.000000, 1.000000)">
            <circle id="Oval-3" fill="#D4EDEB" cx="9.25925926" cy="35.9259259" r="9.25925926"></circle>
            <path d="M13.7037037,25.1851852 C17.1761111,25.1851852 20,22.3612963 20,18.8888889 C20,15.4164815 17.1761111,12.5925926 13.7037037,12.5925926 C10.2312963,12.5925926 7.40740741,15.4164815 7.40740741,18.8888889 C7.40740741,22.3612963 10.2312963,25.1851852 13.7037037,25.1851852 Z M13.7037037,14.691358 C16.018642,14.691358 17.9012346,16.5739506 17.9012346,18.8888889 C17.9012346,21.2038272 16.018642,23.0864198 13.7037037,23.0864198 C11.3887654,23.0864198 9.50617284,21.2038272 9.50617284,18.8888889 C9.50617284,16.5739506 11.3887654,14.691358 13.7037037,14.691358 Z" id="Shape" fill="#333333" fill-rule="nonzero"></path>
            <path d="M47.7777778,25.1851852 C51.2501852,25.1851852 54.0740741,22.3612963 54.0740741,18.8888889 C54.0740741,15.4164815 51.2501852,12.5925926 47.7777778,12.5925926 C44.3053704,12.5925926 41.4814815,15.4164815 41.4814815,18.8888889 C41.4814815,22.3612963 44.3053704,25.1851852 47.7777778,25.1851852 Z M47.7777778,14.691358 C50.092716,14.691358 51.9753086,16.5739506 51.9753086,18.8888889 C51.9753086,21.2038272 50.092716,23.0864198 47.7777778,23.0864198 C45.4628395,23.0864198 43.5802469,21.2038272 43.5802469,18.8888889 C43.5802469,16.5739506 45.4628395,14.691358 47.7777778,14.691358 Z" id="Shape" fill="#333333" fill-rule="nonzero"></path>
            <path d="M57.9100529,27.4074074 L57.9100529,40.8888889 C57.9100529,42.6041481 56.5035185,44 54.7751323,44 L54.7751323,32.5925926 C54.7751323,29.7334815 52.4312566,27.4074074 49.5502646,27.4074074 L44.3253968,27.4074074 C43.7485714,27.4074074 43.2804233,27.872 43.2804233,28.4444444 L43.2804233,32.5925926 L43.2804233,33.6296296 L43.2804233,34.6666667 L34.9206349,34.6666667 C34.3438095,34.6666667 33.8756614,35.1312593 33.8756614,35.7037037 L33.8756614,38.8148148 L27.6058201,38.8148148 L27.6058201,35.7037037 C27.6058201,35.1312593 27.137672,34.6666667 26.5608466,34.6666667 L18.2010582,34.6666667 L18.2010582,33.6296296 L18.2010582,32.5925926 L18.2010582,28.4444444 C18.2010582,27.872 17.7329101,27.4074074 17.1560847,27.4074074 L11.9312169,27.4074074 C9.05022487,27.4074074 6.70634921,29.7334815 6.70634921,32.5925926 L6.70634921,44 C4.97796296,44 3.57142857,42.6041481 3.57142857,40.8888889 L3.57142857,27.4074074 L1.48148148,27.4074074 L1.48148148,40.8888889 C1.48148148,43.0096296 2.77411376,44.8317037 4.61640212,45.6343704 L4.61640212,58.5185185 L6.70634921,58.5185185 L6.70634921,46.0740741 L7.75132275,46.0740741 L8.7962963,46.0740741 L17.1560847,46.0740741 L17.1560847,57.4814815 C17.1560847,58.0539259 17.6242328,58.5185185 18.2010582,58.5185185 L21.3359788,58.5185185 L22.3809524,58.5185185 L23.4259259,58.5185185 L23.4259259,57.4814815 L23.4259259,41.9259259 L23.4259259,40.8888889 L26.5608466,40.8888889 L34.9206349,40.8888889 L38.0555556,40.8888889 L38.0555556,41.9259259 L38.0555556,57.4814815 L38.0555556,58.5185185 L39.1005291,58.5185185 L40.1455026,58.5185185 L43.2804233,58.5185185 C43.8572487,58.5185185 44.3253968,58.0539259 44.3253968,57.4814815 L44.3253968,46.0740741 L52.6851852,46.0740741 L53.7301587,46.0740741 L54.7751323,46.0740741 L54.7751323,58.5185185 L56.8650794,58.5185185 L56.8650794,45.6343704 C58.7073677,44.8317037 60,43.0096296 60,40.8888889 L60,27.4074074 L57.9100529,27.4074074 Z M22.3809524,38.8148148 L20.2910053,38.8148148 L14.021164,38.8148148 L14.021164,32.5925926 L11.9312169,32.5925926 L11.9312169,39.8518519 C11.9312169,40.4242963 12.3993651,40.8888889 12.9761905,40.8888889 L20.2910053,40.8888889 C20.8667857,40.8888889 21.3359788,41.3545185 21.3359788,41.9259259 L21.3359788,56.4444444 L19.2460317,56.4444444 L19.2460317,45.037037 C19.2460317,44.4645926 18.7778836,44 18.2010582,44 L8.7962963,44 L8.7962963,32.5925926 C8.7962963,30.8773333 10.2028307,29.4814815 11.9312169,29.4814815 L16.1111111,29.4814815 L16.1111111,32.5925926 L16.1111111,33.6296296 L16.1111111,35.7037037 C16.1111111,36.2761481 16.5792593,36.7407407 17.1560847,36.7407407 L25.515873,36.7407407 L25.515873,38.8148148 L22.3809524,38.8148148 Z" id="Shape" fill="#333333" fill-rule="nonzero"></path>
            <path d="M43.2804233,44 C42.7035979,44 42.2354497,44.4645926 42.2354497,45.037037 L42.2354497,56.4444444 L40.1455026,56.4444444 L40.1455026,41.9259259 C40.1455026,41.3545185 40.6146958,40.8888889 41.1904762,40.8888889 L48.505291,40.8888889 C49.0821164,40.8888889 49.5502646,40.4242963 49.5502646,39.8518519 L49.5502646,32.5925926 L47.4603175,32.5925926 L47.4603175,38.8148148 L41.1904762,38.8148148 L39.1005291,38.8148148 L35.9656085,38.8148148 L35.9656085,36.7407407 L44.3253968,36.7407407 C44.9022222,36.7407407 45.3703704,36.2761481 45.3703704,35.7037037 L45.3703704,33.6296296 L45.3703704,32.5925926 L45.3703704,29.4814815 L49.5502646,29.4814815 C51.2786508,29.4814815 52.6851852,30.8773333 52.6851852,32.5925926 L52.6851852,44 L43.2804233,44 Z" id="Path" fill="#D4EDEB"></path>
            <path d="M23.0864198,10.5820106 L23.0864198,13.7566138 C23.0864198,14.2126984 23.3693416,14.615873 23.7901235,14.7608466 C23.8971193,14.7968254 24.0072016,14.8148148 24.1152263,14.8148148 C24.4331276,14.8148148 24.7397119,14.6624339 24.9382716,14.3915344 L27.7160494,10.5820106 L35.4320988,10.5820106 C37.1337449,10.5820106 38.5185185,9.15767196 38.5185185,7.40740741 L38.5185185,3.17460317 C38.5185185,1.42433862 37.1337449,0 35.4320988,0 L23.0864198,0 C21.3847737,0 20,1.42433862 20,3.17460317 L20,7.40740741 C20,9.15767196 21.3847737,10.5820106 23.0864198,10.5820106 Z M22.0576132,3.17460317 C22.0576132,2.59153439 22.5195473,2.11640212 23.0864198,2.11640212 L35.4320988,2.11640212 C35.9989712,2.11640212 36.4609053,2.59153439 36.4609053,3.17460317 L36.4609053,7.40740741 C36.4609053,7.99047619 35.9989712,8.46560847 35.4320988,8.46560847 L27.2016461,8.46560847 C26.877572,8.46560847 26.5730453,8.62222222 26.3786008,8.88888889 L25.1440329,10.5820106 L25.1440329,9.52380952 C25.1440329,8.93968254 24.6831276,8.46560847 24.1152263,8.46560847 L23.0864198,8.46560847 C22.5195473,8.46560847 22.0576132,7.99047619 22.0576132,7.40740741 L22.0576132,3.17460317 Z" id="Shape" fill="#26A59A" fill-rule="nonzero"></path>
            <polygon id="Rectangle-path" fill="#D4EDEB" fill-rule="nonzero" points="23.7037037 4.44444444 34.0740741 4.44444444 34.0740741 6.66666667 23.7037037 6.66666667"></polygon>
            <rect id="Rectangle-path" fill="#26A59A" fill-rule="nonzero" x="29.6296296" y="25.9259259" width="5.92592593" height="2.22222222"></rect>
            <path d="M28.3795693,22.2222222 C26.6183989,22.2222222 25.1851852,23.6180741 25.1851852,25.3333333 L25.1851852,29.4814815 C25.1851852,31.1967407 26.6183989,32.5925926 28.3795693,32.5925926 L36.897927,32.5925926 C38.6590975,32.5925926 40.0923112,31.1967407 40.0923112,29.4814815 L40.0923112,28.7586667 L42.0430151,25.9088889 C42.261298,25.5905185 42.2815291,25.1819259 42.0962548,24.8448889 C41.9109806,24.5068148 41.5500152,24.2962963 41.1571059,24.2962963 L39.9102313,24.2962963 C39.4704711,23.0891852 38.2864194,22.2222222 36.897927,22.2222222 L28.3795693,22.2222222 Z M37.9627218,25.3333333 C37.9627218,25.9057778 38.4397498,26.3703704 39.0275165,26.3703704 L39.1670046,26.3703704 L38.1416073,27.8688889 C38.0255447,28.038963 37.9627218,28.2401481 37.9627218,28.4444444 L37.9627218,29.4814815 C37.9627218,30.0528889 37.4846289,30.5185185 36.897927,30.5185185 L28.3795693,30.5185185 C27.7928674,30.5185185 27.3147746,30.0528889 27.3147746,29.4814815 L27.3147746,25.3333333 C27.3147746,24.7619259 27.7928674,24.2962963 28.3795693,24.2962963 L36.897927,24.2962963 C37.4846289,24.2962963 37.9627218,24.7619259 37.9627218,25.3333333 Z" id="Shape" fill="#F95632" fill-rule="nonzero"></path>
            <rect id="Rectangle-path" fill="#F95632" fill-rule="nonzero" x="25.1851852" y="17.037037" width="2.22222222" height="2.22222222"></rect>
            <rect id="Rectangle-path" fill="#26A59A" fill-rule="nonzero" x="29.6296296" y="17.037037" width="2.22222222" height="2.22222222"></rect>
            <rect id="Rectangle-path" fill="#D4EDEB" fill-rule="nonzero" x="34.0740741" y="17.037037" width="2.22222222" height="2.22222222"></rect>
        </g>
    </g>
</svg>