<?xml version="1.0" encoding="utf-8"?>
<!-- Generator: Adobe Illustrator 21.1.0, SVG Export Plug-In . SVG Version: 6.00 Build 0)  -->
<svg version="1.1" id="Layer_1" xmlns="http://www.w3.org/2000/svg" xmlns:xlink="http://www.w3.org/1999/xlink" x="0px" y="0px"
	 viewBox="0 0 841.9 595.3" style="enable-background:new 0 0 841.9 595.3;" xml:space="preserve">
<g>
	<path d="M485.2,490.3c-2.5-1.8-4.6-4-3.4-7.5c1.3-3.4,4.1-3.9,7.4-3.8c5.7,0.1,11.4,0,17.6,0c0-5.4,0-10.5,0-15.6
		c0-4.7,1.8-6.9,5.4-7c3.7-0.1,5.8,2.4,5.8,7.1c0,5,0,10,0,15.2c12.4,0,24.5,0,37.1,0c-0.3-9.3,1.1-18.5-2.3-27.4
		c-4.3-11.5-12.1-19.7-23.6-24.1c-26.8-10.2-53.6-20.4-80.5-30.5c-5-1.9-5.6-2.8-5.7-8.3c0-5.2,0-10.5,0-15.6
		c-7.4,0.8-14.5,2-21.7,2.1c-7,0-14.1-1.3-21.7-2.1c0,4.7,0,9.8,0,14.8c0,6.5-0.5,7.2-6.3,9.4c-25.9,9.8-51.8,19.6-77.7,29.4
		c-18.3,6.9-27.9,20.5-28,40c0,4.1,0,8.2,0,12.5c1.3,0.1,2.1,0.2,3,0.2c11.2,0,22.4,0,34.2,0c0-5.6,0-10.9,0-16.3
		c0-3,1.2-5.4,4.3-6.2c3.7-0.9,6.8,1.6,6.9,5.8c0.1,5.4,0,10.7,0,16.7c1.7,0,3.1,0,4.5,0c38.5,0,77,0,115.5,0c0.9,0,1.8,0,2.6,0
		c3.2-0.2,6.1,0.3,7.4,3.8c1.3,3.5-0.8,5.6-3.4,7.5c-60.8,0-121.5,0-182.2,0c-3-1.5-4.2-4-4-7.4c0.5-10-0.4-20.2,1.6-29.8
		c3.6-17.7,14.9-29.9,31.9-36.4c24.8-9.5,49.7-18.9,74.6-28.2c3-1.1,4.4-2.4,4.1-5.8c-0.3-4.6,1.3-10-0.5-13.7
		c-1.8-3.5-7-5.3-10.7-7.9c-15-10.7-25.1-24.9-30-42.6c-0.7-2.7-1.9-3.3-4.4-3.2c-8.3,0.5-15.8-1.4-20.8-8.6
		c-1.6-2.3-3.2-5.1-3.4-7.7c-0.5-6.4-0.3-12.9-0.1-19.4c0-1.7,0.6-3.8,1.7-4.9c5.8-5.7,4.4-12.8,4.5-19.6c0-3.5-0.1-7,0-10.5
		c0.1-4.4,2.1-6.4,6.5-6.4c10.4,0,20.7,0,31.1,0c4,0,6.3,2,6.5,5.2c0.2,3.4-2.2,5.8-6.3,6c-2.1,0.1-4.2,0-6.5,0
		c-0.1,1.4-0.3,2.5-0.3,3.6c0,15-0.1,30,0,45c0.4,31.8,21.1,57.5,51.8,64.5c38.5,8.7,77.1-20.4,78.9-59.7
		c0.8-17.1,0.2-34.2,0.3-51.4c0-0.5-0.1-1-0.3-1.9c-1.5,0-2.9,0-4.4,0c-29.9,0-59.7,0-89.6,0c-1.7,0-3.9,0.2-5.1-0.7
		c-1.6-1.3-3.2-3.6-3.4-5.5c-0.2-2.6,1.8-4.5,4.7-4.9c1-0.1,2-0.1,3-0.1c39.4,0,78.7,0,118.1,0c6.4,0,8,1.6,8,7.9
		c0,6.5-0.1,13,0.1,19.5c0,1.6,0.9,3.2,1.6,4.7c1.6,3.6,4.1,7.1,4.7,10.8c0.8,5.2,0.8,10.8,0.1,16c-1.3,10.8-9.7,17.8-20.9,18.2
		c-7.1,0.3-7,0.3-9.2,6.7c-6.5,19.5-18.9,34.1-36.9,43.9c-2.5,1.3-3.4,2.7-3.2,5.5c0.2,3.9,0.3,7.8,0,11.6c-0.2,2.8,0.7,4.1,3.4,5.1
		c24.5,9.2,49,18.5,73.5,27.7c22.6,8.5,35,26.4,35.1,50.5c0,5.5-0.1,11,0.1,16.5c0.1,3.4-1,5.8-4,7.4
		C536.8,490.3,511,490.3,485.2,490.3z M344.5,274.5c-1.3-0.1-2.3-0.2-3.2-0.2c-8.3-0.1-11.9,3.5-11.9,11.7c0,1.9,0,3.7,0,5.6
		c0,9.8,5.4,14.1,15.2,12C344.5,293.9,344.5,284.3,344.5,274.5z M498.4,303.6c10.1,1.9,15.2-2.2,15.2-12.1c0-1.5,0-3,0-4.5
		c0-10.2-4.7-14-15.2-12.3C498.4,284.4,498.4,294,498.4,303.6z M344.5,249.7c-2.9,0-5.5,0-8.1,0c0,4.6,0,8.9,0,13.2
		c2.8,0,5.4,0,8.1,0C344.5,258.4,344.5,254.2,344.5,249.7z M498.6,263c2.9,0,5.4,0,8,0c0-4.5,0-8.9,0-13.4c-2.8,0-5.3,0-8,0
		C498.6,254,498.6,258.4,498.6,263z"/>
	<path d="M421.5,119.1c16.8-17.3,37.9-14.8,50.3-5.7c12.6,9.2,21,28.2,10.4,48.8c0.8,0.7,1.6,1.4,2.4,2.1
		c9.1,7.7,10.4,21.3,2.2,30.1c-8.2,8.9-17,17.3-25.6,25.8c-2.7,2.7-5.8,2.5-8.6-0.2c-4.4-4.4-8.8-8.8-13.4-13.5
		c-4.5,4.6-8.7,8.9-12.9,13.1c-3.4,3.4-6.2,3.4-9.7,0c-6.3-6.2-12.6-12.5-18.8-18.8c-3-3-3.2-6.1-0.8-8.6c2.5-2.6,5.7-2.4,8.8,0.8
		c5.1,5.1,10.2,10.3,15.2,15.3c3.3-3.4,6.4-6.6,9.7-10c-5.3-4.8-9.3-10.9-8.7-19.2c0.4-4.9,2.2-9.2,5.5-12.8
		c7.5-8.3,18.1-9,28.7-2.5c4.7-1.6,8.8-2.8,12.8-4.4c1.2-0.5,2.4-1.6,3.2-2.8c6.5-10.7,4.1-24.8-5.6-32.9c-9.9-8.3-24.3-8.2-34,0.5
		c-2.3,2.1-4.4,4.4-6.7,6.6c-3,2.8-5.9,2.8-8.9,0c-2.1-2-4-4.1-6.1-6.1c-10.3-9.6-25.9-9.4-35.9,0.4c-9.8,9.5-10.4,25.2-1.2,35.6
		c3.6,4.1,7.7,7.8,11.6,11.8c3.1,3.1,3.5,6.4,1.1,8.9c-2.5,2.6-5.9,2.2-9.1-1c-3.6-3.6-7.3-7.2-10.8-10.9
		c-14.1-14.9-13.9-37.8,0.4-52.1c14.3-14.3,37-14.6,52-0.5C419.7,117.4,420.5,118.2,421.5,119.1z M457.1,208.2
		c7.1-7,14.3-13.9,21.2-21.1c3.7-3.9,3.4-9.9-0.3-13.5c-3.6-3.6-9.2-3.9-13.3-0.6c-7.6,6-7.6,6-15.4,0c-4.1-3.2-9.7-2.9-13.3,0.7
		c-3.6,3.6-4,9.5-0.4,13.2C442.6,194.1,449.9,201.1,457.1,208.2z"/>
	<path d="M387.5,432c2.4,0,4.8,0.2,7.1,0c8.6-0.8,16.6,0.6,23.9,5.5c1.9,1.3,3.9,1.4,5.9,0c7.1-4.8,15-6.1,23.5-5.6
		c8.5,0.5,17,0.1,25.5,0.1c3.2,0,5.7,1.1,6.5,4.4c0.9,3.8-1.8,6.8-6.3,6.8c-9.7,0.1-19.5,0.2-29.2,0c-4.4-0.1-8.4,0.7-12.1,2.9
		c-2.2,1.3-4.6,2.8-7,3.4c-2.3,0.6-5.6,1.1-7.3,0c-8.8-5.5-18.1-7-28.2-6.3c-6.6,0.5-13.2,0.1-19.9,0.1c-4.5,0-6.9-2-6.8-5.6
		c0-3.6,2.4-5.5,7-5.6C375.8,432,381.6,432,387.5,432z"/>
</g>
</svg>
