<?xml version="1.0" encoding="utf-8"?>
<!-- Generator: Adobe Illustrator 21.1.0, SVG Export Plug-In . SVG Version: 6.00 Build 0)  -->
<svg version="1.1" id="Layer_1" xmlns="http://www.w3.org/2000/svg" xmlns:xlink="http://www.w3.org/1999/xlink" x="0px" y="0px"
	 viewBox="0 0 841.9 595.3" style="enable-background:new 0 0 841.9 595.3;" xml:space="preserve">
<g>
	<path d="M372.8,490.3c-5.2-2.2-8.3-6.4-10.7-11.3c-4.2-8.5-8.9-16.7-13.2-25.2c-1.4-2.8-3-3.4-5.9-2.4c-10,3.2-20,6.1-30,9.3
		c-5.9,1.9-11.2,1.3-15.4-3.4c-4.3-4.7-4.3-10-1.9-15.7c9.7-23.3,19.3-46.6,29.1-69.8c1.3-3.1,0.8-5-1.9-6.5c-2.3-1.3-4.6-2.6-7-3.4
		c-13.6-4.4-21.4-14.3-21.9-28.5c-0.2-7.4-3.1-13-9-17.6c-10.2-8-13.9-20.8-9.5-33c2.6-7.2,2.1-13.7-1.9-20.3
		c-6.7-11.2-5.3-24.5,3.4-34.4c4.8-5.4,6.7-11.3,5.4-18.6c-2.3-13.4,3.6-25.3,15.7-31.6c6.5-3.4,10.2-8.3,11.7-15.5
		c2.9-13.7,12.9-22.5,26.8-23.9c6.4-0.6,11.3-3.5,14.9-8.9c8.7-13,19.7-17.3,34.9-13.6c6.3,1.5,11.8,0.4,17-3.3
		c12.2-8.7,24.6-8.7,36.8,0c5.3,3.8,11,4.9,17.4,3.2c14.5-3.7,26,0.8,34.3,13.3c3.7,5.6,8.8,8.6,15.5,9.2
		c13.2,1.2,23.6,10.3,26.3,23.4c1.5,7.4,5.4,12.5,12.1,16c11.8,6.1,17.7,18.5,15.3,31.8c-1.2,6.8,0.5,12.5,5,17.7
		c9.4,10.9,10.7,23.6,3.4,36c-3.5,5.9-4,11.8-1.7,18.3c4.8,13.3,1.3,25.8-9.7,34.5c-5.4,4.3-8.1,9.5-8.4,16.4
		c-0.7,15.4-7.9,24.6-22.7,29.4c-1.1,0.3-2.1,0.7-3.1,1.2c-6.3,3.1-6.7,4.2-4.1,10.5c9.5,22.8,18.9,45.6,28.3,68.5
		c3.6,8.8-0.7,17.5-9.5,19.1c-2.6,0.4-5.5-0.1-8.1-0.8c-10.1-2.9-20.1-6-30.1-9.2c-2.9-1-4.5-0.4-5.9,2.4c-4.3,8.5-9,16.7-13.2,25.2
		c-2.5,5-5.5,9.1-10.7,11.3c-2.2,0-4.5,0-6.8,0c-5.7-2.3-8.6-6.9-10.9-12.4c-9.5-23.6-19.4-47-29.1-70.5c-0.5-1.2-1.1-2.3-2.1-4.2
		c-1,2.1-1.6,3.3-2.1,4.5c-9.7,23.4-19.5,46.7-29,70.2c-2.3,5.6-5.2,10.1-10.9,12.5C377.2,490.3,375,490.3,372.8,490.3z
		 M361.9,381.6c7.4-0.4,15.7,2.7,22.4,9.7c7.3,7.6,14.5,8.9,24,4.5c8.5-4,17.1-4.1,25.7-0.2c10.4,4.7,17,3.4,25-4.7
		c6.5-6.6,14.4-9.7,23.7-9.1c10.9,0.7,17-3,21.3-13.1c3.6-8.4,9.7-14.2,18.3-17.1c11.6-3.9,15.1-8.3,15.8-20.7
		c0.5-9.4,4.5-17,11.8-22.8c8-6.4,10-13.5,6.6-23.2c-3.2-9-2.5-17.6,2.2-26c5.6-9.8,4.9-16.4-2.3-24.9c-6.1-7.3-8.6-15.6-6.9-25.1
		c1.7-9.9-1.6-16.8-10.7-21.7c-8.8-4.7-14.2-11.9-16.2-21.7c-1.9-9.4-7.9-14.7-17.5-15.8c-9.7-1.1-17.4-5.7-22.9-13.9
		c-5.8-8.8-12.5-11.5-22.8-8.8c-9.5,2.5-18,0.7-25.9-4.9c-8.4-6-15.8-6-24.1-0.1c-8,5.7-16.7,7.5-26.3,4.9
		c-9.9-2.6-16.9,0.1-22.5,8.8c-5.5,8.4-13.2,13-23.2,14.1c-9.2,1-15.4,6.4-17.2,15.6c-2,10-7.4,17.2-16.4,22
		c-8.8,4.7-12.2,11.6-10.5,21.4c1.7,9.9-1,18.5-7.5,26c-6.3,7.2-7.2,14.9-2.3,23.1c5.4,9,6.1,18.2,2.5,28
		c-3.1,8.4-0.9,16.2,6.2,21.7c8.3,6.4,12.4,14.7,12.6,25.1c0.2,9.6,4.8,15.5,14.1,18.4c9.7,3,16.4,9.1,20.2,18.5
		C343,378.7,349.8,382.7,361.9,381.6z M332.8,381.4c-0.4,0.8-0.7,1.3-0.8,1.7c-8.7,21-17.4,41.9-26,62.9c-0.4,1.1-0.1,2.5-0.1,3.8
		c1.3,0,2.7,0.3,3.8,0c10.2-3,20.3-6.2,30.4-9.2c8.6-2.6,14.2-0.3,18.4,7.5c4.9,9.2,9.8,18.5,14.8,27.7c0.7,1.2,1.9,2.1,2.9,3.1
		c1-1.2,2.3-2.1,2.9-3.5c5.1-12.1,10.1-24.2,15.1-36.3c4.1-10,8.3-20,12.7-30.6c-13.4,2.9-23.6-1.6-32.3-11.1
		c-3.2-3.5-7.9-5.1-12.7-4.6C350.2,394.3,340.7,390.7,332.8,381.4z M436.7,408.8c0.1,0.6,0,1,0.1,1.3c9.1,22.1,18.3,44.2,27.5,66.3
		c0.4,1,1.6,2.3,2.4,2.4c0.9,0,2.1-1.2,2.6-2.2c5.1-9.3,10-18.7,15-28.1c4.5-8.4,9.8-10.7,18.8-7.9c9.8,3,19.5,6,29.3,8.9
		c1.5,0.4,3.2,0.1,4.9,0.1c-0.2-1.5-0.1-3.2-0.7-4.6c-7.8-18.9-15.6-37.8-23.5-56.7c-0.9-2.2-1.9-4.5-2.8-6.8
		c-11.4,10.5-14.3,11.5-29.4,11.4c-4.9-0.1-9.6,1.4-12.9,5C459.6,407.4,449.4,411.3,436.7,408.8z"/>
	<path d="M340,323.9c0.3-2.7,0.2-5.5,0.8-8.1c2.8-12.6,10.5-21,22.8-25c3.8-1.2,7.7-2.1,11.5-3.4c7.5-2.6,15-5.5,23.3-8.5
		c0-1.7,0.2-4.6-0.1-7.4c-0.1-1.1-0.9-2.3-1.7-3c-6.4-5.7-10.4-12.7-12.4-20.9c-0.3-1.2-1.1-2.5-2.1-3.1c-3.6-2.3-5.3-5.6-5.3-9.7
		c-0.1-10.7-0.3-21.5,0.1-32.2c0.5-16,12.3-27.2,28.3-27.4c10.6-0.1,21.2-0.1,31.9,0c7.8,0,12.6,3.5,15.4,10.8
		c0.4,1.1,1.6,2.2,2.6,2.6c7.4,2.8,11.1,7.7,11.2,15.5c0.1,10,0,20,0,30c0,4.6-1.6,8.2-5.7,10.7c-0.9,0.5-1.6,1.8-1.8,2.9
		c-1.9,8.3-6,15.2-12.4,21c-1,0.9-1.6,2.4-1.8,3.8c-0.3,2.5-0.1,5-0.1,7.3c0.4,0.4,0.6,0.6,0.8,0.6c12.9,1.4,24.3,7.8,36.4,11.7
		c12.9,4.1,19.7,14.4,20.9,28c0.1,1.3,0.2,2.7,0.3,5c1.4-1.7,2.2-2.7,3-3.8c10.8-14.5,17.5-30.7,19.9-48.7c0.1-0.9,0.3-1.7,0.5-2.6
		c0.7-3.5,3.2-5.4,6.3-5c3.3,0.5,5.2,3.2,4.7,6.9c-2.9,23.3-11.5,44.3-27.1,61.8c-31.1,34.9-70.2,48.3-115.6,37.6
		c-44.3-10.4-72.8-39.1-85.7-82.9c-1.5-5.1-2.2-10.5-3.1-15.8c-0.7-4.3,1.1-7.1,4.6-7.6c3.4-0.5,5.9,1.6,6.5,6.1
		c2,14.9,6.7,28.9,14.6,41.7c2.4,3.9,5.1,7.6,7.7,11.4C339.4,324.1,339.7,324,340,323.9z M445.3,360.7c16.9-4.1,31.6-11.4,44.4-22.4
		c0.9-0.8,1.6-2.2,1.7-3.4c0.2-4.7,0.2-9.5,0-14.2c-0.5-8.2-4.6-14.3-12-17.6c-4.7-2.1-9.9-3.3-14.8-4.8
		c-4.1,5.4-7.6,10.7-11.8,15.5c-1.9,2.2-4.9,4.2-7.7,4.7c-4.9,0.8-6.6,4.9-9.9,7.4c-0.3,0.2-0.2,1.2-0.1,1.7
		C438.5,338.5,441.9,349.4,445.3,360.7z M397.7,360.7c3.4-11.2,6.7-21.9,9.8-32.7c0.3-0.9,0-2.4-0.6-2.9c-3.1-2.7-5.4-6.4-10.3-6.7
		c-2.1-0.1-4.3-2.3-6-3.9c-1.9-1.8-3.1-4.2-4.7-6.3c-2.6-3.3-4.7-8.3-8-9.3c-3.4-1-8,1.8-12,3.1c-8.3,2.8-13.8,10-14.2,18.8
		c-0.2,4.6-0.2,9.2,0,13.9c0,1.1,0.5,2.6,1.3,3.2C365.8,349.1,380.6,356.6,397.7,360.7z M387.5,229.9c0.6,2.1,0.6,4.4,1.4,4.6
		c5.5,1.7,5.6,6.3,6.5,10.8c2.5,13.6,16.4,23.2,30,21c12.1-2,20.7-10.5,22.6-22.7c0.5-3.3,0.8-6.8,4.4-8.1c3.2-1.1,3-3,2.2-5.6
		c-2,0-3.9,0-5.7,0c-8.9,0-13.9-4.6-14-13.4c0-3.2-1.7-3.8-4.2-3.8c-6.1,0-12.2,0-18.3,0c-3.1,0-4.3,1.1-4.3,4.4
		c0,7.8-5.1,12.6-13.1,12.7C392.8,230,390.6,229.9,387.5,229.9z M388.4,218.7c2,0,3.7-0.1,5.5,0c2.2,0.2,3-0.6,3.1-2.9
		c0.3-9,4.7-13.6,13.6-14.1c7.4-0.4,14.7-0.3,22.1,0c8,0.4,12.8,5,13.4,12c0.4,5,0.4,5.1,5.5,5c1.1,0,2.1-0.2,3.4-0.3
		c0-5.2,0.1-10,0-14.9c-0.1-2.8-1.8-4.1-4.6-4.4c-5.2-0.6-7.8-3.2-8.5-8.3c-0.4-3-1.8-4.4-4.9-4.4c-11.1,0-22.2-0.1-33.3,0.1
		c-7.5,0.1-14.2,5.7-15.1,13.2C387.8,205.8,388.4,212,388.4,218.7z M434.2,363c-3.1-10.5-6.1-20.3-9-30.2c-0.6-1.9-1.3-2.8-3.6-2.9
		c-2.5,0-3.2,1.1-3.8,3.1c-2.6,8.9-5.4,17.9-8.1,26.8c-0.3,0.9-0.3,1.8-0.6,3.2C417.6,363,425.7,363,434.2,363z M433.2,277.2
		c-8,0-15.6,0-23.9,0c0.4,1.7,0.2,4.4,1.4,5.7c3.3,3.4,7.3,6.2,11.4,9.6C425.5,286.7,434.8,285.8,433.2,277.2z M412.4,299.1
		c-3.3-2.7-6.1-5.1-9-7.4c-0.5-0.4-1.4-0.6-2-0.5c-3.9,0.7-7.7,1.5-12.2,2.4c3.6,4.9,6.9,9.4,10.2,14
		C403.7,304.7,407.7,302.1,412.4,299.1z M453.7,293.9c-11.3-4.1-14.4-3.3-22.2,5.2c4.1,2.7,8.1,5.3,12.3,8.1
		C447.2,302.7,450.4,298.4,453.7,293.9z M411.5,313.1c4.1,7.8,15.6,8,20.2-0.2c-2.8-1.8-5.5-3.7-8.3-5.5c-0.7-0.4-2-0.6-2.6-0.3
		C417.6,309,414.6,311.1,411.5,313.1z"/>
	<path d="M305.8,242.6c2.2-17.2,7.9-33.9,18.2-48.7c26.1-37.6,62.3-55.5,107.9-52.1c53.2,4,96.7,45.4,104.9,98
		c0.2,1.5,0.5,3,0.4,4.5c-0.1,3-1.7,5-4.7,5.3c-3,0.4-5.3-0.9-6-3.8c-0.9-3.5-1.3-7.1-2.1-10.7c-9.8-43.8-45.5-76.2-89.9-81.8
		c-57-7.1-109,32.6-117.4,89.6c-0.7,4.8-2.8,6.9-6.5,6.6C307.5,249.3,305.6,246.9,305.8,242.6z"/>
</g>
</svg>
