<?xml version="1.0" encoding="UTF-8"?>
<svg  viewBox="0 0 18 18" version="1.1" xmlns="http://www.w3.org/2000/svg" xmlns:xlink="http://www.w3.org/1999/xlink">
    <!-- Generator: Sketch 56.2 (81672) - https://sketch.com -->
    <title>18px / leave</title>
    <desc>Created with Sketch.</desc>
    <g id="18px-/-leave" stroke="none" stroke-width="1" fill="none" fill-rule="evenodd">
        <rect id="Rectangle" x="0" y="0" width="18" height="18"></rect>
        <path d="M6.27333333,12.013 L5.33333333,13 L2,9.5 L5.33333333,6 L6.27333333,6.987 L4.55333333,8.8 L11,8.8 L11,10.2 L4.55333333,10.2 L6.27333333,12.013 Z M15.8888889,3 L8.11111111,3 L8.11111111,4.33333333 L15.8888889,4.33333333 L15.8888889,13.6666667 L8.11111111,13.6666667 L8.11111111,15 L15.8888889,15 C16.5,15 17,14.4 17,13.6666667 L17,4.33333333 C17,3.6 16.5,3 15.8888889,3 Z" id="Shape" fill="currentColor" fill-rule="nonzero" transform="translate(9.500000, 9.000000) scale(-1, 1) translate(-9.500000, -9.000000) "></path>
    </g>
</svg>
