<?xml version="1.0" encoding="UTF-8"?>
<svg  viewBox="0 0 24 24" version="1.1" xmlns="http://www.w3.org/2000/svg" xmlns:xlink="http://www.w3.org/1999/xlink">
    <!-- Generator: Sketch 56.3 (81716) - https://sketch.com -->
    <title>icon / 24px / likedin</title>
    <desc>Created with Sketch.</desc>
    <g id="icon-/-24px-/-likedin" stroke="none" stroke-width="1" fill="none" fill-rule="evenodd">
        <rect id="Rectangle" x="0" y="0" width="24" height="24"></rect>
        <path d="M15.5,8 C18.5375661,8 21,10.492609 21,13.5673981 L21,19.6238245 C21,19.8315805 20.8336193,20 20.6283784,20 L17.2094595,20 C17.0042185,20 16.8378378,19.8315805 16.8378378,19.6238245 L16.8378378,13.5673981 C16.8378378,12.8194765 16.2388674,12.2131661 15.5,12.2131661 C14.7611326,12.2131661 14.1621622,12.8194765 14.1621622,13.5673981 L14.1621622,19.6238245 C14.1621622,19.8315805 13.9957815,20 13.7905405,20 L10.3716216,20 C10.1663807,20 10,19.8315805 10,19.6238245 L10,13.5673981 C10,10.492609 12.4624339,8 15.5,8 Z M19.5135135,13.5673981 C19.5135135,11.3236331 17.7166023,9.50470219 15.5,9.50470219 C13.2833977,9.50470219 11.4864865,11.3236331 11.4864865,13.5673981 L11.4864865,18.4952978 L12.6756757,18.4952978 L12.6756757,13.5673981 C12.6756757,11.9884524 13.9401687,10.7084639 15.5,10.7084639 C17.0598313,10.7084639 18.3243243,11.9884524 18.3243243,13.5673981 L18.3243243,18.4952978 L19.5135135,18.4952978 L19.5135135,13.5673981 Z M3,9.37162162 C3,9.16638067 3.1598983,9 3.35714286,9 L6.64285714,9 C6.8401017,9 7,9.16638067 7,9.37162162 L7,19.6283784 C7,19.8336193 6.8401017,20 6.64285714,20 L3.35714286,20 C3.1598983,20 3,19.8336193 3,19.6283784 L3,9.37162162 Z M4.42857143,10.4864865 L4.42857143,18.5135135 L5.57142857,18.5135135 L5.57142857,10.4864865 L4.42857143,10.4864865 Z M5,7 C3.8954305,7 3,6.1045695 3,5 C3,3.8954305 3.8954305,3 5,3 C6.1045695,3 7,3.8954305 7,5 C7,6.1045695 6.1045695,7 5,7 Z M5,5.57142857 C5.31559129,5.57142857 5.57142857,5.31559129 5.57142857,5 C5.57142857,4.68440871 5.31559129,4.42857143 5,4.42857143 C4.68440871,4.42857143 4.42857143,4.68440871 4.42857143,5 C4.42857143,5.31559129 4.68440871,5.57142857 5,5.57142857 Z" id="Combined-Shape" fill="#26A69A" fill-rule="nonzero"></path>
    </g>
</svg>