<?xml version="1.0" encoding="UTF-8"?>
<svg  viewBox="0 0 18 18" version="1.1" xmlns="http://www.w3.org/2000/svg" xmlns:xlink="http://www.w3.org/1999/xlink">
    <!-- Generator: Sketch 56.2 (81672) - https://sketch.com -->
    <title>18px / location</title>
    <desc>Created with Sketch.</desc>
    <g id="18px-/-location" stroke="none" stroke-width="1" fill="none" fill-rule="evenodd">
        <rect id="Rectangle" x="0" y="0" width="18" height="18"></rect>
        <path d="M9.25,2 C6.3475,2 4,4.3475 4,7.25 C4,11.1875 9.25,17 9.25,17 C9.25,17 14.5,11.1875 14.5,7.25 C14.5,4.3475 12.1525,2 9.25,2 Z M5.5,7.25 C5.5,5.18 7.18,3.5 9.25,3.5 C11.32,3.5 13,5.18 13,7.25 C13,9.41 10.84,12.6425 9.25,14.66 C7.69,12.6575 5.5,9.3875 5.5,7.25 Z M9.25,9.125 C10.2855339,9.125 11.125,8.28553391 11.125,7.25 C11.125,6.21446609 10.2855339,5.375 9.25,5.375 C8.21446609,5.375 7.375,6.21446609 7.375,7.25 C7.375,8.28553391 8.21446609,9.125 9.25,9.125 Z" id="Combined-Shape" fill="#F57C00" fill-rule="nonzero"></path>
    </g>
</svg>