<?xml version="1.0" encoding="UTF-8"?>
<svg width="60px" height="60px" viewBox="0 0 60 60" version="1.1" xmlns="http://www.w3.org/2000/svg" xmlns:xlink="http://www.w3.org/1999/xlink">
    <!-- Generator: Sketch 64 (93537) - https://sketch.com -->
    <title>60 px / management</title>
    <desc>Created with Sketch.</desc>
    <g id="60-px-/-management" stroke="none" stroke-width="1" fill="none" fill-rule="evenodd">
        <rect id="Rectangle" x="0" y="0" width="60" height="60"></rect>
        <g id="management" transform="translate(0.000000, 3.000000)">
            <path d="M10.875,54.75 C16.8710795,54.75 21.75,49.8710795 21.75,43.875 C21.75,37.8789205 16.8710795,33 10.875,33 C4.87892045,33 0,37.8789205 0,43.875 C0,49.8710795 4.87892045,54.75 10.875,54.75 Z" id="Shape" fill="#D4EDEB" fill-rule="nonzero"></path>
            <path d="M57.3508065,14.1290323 L57.3508065,0 L46.7540323,0 L46.7540323,14.1290323 L46.4396613,14.1290323 L42.1726935,4.74029032 L36.416879,0.135991935 L35.2424032,7.18108065 L38.3304798,14.1290323 L35.2741935,14.1290323 L35.2741935,19.4274194 L37.0403226,19.4274194 L37.0403226,22.0766129 L9.66532258,22.0766129 C7.23071371,22.0766129 5.25,24.0573266 5.25,26.4919355 L5.25,45.0362903 C5.25,47.4708992 7.23071371,49.4516129 9.66532258,49.4516129 L19.3790323,49.4516129 L19.3790323,52.983871 L15.8467742,52.983871 L15.8467742,54.75 L35.2741935,54.75 L35.2741935,52.983871 L31.7419355,52.983871 L31.7419355,49.4516129 L41.4556452,49.4516129 C43.890254,49.4516129 45.8709677,47.4708992 45.8709677,45.0362903 L45.8709677,40.6209677 L55.5846774,40.6209677 C57.0452661,40.6209677 58.233871,39.4323629 58.233871,37.9717742 L58.233871,19.4274194 L60,19.4274194 L60,14.1290323 L57.3508065,14.1290323 Z M37.7008548,8.36350403 L41.3284839,7.15458871 L44.4995685,14.1290323 L40.2635081,14.1290323 L37.7008548,8.36350403 Z M29.9758065,52.983871 L21.1451613,52.983871 L21.1451613,49.4516129 L29.9758065,49.4516129 L29.9758065,52.983871 Z M41.4556452,47.6854839 L9.66532258,47.6854839 C8.20473387,47.6854839 7.01612903,46.496879 7.01612903,45.0362903 L44.1048387,45.0362903 C44.1048387,46.496879 42.9162339,47.6854839 41.4556452,47.6854839 Z M44.1048387,43.2701613 L7.01612903,43.2701613 L7.01612903,26.4919355 C7.01612903,25.0313468 8.20473387,23.8427419 9.66532258,23.8427419 L37.0403226,23.8427419 L37.0403226,37.9717742 C37.0403226,39.4323629 38.2289274,40.6209677 39.6895161,40.6209677 L44.1048387,40.6209677 L44.1048387,43.2701613 Z" id="Shape" fill="#333333" fill-rule="nonzero"></path>
            <polygon id="Path" fill="#D4EDEB" points="37.6637661 3.39538306 40.4153952 5.59774597 37.1136169 6.69804435"></polygon>
            <polygon id="Path" fill="#26A59A" points="58.233871 17.6612903 37.0403226 17.6612903 37.0403226 15.8951613 58.233871 15.8951613"></polygon>
            <path d="M56.4677419,34.4395161 L54.7016129,34.4395161 L54.7016129,36.2056452 L56.4677419,36.2056452 L56.4677419,37.9717742 C56.4677419,38.4592258 56.072129,38.8548387 55.5846774,38.8548387 L39.6895161,38.8548387 C39.2020645,38.8548387 38.8064516,38.4592258 38.8064516,37.9717742 L38.8064516,36.2056452 L52.9354839,36.2056452 L52.9354839,34.4395161 L38.8064516,34.4395161 L38.8064516,19.4274194 L56.4677419,19.4274194 L56.4677419,34.4395161 Z" id="Path" fill="#D4EDEB"></path>
            <polygon id="Path" fill="#FFFFFF" points="48.5201613 1.76612903 55.5846774 1.76612903 55.5846774 3.53225806 53.8185484 3.53225806 53.8185484 5.2983871 55.5846774 5.2983871 55.5846774 7.06451613 52.0524194 7.06451613 52.0524194 8.83064516 55.5846774 8.83064516 55.5846774 10.5967742 53.8185484 10.5967742 53.8185484 12.3629032 55.5846774 12.3629032 55.5846774 14.1290323 48.5201613 14.1290323"></polygon>
            <path d="M21,19.5 C26.3757955,19.5 30.75,15.1257955 30.75,9.75 C30.75,4.37420455 26.3757955,0 21,0 C15.6242045,0 11.25,4.37420455 11.25,9.75 C11.25,15.1257955 15.6242045,19.5 21,19.5 Z M21,1.77272727 C25.3990227,1.77272727 28.9772727,5.35097727 28.9772727,9.75 C28.9772727,14.1490227 25.3990227,17.7272727 21,17.7272727 C16.6009773,17.7272727 13.0227273,14.1490227 13.0227273,9.75 C13.0227273,5.35097727 16.6009773,1.77272727 21,1.77272727 Z" id="Shape" fill="#F95632" fill-rule="nonzero"></path>
            <path d="M9,41.25 L35.25,41.25 L35.25,25.5 L9,25.5 L9,41.25 Z M10.75,27.25 L33.5,27.25 L33.5,39.5 L10.75,39.5 L10.75,27.25 Z" id="Shape" fill="#000000" fill-rule="nonzero"></path>
            <path d="M27.3178278,33.495283 C27.0976678,31.1187736 25.0546875,29.25 22.5722541,29.25 C20.7815043,29.25 19.1580413,30.254434 18.3510771,31.7971698 L16.4745169,31.7971698 L12.75,37.2693396 L14.1923077,38.2109434 L17.4019624,33.495283 L20.8083742,33.495283 L24.0180288,38.2117925 L25.4603365,37.2701887 L24.0474991,35.1933962 L27.7728828,35.1933962 L30.1131657,38.25 L31.5,37.2319811 L28.6396542,33.495283 L27.3178278,33.495283 Z M22.891226,33.495283 L21.7358196,31.7971698 L20.467733,31.7971698 C21.0207332,31.2656604 21.7704905,30.9481132 22.5722541,30.9481132 C24.0960383,30.9481132 25.3493898,32.0586792 25.5617488,33.495283 L22.891226,33.495283 Z" id="Shape" fill="#26A59A" fill-rule="nonzero"></path>
        </g>
    </g>
</svg>