<?xml version="1.0" encoding="UTF-8"?>
<svg width="101px" height="72px" viewBox="0 0 101 72" version="1.1" xmlns="http://www.w3.org/2000/svg" xmlns:xlink="http://www.w3.org/1999/xlink">
    <!-- Generator: Sketch 57.1 (83088) - https://sketch.com -->
    <title>Combined Shape</title>
    <desc>Created with Sketch.</desc>
    <g id="Shortlist-V2.0" stroke="none" stroke-width="1" fill="none" fill-rule="evenodd">
        <g id="1.1.1---Orientation---Shown-mindmap---Completed" transform="translate(-441.000000, -1031.000000)" fill="currentColor" fill-rule="nonzero">
            <path d="M524.039108,1031 C525.695962,1031 527.039108,1032.34315 527.039108,1034 L527.039,1056.015 L538.964998,1056.01586 C540.621852,1056.01586 541.964998,1057.35901 541.964998,1059.01586 C541.964998,1059.88784 541.585607,1060.71667 540.925611,1061.28654 L493.460637,1102.27004 C492.334425,1103.24246 490.665622,1103.24246 489.53941,1102.27004 L442.074436,1061.28654 C440.820373,1060.20372 440.681551,1058.30931 441.764368,1057.05525 C442.334239,1056.39525 443.163071,1056.01586 444.03505,1056.01586 L455.96,1056.015 L455.960939,1034 C455.960939,1032.34315 457.304085,1031 458.960939,1031 L524.039108,1031 Z M524.039108,1033 L458.960939,1033 C458.408655,1033 457.960939,1033.44772 457.960939,1034.00009 L457.959915,1058.01486 L455.960144,1058.015 L444.03505,1058.01586 C443.74439,1058.01586 443.468113,1058.14232 443.278156,1058.36232 C442.917217,1058.78034 442.963491,1059.41181 443.381512,1059.77275 L490.846486,1100.75625 C491.22189,1101.08039 491.778157,1101.08039 492.153561,1100.75625 L539.618535,1059.77275 C539.838534,1059.5828 539.964998,1059.30652 539.964998,1059.01586 C539.964998,1058.46358 539.517282,1058.01586 538.964853,1058.01586 L525.03899,1058.01486 L525.039108,1034 C525.039108,1033.44772 524.591393,1033 524.039108,1033 Z" id="Combined-Shape"></path>
        </g>
    </g>
</svg>
