<?xml version="1.0" encoding="UTF-8"?>
<svg  viewBox="0 0 18 18" version="1.1" xmlns="http://www.w3.org/2000/svg" xmlns:xlink="http://www.w3.org/1999/xlink">
    <!-- Generator: Sketch 56.2 (81672) - https://sketch.com -->
    <title>18px / not viewed</title>
    <desc>Created with Sketch.</desc>
    <g id="18px-/-not-viewed" stroke="none" stroke-width="1" fill="none" fill-rule="evenodd">
        <rect id="Rectangle" x="0" y="0" width="18" height="18"></rect>
        <path d="M9,4.59530026 C11.7563636,4.59530026 14.2145455,6.15248042 15.4145455,8.61618799 C14.9854545,9.50809399 14.3818182,10.275718 13.6618182,10.8971279 L14.6872727,11.9279373 C15.6981818,11.0287206 16.4981818,9.90287206 17,8.61618799 C15.7418182,5.40678851 12.6363636,3.13315927 9,3.13315927 C8.07636364,3.13315927 7.18909091,3.27937337 6.35272727,3.54986945 L7.55272727,4.75613577 C8.02545455,4.66109661 8.50545455,4.59530026 9,4.59530026 Z M8.22181818,5.42872063 L9.72727273,6.94203655 C10.1418182,7.12480418 10.4763636,7.46109661 10.6581818,7.87780679 L12.1636364,9.39112272 C12.2218182,9.14255875 12.2654814,8.87937337 12.2654814,8.60887728 C12.2727273,6.79582245 10.8036364,5.32637076 9,5.32637076 C8.73090909,5.32637076 8.47636364,5.36292428 8.22181818,5.42872063 Z M1.73454545,3.0381201 L3.68363636,4.99738903 C2.49818182,5.93315927 1.56,7.17597911 1,8.61618799 C2.25818182,11.8255875 5.36363636,14.0992167 9,14.0992167 C10.1054545,14.0992167 11.1672727,13.8872063 12.1418182,13.4997389 L14.6290909,16 L15.6545455,14.9691906 L2.76,2 L1.73454545,3.0381201 Z M7.18909091,8.52114883 L9.08727273,10.4292428 C9.05818182,10.4365535 9.02909091,10.4438642 9,10.4438642 C7.99636364,10.4438642 7.18181818,9.62506527 7.18181818,8.61618799 C7.18181818,8.57963446 7.18909091,8.55770235 7.18909091,8.52114883 Z M4.71636364,6.03550914 L5.98909091,7.31488251 C5.82181818,7.71697128 5.72727273,8.15561358 5.72727273,8.61618799 C5.72727273,10.4292428 7.19636364,11.9060052 9,11.9060052 C9.45818182,11.9060052 9.89454545,11.8109661 10.2872727,11.6428198 L11,12.3592689 C10.36,12.5347258 9.69090909,12.6370757 9,12.6370757 C6.24363636,12.6370757 3.78545455,11.0798956 2.58545455,8.61618799 C3.09454545,7.57075718 3.83636364,6.70809399 4.71636364,6.03550914 Z" id="Combined-Shape" fill="#F57C00" fill-rule="nonzero"></path>
    </g>
</svg>