<?xml version="1.0" encoding="UTF-8"?>
<svg  viewBox="0 0 18 18" version="1.1" xmlns="http://www.w3.org/2000/svg" xmlns:xlink="http://www.w3.org/1999/xlink">
    <!-- Generator: Sketch 52.2 (67145) - http://www.bohemiancoding.com/sketch -->
    <title>18px / on discussion</title>
    <desc>Created with Sketch.</desc>
    <g id="18px-/-on-discussion" stroke="none" stroke-width="1" fill="none" fill-rule="evenodd">
        <path d="M2.5,4.5 L14.5,4.5 L14.5,13.5 L3.3775,13.5 L2.5,14.3775 L2.5,4.5 Z M2.5,3 C1.675,3 1.0075,3.675 1.0075,4.5 L1,18 L4,15 L14.5,15 C15.325,15 16,14.325 16,13.5 L16,4.5 C16,3.675 15.325,3 14.5,3 L2.5,3 Z M4,9.5 L13,9.5 L13,11 L4,11 L4,9.5 Z M4,7 L13,7 L13,8.5 L4,8.5 L4,7 Z" id="Combined-Shape" fill="currentColor" fill-rule="nonzero"></path>
    </g>
</svg>
