<?xml version="1.0" encoding="UTF-8"?>
<svg viewBox="0 0 60 60" version="1.1" xmlns="http://www.w3.org/2000/svg" xmlns:xlink="http://www.w3.org/1999/xlink">
    <!-- Generator: Sketch 64 (93537) - https://sketch.com -->
    <title>60 px / pc</title>
    <desc>Created with Sketch.</desc>
    <g id="60-px-/-pc" stroke="none" stroke-width="1" fill="none" fill-rule="evenodd">
        <rect id="Rectangle" x="0" y="0" width="60" height="60"></rect>
        <g id="pc" transform="translate(0.000000, 5.000000)">
            <rect id="Rectangle-5" fill="#D4EDEB" x="43.5849057" y="11.8867925" width="16.4150943" height="16.4150943"></rect>
            <rect id="Rectangle-5-Copy" fill="#F95632" x="1.69811321" y="41.3207547" width="5.66037736" height="5.66037736"></rect>
            <path d="M14.1509434,0 L14.1509434,14.1509434 L0,14.1509434 L0,0 L14.1509434,0 Z M12.4528302,1.69811321 L1.69811321,1.69811321 L1.69811321,12.4528302 L12.4528302,12.4528302 L12.4528302,1.69811321 Z" id="Combined-Shape" fill="#26A59A"></path>
            <path d="M47.0464298,6.79245283 L9.55734375,6.79245283 C6.78428508,6.79245283 4.52830189,9.05081581 4.52830189,11.8265925 L4.52830189,32.4206987 L4.52830189,35.624276 C4.52830189,38.4000526 6.78428508,40.6584156 9.55734375,40.6584156 L21.7003523,40.6584156 L20.2373482,47.9807583 L15.50074,47.9807583 C14.995737,47.9807583 14.5863856,48.3905247 14.5863856,48.8960395 C14.5863856,49.4015544 14.995737,49.8113208 15.50074,49.8113208 L41.1030336,49.8113208 C41.6080366,49.8113208 42.017388,49.4015544 42.017388,48.8960395 C42.017388,48.3905247 41.6080366,47.9807583 41.1030336,47.9807583 L36.3664254,47.9807583 L34.9034213,40.6584156 L47.0464298,40.6584156 C49.8193956,40.6584156 52.0754717,38.4001456 52.0754717,35.624276 L52.0754717,32.4206987 L52.0754717,11.8265925 C52.0754717,9.05081581 49.8194885,6.79245283 47.0464298,6.79245283 Z M22.1022745,47.9807583 L23.5652786,40.6584156 L33.038495,40.6584156 L34.5014991,47.9807583 L22.1022745,47.9807583 Z M50.246763,35.624276 C50.246763,37.3906962 48.8111542,38.8278532 47.0464298,38.8278532 L9.55734375,38.8278532 C7.79271226,38.8278532 6.35701061,37.3907892 6.35701061,35.624276 L6.35701061,33.3360729 L50.246763,33.3360729 L50.246763,35.624276 L50.246763,35.624276 Z M50.246763,31.5055105 L6.35701061,31.5055105 L6.35701061,29.6749481 L11.8432297,29.6749481 C12.3482326,29.6749481 12.757584,29.2651817 12.757584,28.7596668 C12.757584,28.254152 12.3482326,27.8443856 11.8432297,27.8443856 L6.35701061,27.8443856 L6.35701061,11.8265925 C6.35701061,10.0601722 7.7926194,8.62301526 9.55734375,8.62301526 L47.0464298,8.62301526 C48.8110613,8.62301526 50.246763,10.0600793 50.246763,11.8265925 L50.246763,31.5055105 Z" id="Shape" fill="#333333" fill-rule="nonzero"></path>
            <path d="M28.0188679,33.9622642 C26.9264887,33.9622642 26.0377358,34.851017 26.0377358,35.9433962 C26.0377358,37.0357755 26.9264887,37.9245283 28.0188679,37.9245283 C29.1112472,37.9245283 30,37.0357755 30,35.9433962 C30,34.851017 29.1112472,33.9622642 28.0188679,33.9622642 Z" id="Shape" fill="#F95632" fill-rule="nonzero"></path>
            <path d="M35.9536782,24.7357567 L33.977731,22.7597975 L35.6243694,21.1132436 C35.8638065,20.8738051 35.954435,20.5233034 35.8610631,20.1977767 C35.7676911,19.8723446 35.5050766,19.6231621 35.1751056,19.5469126 L26.6126992,17.5709533 C26.2998511,17.4989609 25.9717722,17.5928065 25.7445387,17.8199467 C25.5174945,18.0470869 25.4233657,18.3750733 25.4955469,18.6881125 L27.4716833,27.2504763 C27.5478377,27.5803547 27.7970188,27.8430654 28.1225435,27.9364379 C28.4481628,28.0297158 28.7984732,27.9390868 29.0380048,27.6997429 L30.6845487,26.0530944 L32.6604959,28.0290536 C32.8424151,28.2109739 33.0808116,28.3018868 33.3191134,28.3018868 C33.5574153,28.3018868 33.7959064,28.2109739 33.977731,28.0290536 L35.9536782,26.0530944 C36.3173274,25.6893484 36.3173274,25.0995973 35.9536782,24.7357567 Z M33.3191134,26.0530944 L31.3431662,24.0771352 C31.161247,23.8952149 30.9228505,23.804302 30.6845487,23.804302 C30.4462468,23.804302 30.2077557,23.8952149 30.0259311,24.0771352 L28.9090626,25.1941051 L27.646129,19.7214539 L33.1187469,20.9843006 L32.0017838,22.1011759 C31.6380399,22.464922 31.6380399,23.0547676 32.0017838,23.4185136 L33.977731,25.3944729 L33.3191134,26.0530944 Z" id="Shape" fill="#26A59A" fill-rule="nonzero"></path>
            <path d="M24.0633203,14.8045779 L23.11994,13.8612057 C22.7515369,13.4928057 22.1541394,13.4928057 21.7857363,13.8612057 C21.4173332,14.2296057 21.4173332,14.8269023 21.7857363,15.1953981 L22.7292124,16.1387704 C22.9134618,16.3230183 23.154912,16.4150943 23.3962663,16.4150943 C23.6376207,16.4150943 23.8791667,16.3230183 24.0633203,16.1387704 C24.4317234,15.7704662 24.4317234,15.1730737 24.0633203,14.8045779 Z" id="Shape" fill="#26A59A" fill-rule="nonzero"></path>
            <path d="M22.3785955,17.5471698 L21.2063101,17.5471698 C20.7484756,17.5471698 20.3773585,18.0539938 20.3773585,18.6792453 C20.3773585,19.3044968 20.7484756,19.8113208 21.2063101,19.8113208 L22.3785955,19.8113208 C22.8364301,19.8113208 23.2075472,19.3044968 23.2075472,18.6792453 C23.2075472,18.0539938 22.8364301,17.5471698 22.3785955,17.5471698 Z" id="Shape" fill="#D4EDEB" fill-rule="nonzero"></path>
            <path d="M24.0633109,20.6536585 C23.6949912,20.2852585 23.0976693,20.2852585 22.7291579,20.6536585 L21.7857457,21.5970308 C21.4173301,21.9654308 21.4173301,22.5628232 21.7857457,22.9312232 C21.9700014,23.1154711 22.2114597,23.2075472 22.4528222,23.2075472 C22.6941847,23.2075472 22.9357389,23.1154711 23.1198988,22.9312232 L24.0633109,21.9878509 C24.4317265,21.6195468 24.4317265,21.0221543 24.0633109,20.6536585 Z" id="Shape" fill="#F95632" fill-rule="nonzero"></path>
            <path d="M30.8557731,13.8612057 C30.48737,13.4928057 29.8900683,13.4928057 29.5215694,13.8612057 L28.5781891,14.8045779 C28.209786,15.1729779 28.209786,15.7703704 28.5781891,16.1387704 C28.7624386,16.3230183 29.0038888,16.4150943 29.2453389,16.4150943 C29.4867891,16.4150943 29.7282392,16.3230183 29.9123929,16.1387704 L30.8557731,15.1953981 C31.2241763,14.8270939 31.2241763,14.2297015 30.8557731,13.8612057 Z" id="Shape" fill="#26A59A" fill-rule="nonzero"></path>
            <path d="M26.6037736,12.4528302 C25.9785221,12.4528302 25.4716981,12.8239473 25.4716981,13.2817818 L25.4716981,14.4540672 C25.4716981,14.9119018 25.9785221,15.2830189 26.6037736,15.2830189 C27.2290251,15.2830189 27.7358491,14.9119018 27.7358491,14.4540672 L27.7358491,13.2817818 C27.7358491,12.8239473 27.2290251,12.4528302 26.6037736,12.4528302 Z" id="Shape" fill="#F95632" fill-rule="nonzero"></path>
            <path d="M16.3924436,28.6468915 C16.3788762,28.5744405 16.3562255,28.5031395 16.3279409,28.4340236 C16.2996562,28.3660577 16.2645879,28.3003918 16.2237706,28.2392109 C16.1830683,28.1768801 16.1354673,28.1191493 16.0833822,28.0670536 C16.0312971,28.0149579 15.973578,27.9674622 15.9112598,27.9266367 C15.8500914,27.8859261 15.7844388,27.8507356 15.7154519,27.8224452 C15.6474998,27.7941549 15.5762133,27.7714995 15.503777,27.7579294 C15.3577547,27.728489 15.208283,27.728489 15.0622607,27.7579294 C14.9898244,27.7714995 14.9185379,27.7941549 14.8505858,27.8224452 C14.7814839,27.8507356 14.7158313,27.8858111 14.6547779,27.9266367 C14.5924597,27.9673472 14.5347407,28.0149579 14.4826555,28.0670536 C14.4305704,28.1191493 14.3830844,28.1768801 14.3422671,28.2392109 C14.3015649,28.3003918 14.2663815,28.3660577 14.2380969,28.4340236 C14.2098122,28.5031395 14.1871615,28.5744405 14.1735941,28.6468915 C14.1588769,28.7193425 14.1509434,28.7940935 14.1509434,28.8676945 C14.1509434,28.9412955 14.1588769,29.0160466 14.1735941,29.0884975 C14.1871615,29.1609485 14.2098122,29.2322495 14.2380969,29.3002154 C14.2663815,29.3693314 14.3014499,29.4349973 14.3422671,29.4960631 C14.3829694,29.558394 14.4305704,29.6161248 14.4826555,29.6682205 C14.5347407,29.7203162 14.5924597,29.7678118 14.6547779,29.8086374 C14.7159463,29.8493479 14.7815989,29.8845384 14.8505858,29.9128288 C14.9185379,29.9411192 14.9898244,29.9637745 15.0622607,29.9784947 C15.134697,29.9932149 15.2094328,30 15.2830189,30 C15.3566049,30 15.4313408,29.9932149 15.503777,29.9784947 C15.5762133,29.9637745 15.6474998,29.9411192 15.7154519,29.9128288 C15.7845538,29.8845384 15.8502064,29.8494629 15.9112598,29.8086374 C15.973578,29.7679268 16.0312971,29.7203162 16.0833822,29.6682205 C16.1354673,29.6161248 16.1829533,29.558394 16.2237706,29.4960631 C16.2644729,29.4348823 16.2996562,29.3692164 16.3279409,29.3002154 C16.3562255,29.2322495 16.3788762,29.1609485 16.3924436,29.0884975 C16.4071608,29.0160466 16.4150943,28.9412955 16.4150943,28.8676945 C16.4150943,28.7940935 16.4071608,28.7193425 16.3924436,28.6468915 Z" id="Shape" fill="#F95632" fill-rule="nonzero"></path>
        </g>
    </g>
</svg>