<?xml version="1.0" encoding="UTF-8"?>
<svg width="18px" height="18px" viewBox="0 0 18 18" version="1.1" xmlns="http://www.w3.org/2000/svg" xmlns:xlink="http://www.w3.org/1999/xlink">
    <!-- Generator: Sketch 56.2 (81672) - https://sketch.com -->
    <title>18px / questionmark</title>
    <desc>Created with Sketch.</desc>
    <defs>
        <path d="M8.75,14 L10.25,14 L10.25,12.5 L8.75,12.5 L8.75,14 Z M9.5,2 C5.36,2 2,5.36 2,9.5 C2,13.64 5.36,17 9.5,17 C13.64,17 17,13.64 17,9.5 C17,5.36 13.64,2 9.5,2 Z M9.5,15.5 C6.1925,15.5 3.5,12.8075 3.5,9.5 C3.5,6.1925 6.1925,3.5 9.5,3.5 C12.8075,3.5 15.5,6.1925 15.5,9.5 C15.5,12.8075 12.8075,15.5 9.5,15.5 Z M9.5,5 C7.8425,5 6.5,6.3425 6.5,8 L8,8 C8,7.175 8.675,6.5 9.5,6.5 C10.325,6.5 11,7.175 11,8 C11,9.5 8.75,9.3125 8.75,11.75 L10.25,11.75 C10.25,10.0625 12.5,9.875 12.5,8 C12.5,6.3425 11.1575,5 9.5,5 Z" id="path-1"></path>
    </defs>
    <g id="18px-/-questionmark" stroke="none" stroke-width="1" fill="none" fill-rule="evenodd">
        <rect id="Rectangle" x="0" y="0" width="18" height="18"></rect>
        <mask id="mask-2" fill="white">
            <use xlink:href="#path-1"></use>
        </mask>
        <use id="Shape" fill="#F57C00" fill-rule="nonzero" xlink:href="#path-1"></use>
    </g>
</svg>