<?xml version="1.0" encoding="UTF-8"?>
<svg width="60px" height="60px" viewBox="0 0 60 60" version="1.1" xmlns="http://www.w3.org/2000/svg" xmlns:xlink="http://www.w3.org/1999/xlink">
    <!-- Generator: Sketch 64 (93537) - https://sketch.com -->
    <title>60 px / resume</title>
    <desc>Created with Sketch.</desc>
    <g id="60-px-/-resume" stroke="none" stroke-width="1" fill="none" fill-rule="evenodd">
        <rect id="Rectangle" x="0" y="0" width="60" height="60"></rect>
        <g id="resume" transform="translate(3.000000, 0.000000)">
            <circle id="Oval-3" fill="#D4EDEB" cx="19.3548387" cy="19.3548387" r="19.3548387"></circle>
            <path d="M46.77422,10.9677419 L33.22578,10.9677419 C31.9786884,10.9677419 30.9677419,11.9786884 30.9677419,13.22578 L30.9677419,26.77422 C30.9677419,28.0213116 31.9786884,29.0322581 33.22578,29.0322581 L46.77422,29.0322581 C48.0213116,29.0322581 49.0322581,28.0213116 49.0322581,26.77422 L49.0322581,13.22578 C49.0322581,11.9786884 48.0213116,10.9677419 46.77422,10.9677419 Z M35.7322414,26.77422 C36.5480057,24.4172148 39.1200923,23.1677946 41.4770975,23.9835589 C42.7860038,24.4365849 43.8147326,25.4653137 44.2677586,26.77422 L35.7322414,26.77422 Z M37.7418561,18.870928 C37.7418561,17.6238365 38.7528026,16.61289 39.9998942,16.61289 C41.2470916,16.61289 42.2580381,17.6238365 42.2580381,18.870928 C42.2580381,20.1180196 41.2470916,21.1289661 40,21.1289661 C38.7529084,21.129072 37.7418561,20.1181255 37.7418561,18.870928 Z M46.62741,26.77422 C46.2010575,24.7797415 44.8988195,23.0835403 43.0822701,22.1564248 C44.9081341,20.4572599 45.0109117,17.5995975 43.311641,15.7737335 C41.6124761,13.9478695 38.7548137,13.8450919 36.9289497,15.5443626 C35.1030857,17.2435275 35.0003081,20.1011899 36.6995788,21.9270539 C36.7732485,22.0062276 36.849776,22.0827551 36.9289497,22.1564248 C35.1080605,23.0808941 33.801377,24.7775187 33.3724842,26.77422 L33.2256741,26.77422 L33.2256741,13.22578 L46.77422,13.22578 L46.77422,26.77422 L46.62741,26.77422 Z" id="Shape" fill="#26A59A" fill-rule="nonzero"></path>
            <path d="M50.7918658,6.4516129 C50.7843021,6.4516129 50.7767385,6.4516129 50.7692799,6.4516129 L21.0526061,6.4516129 C20.7547881,6.44995732 20.4685256,6.56636182 20.257059,6.77511599 L11.2926832,15.6998795 C11.0828974,15.9104116 10.9659762,16.1954092 10.9677419,16.4919112 L10.9677419,57.2331733 C10.973855,58.7586684 12.2145009,59.9937275 13.7466619,60 L50.7244234,60 C52.2653035,60.0183053 53.5293757,58.7897305 53.5483871,57.2556593 C53.5483871,57.2481291 53.5483871,57.2405989 53.5483871,57.2331733 L53.5483871,9.26290925 C53.5667736,7.72894264 52.3327459,6.47035164 50.7918658,6.4516129 Z M51.3071383,57.2331733 C51.3071383,57.5289432 51.0663626,57.7686549 50.7692799,57.7686549 L13.7915184,57.7686549 C13.4954862,57.7933373 13.2354864,57.5743337 13.2106944,57.2797142 C13.2094338,57.2642354 13.2088035,57.2487567 13.2088035,57.2331733 L13.2088035,16.9493715 L19.9320329,10.2558512 L19.9320329,14.8743802 C19.926045,15.1491283 19.7037582,15.3704328 19.4277907,15.3763942 L16.5704182,15.3763942 L16.5704182,17.6075328 L19.9320329,17.6075328 C21.2296162,17.3616505 22.1695026,16.2340015 22.1730743,14.9189339 L22.1730743,8.68276929 L50.7691749,8.68276929 C51.0662576,8.68276929 51.3071383,8.92248099 51.3071383,9.21825092 L51.3071383,57.2331733 L51.3071383,57.2331733 Z" id="Shape" fill="#333333" fill-rule="nonzero"></path>
            <polygon id="Rectangle-path" fill="#333333" fill-rule="nonzero" points="25.8064516 32.9032258 43.8709677 32.9032258 43.8709677 34.8387097 25.8064516 34.8387097"></polygon>
            <polygon id="Rectangle-path" fill="#F95632" fill-rule="nonzero" points="21.2903226 38.7096774 43.8709677 38.7096774 43.8709677 40.6451613 21.2903226 40.6451613"></polygon>
            <polygon id="Rectangle-path" fill="#D4EDEB" fill-rule="nonzero" points="21.2903226 44.516129 43.8709677 44.516129 43.8709677 46.4516129 21.2903226 46.4516129"></polygon>
            <polygon id="Rectangle-path" fill="#26A59A" fill-rule="nonzero" points="21.2903226 49.6774194 39.3548387 49.6774194 39.3548387 51.6129032 21.2903226 51.6129032"></polygon>
            <polygon id="Rectangle-path" fill="#F95632" fill-rule="nonzero" points="41.2903226 49.6774194 43.2258065 49.6774194 43.2258065 51.6129032 41.2903226 51.6129032"></polygon>
        </g>
    </g>
</svg>