<?xml version="1.0" encoding="UTF-8"?>
<svg viewBox="0 0 60 60" version="1.1" xmlns="http://www.w3.org/2000/svg" xmlns:xlink="http://www.w3.org/1999/xlink">
    <!-- Generator: Sketch 64 (93537) - https://sketch.com -->
    <title>60 px / reunion</title>
    <desc>Created with Sketch.</desc>
    <g id="60-px-/-reunion" stroke="none" stroke-width="1" fill="none" fill-rule="evenodd">
        <rect id="Rectangle" x="0" y="0" width="60" height="60"></rect>
        <g id="reunion" transform="translate(0.000000, 5.000000)">
            <path d="M47.806029,30.6264251 L42.754113,30.6264251 L42.99659,26.7425172 C42.9974439,26.7290762 42.9981008,26.6104241 42.9985606,26.3865608 C42.9985606,26.3258808 42.9974768,26.2645158 42.9955062,26.2034444 C42.9470305,24.7310749 42.3009836,23.3801631 41.1764854,22.3997905 C40.0449918,21.4132521 38.5353484,20.9308465 37.0385136,21.0765762 C36.9784117,21.0836229 33.5157496,21.5085783 31.3729664,21.6276872 C30.711352,21.6644866 30.1885633,21.9412655 29.7830228,22.3660251 C29.0306643,21.46483 27.8962148,20.8924811 26.6393938,20.8924811 L24.1145196,20.8924811 L23.9618015,20.1146034 C26.0641883,18.9793012 27.3829834,16.8084272 27.3829834,14.3814251 L27.3829834,11.7436092 L27.3829834,9.21619162 C27.3829834,8.05152816 26.9249275,6.99178228 26.1792689,6.20323661 C26.1820276,6.13599931 26.1837026,6.06876202 26.1837026,6.00152473 C26.1836041,3.05580701 23.7710516,0.659340659 20.8054625,0.659340659 C17.8399719,0.659340659 15.4274194,3.05580701 15.4274194,6.00152473 C15.4274194,6.06876202 15.4290944,6.13599931 15.4318532,6.20323661 C14.6862931,6.99178228 14.2282372,8.05152816 14.2282372,9.21619162 L14.2282372,9.40165694 L14.2282372,14.3814251 C14.2282372,16.8084272 15.5470322,18.979399 17.649419,20.1146034 L17.4967009,20.8924811 L14.9717282,20.8924811 C12.7202688,20.8924811 10.8885379,22.7119986 10.8885379,24.9484461 L10.8885379,30.6264251 L6.91934423,30.6264251 C6.37517503,30.6264251 5.93406593,31.0645931 5.93406593,31.6051339 L5.93406593,49.790522 C5.93406593,50.3310628 6.37517503,50.7692308 6.91934423,50.7692308 L27.310861,50.7692308 L33.6263736,50.7692308 L44.2889796,50.7692308 L47.8059305,50.7692308 C48.3500997,50.7692308 48.7912088,50.3310628 48.7912088,49.790522 L48.7912088,31.6051339 C48.7912088,31.0645931 48.3500997,30.6264251 47.806029,30.6264251 Z M37.0570369,38.3756456 L34.5427052,38.3755477 L34.7057687,37.5250498 L36.8939733,37.5250498 L37.0570369,38.3756456 Z M16.1986953,14.3814251 L16.1986953,11.2085491 C16.206479,11.2127576 16.2149524,11.216966 16.2227361,11.2211745 C16.2777146,11.2505357 16.3346637,11.2800927 16.3921054,11.3097476 C16.4169344,11.3225687 16.4406796,11.3352919 16.4660013,11.348113 C16.5494543,11.3904911 16.6352721,11.4328692 16.7236515,11.4752473 C16.7397116,11.4829791 16.7568554,11.490613 16.773014,11.4983448 C16.8460231,11.5329911 16.920116,11.5675395 16.9963766,11.6018922 C17.0291863,11.6166707 17.0631784,11.6312534 17.0965794,11.6460319 C17.1582578,11.67324 17.2201333,11.7002524 17.2837823,11.7271669 C17.3227993,11.7437071 17.3628016,11.7598558 17.4026068,11.7762002 C17.4633,11.8011573 17.5244857,11.8258207 17.5869524,11.8503863 C17.6292208,11.8670244 17.6719819,11.8834667 17.7151371,11.8998111 C17.7779978,11.9236916 17.8417454,11.9472785 17.9061826,11.9706696 C17.9502245,11.9866226 17.994365,12.0025755 18.0391951,12.0182349 C18.1064896,12.0418218 18.175065,12.0648214 18.244133,12.0876253 C18.2877808,12.1021102 18.330936,12.116693 18.3752736,12.1307864 C18.452815,12.1555477 18.5321299,12.1794282 18.6117403,12.203113 C18.649378,12.2142703 18.6861289,12.2259169 18.7241606,12.2368784 C18.8422955,12.2708396 18.9622038,12.3038221 19.0845754,12.3351408 C19.0981722,12.3386641 19.1124588,12.3416981 19.1261541,12.3452215 C19.2352245,12.3727232 19.3456741,12.3992462 19.4579959,12.424399 C19.5008555,12.4339904 19.5447989,12.442603 19.5880526,12.4518029 C19.672688,12.4698111 19.757619,12.4875258 19.8441264,12.5040659 C19.8952624,12.513853 19.9471866,12.5227593 19.9989137,12.5319591 C20.0799035,12.5463462 20.1613861,12.5602438 20.2438538,12.5732606 C20.2987338,12.5818733 20.3541065,12.5899966 20.4095777,12.5979241 C20.4916513,12.6096686 20.5744147,12.6205323 20.6578678,12.6308087 C20.7143242,12.6377576 20.7708792,12.6445106 20.8280254,12.6506765 C20.9142372,12.6599742 21.0014343,12.6679997 21.0890256,12.6756336 C21.1444967,12.6804293 21.1996723,12.6855185 21.2557347,12.6896291 C21.3522919,12.6966758 21.4502286,12.7017651 21.5483623,12.7065608 C21.596838,12.7089097 21.644624,12.7121394 21.6934938,12.7139011 C21.84099,12.719284 21.9900626,12.7226116 22.1411057,12.7226116 L25.4121312,12.7226116 L25.4121312,14.3817187 C25.4121312,16.2766947 24.2640849,17.9488187 22.4873325,18.6417445 C22.044647,18.8143887 21.7893614,19.2763393 21.8803026,19.7400515 L22.3412158,22.0879739 L20.805364,22.5670519 L19.2696107,22.0879739 L19.2754238,22.0588084 C19.2755223,22.0585148 19.2755223,22.058319 19.2755223,22.0581233 L19.7305239,19.7400515 C19.8215636,19.2764372 19.5661794,18.8143887 19.1234939,18.6417445 C17.3468401,17.9484272 16.1986953,16.2763032 16.1986953,14.3814251 Z M43.3037013,48.8118132 L28.2962378,48.8118132 L28.2962378,41.1526339 C28.2962378,40.7006662 28.6663083,40.3329653 29.1213099,40.3329653 L42.4785307,40.3329653 C42.9335322,40.3329653 43.3037013,40.7006662 43.3037013,41.1526339 L43.3037013,48.8118132 Z M46.8206522,48.8118132 L45.2742579,48.8118132 L45.2742579,41.1526339 C45.2742579,39.6213462 44.0200971,38.3755477 42.4785307,38.3755477 L39.0630635,38.3755477 L38.8197983,37.1069454 C39.4183548,36.7783929 39.9485331,36.3605821 40.3967362,35.8739681 L46.8206522,35.8739681 L46.8206522,48.8118132 Z M41.6094167,33.9165505 C41.7546467,33.53642 41.8631259,33.1395536 41.930913,32.7303554 C41.9586979,32.7236023 41.9859901,32.7153812 42.0127897,32.7062792 C42.0213616,32.7033431 42.0296379,32.6999176 42.0382098,32.6967857 C42.056339,32.6901305 42.074271,32.6831817 42.091809,32.6755477 C42.1015632,32.6712414 42.1110219,32.6666415 42.1205791,32.6620416 C42.1364421,32.6544076 42.1522065,32.646578 42.1676754,32.6381611 C42.1773311,32.632876 42.1867898,32.6274931 42.1962485,32.6219145 C42.2113232,32.6131061 42.2260039,32.6038084 42.2404875,32.594217 C42.2459065,32.5905958 42.2517196,32.5875618 42.2570401,32.5838427 L46.8206522,32.5838427 L46.8206522,33.9165505 L41.6094167,33.9165505 L41.6094167,33.9165505 Z" id="Shape" fill="#333333" fill-rule="nonzero"></path>
            <path d="M26.3255827,41.1528297 L26.3255827,48.8118132 L7.90462253,48.8118132 L7.90462253,32.5838427 L11.8739147,32.5838427 L29.3428004,32.5838427 C29.3746249,32.6041999 29.3894041,32.6134976 29.4044788,32.6224038 C29.4483237,32.6468716 29.4641867,32.6547991 29.4802467,32.6625309 C29.5261607,32.6833774 29.5442898,32.6904241 29.562616,32.6971772 C29.6141461,32.7155769 29.6413397,32.7237002 29.6691246,32.7305512 C29.7369117,33.1397493 29.8453909,33.5366157 29.9906209,33.9167462 L14.2738556,33.9167462 C13.7296864,33.9167462 13.2885773,34.3549141 13.2885773,34.895455 C13.2885773,35.4359959 13.7296864,35.8741638 14.2738556,35.8741638 L31.2032029,35.8741638 C31.6513075,36.3607778 32.1815843,36.7785886 32.7800423,37.1071411 L32.5367771,38.3757435 L29.1213099,38.3757435 C27.5797434,38.3757435 26.3255827,39.6215419 26.3255827,41.1528297 Z" id="Path" fill="#D4EDEB"></path>
            <path d="M17.1562872,7.28167582 C17.1758943,7.26660371 17.1954028,7.25133585 17.2154039,7.23694883 C17.2525489,7.21003434 17.2908763,7.18478365 17.3294992,7.15992445 C17.3532444,7.14475446 17.3767925,7.12929087 17.4010304,7.11500172 C17.4362048,7.09405735 17.472266,7.07477679 17.5085242,7.05559409 C17.5381811,7.03993475 17.5676409,7.02407967 17.597889,7.00969265 C17.6297135,6.99452266 17.6623262,6.98082074 17.6948404,6.96692308 C17.7304089,6.95175309 17.7658789,6.93648523 17.8021372,6.92297905 C17.8313014,6.91211538 17.8612539,6.90291552 17.8910093,6.89312843 C17.9308145,6.88001374 17.9706198,6.8667033 18.0111147,6.85564389 C18.0407716,6.8475206 18.0712167,6.84125687 18.1012677,6.83430804 C18.1419597,6.82481456 18.1824546,6.81483173 18.2236392,6.80739354 C18.2605872,6.80073832 18.2984218,6.79652988 18.3358624,6.79153846 C18.3707413,6.78684066 18.4053245,6.78106628 18.4404004,6.77783654 C18.5138037,6.77127919 18.5879951,6.76746223 18.6630733,6.76746223 L22.9471619,6.76746223 C23.0137667,6.76746223 23.0801745,6.77078984 23.1462867,6.77617273 C23.2367352,6.7840024 23.3017636,6.79251717 23.3662993,6.80357658 C23.5860164,6.84292067 23.7833676,6.90457933 23.970472,6.98933551 C23.9773689,6.99246738 23.9842659,6.9954035 23.9911628,6.99863324 C24.0463384,7.02427541 24.1004302,7.05236435 24.1536352,7.08201923 C24.1666409,7.08926168 24.1794495,7.09669986 24.1923566,7.10413805 C24.2408323,7.13232486 24.2884213,7.16217548 24.3350249,7.1936899 C24.351085,7.20465144 24.3667509,7.21600446 24.3825153,7.22725962 C24.4230103,7.25613152 24.4628155,7.28608001 24.5016355,7.31749657 C25.0566428,7.76682177 25.4119341,8.45074348 25.4119341,9.21570227 L25.4119341,10.7644111 L22.1409087,10.7644111 C22.0348927,10.7648025 21.9299606,10.7626494 21.8256196,10.7594196 C21.7934996,10.7584409 21.7617736,10.756875 21.7298506,10.7556027 C21.6561518,10.7525687 21.5828471,10.7488496 21.510232,10.7442497 C21.4763385,10.7420965 21.4424449,10.7399433 21.4088469,10.7374966 C21.3318967,10.7319179 21.2556361,10.7253606 21.1798682,10.7180203 C21.1552363,10.7156714 21.1302102,10.7137139 21.1056768,10.7111693 C21.0066563,10.7009907 20.9086211,10.689442 20.8117683,10.6766209 C20.7906833,10.6738805 20.770091,10.6705529 20.7492031,10.6676168 C20.6727455,10.6570467 20.5969776,10.6456937 20.5219979,10.6335577 C20.4910602,10.6285663 20.4603195,10.6232813 20.4296773,10.6180941 C20.3624814,10.6066432 20.2958765,10.5945072 20.2298629,10.5818819 C20.2014869,10.576499 20.1729138,10.5711161 20.1446363,10.5655374 C20.0613803,10.5488994 19.9789125,10.5314784 19.8976271,10.5131765 C19.8894492,10.511317 19.8809758,10.5096532 19.8726995,10.5077936 C19.7830392,10.4874365 19.6948568,10.465807 19.6075611,10.4435903 C19.5827321,10.4372287 19.5583957,10.4306714 19.5337638,10.4242119 C19.4706074,10.4076717 19.4080423,10.39074 19.3461668,10.373319 C19.3188746,10.3655872 19.2915824,10.3578554 19.2644872,10.3500258 C19.2015279,10.3317239 19.1392583,10.3130306 19.077777,10.2939457 C19.0569876,10.2874863 19.0359027,10.2812225 19.0153103,10.2746652 C18.9340249,10.2489251 18.8538232,10.2225979 18.775198,10.1956834 C18.7631776,10.1915728 18.7516499,10.1872665 18.739728,10.1831559 C18.6733202,10.1601563 18.6077992,10.1367651 18.543362,10.1130804 C18.5198139,10.1043698 18.4965613,10.0956593 18.4732102,10.086851 C18.419217,10.0665917 18.3658149,10.0460388 18.313201,10.025388 C18.2910323,10.0166775 18.2686664,10.007967 18.2467933,9.99915865 C18.1847207,9.97429945 18.1236335,9.94924451 18.0637286,9.92389595 C18.0541714,9.91988324 18.0443186,9.91587054 18.0347614,9.91185783 C17.9651022,9.88230082 17.8970195,9.85245021 17.8303161,9.82250172 C17.8133693,9.81496566 17.7970137,9.80733173 17.7803625,9.7996978 C17.7307045,9.7771875 17.6818347,9.75448146 17.6338516,9.73187328 C17.6138505,9.72237981 17.5939479,9.7129842 17.5742423,9.70349073 C17.5279342,9.68127404 17.4824144,9.65905735 17.4377812,9.63684066 C17.4218197,9.62891312 17.4054641,9.62098558 17.3896997,9.61296016 C17.3302874,9.58310955 17.272156,9.5533568 17.2158966,9.52379979 C17.1514594,9.48974073 17.1014072,9.46282624 17.0525374,9.43610749 C17.0363789,9.42720124 17.0206144,9.41849073 17.0047514,9.40968235 C16.9676064,9.38912946 16.9311511,9.36867445 16.8956811,9.34841518 C16.8798181,9.33941106 16.8638566,9.33030907 16.8482892,9.32130495 C16.8096663,9.29899038 16.7721272,9.27706731 16.7356719,9.25543784 C16.7264103,9.24995707 16.7166561,9.24428056 16.707493,9.23879979 C16.6624658,9.2118853 16.6191135,9.18546016 16.5774362,9.15972012 C16.5664996,9.15296703 16.5563513,9.14650755 16.5456117,9.13985234 C16.5150681,9.12086538 16.4853127,9.10207418 16.4567396,9.08377232 C16.4435369,9.07535543 16.4305312,9.06693853 16.4177226,9.05871738 C16.3922039,9.0421772 16.3674734,9.02612637 16.3436297,9.01027129 C16.332299,9.00273523 16.3205742,8.9951013 16.3096376,8.98776099 C16.2794881,8.96769746 16.2506194,8.94822115 16.2234257,8.92952782 C16.2959422,8.2577421 16.6475881,7.67374657 17.1562872,7.28167582 Z" id="Path" fill="#D4EDEB"></path>
            <path d="M20.8054625,2.61675824 C22.313825,2.61675824 23.5963618,3.59536916 24.0435796,4.94686813 C23.958156,4.92523867 23.8714515,4.90674107 23.7841558,4.89010302 C23.7743031,4.88824348 23.7644503,4.88667754 23.7545975,4.88481799 C23.6810957,4.87131181 23.6070028,4.85966518 23.5322202,4.84987809 C23.5124161,4.84723558 23.492612,4.84469093 23.4728079,4.84234203 C23.4061046,4.83451236 23.3389086,4.82824863 23.2713185,4.82335508 C23.2498394,4.82178915 23.2283603,4.81973386 23.2067828,4.81846154 C23.1208665,4.81347012 23.0345561,4.81033826 22.9474575,4.81033826 L18.6633689,4.81033826 C18.5762703,4.81033826 18.4899599,4.81347012 18.4040437,4.81846154 C18.3824661,4.81973386 18.3610855,4.82178915 18.3395079,4.82335508 C18.2719179,4.82824863 18.2047219,4.83441449 18.1380185,4.84234203 C18.1181159,4.84469093 18.0984103,4.84723558 18.0785077,4.84987809 C18.0038236,4.85966518 17.9298292,4.87131181 17.8563275,4.88481799 C17.8463762,4.88667754 17.8364248,4.88824348 17.8265721,4.89010302 C17.7392764,4.90674107 17.6525719,4.9251408 17.5671483,4.94677026 C18.0145632,3.59536916 19.2971985,2.61675824 20.8054625,2.61675824 Z" id="Path" fill="#F95632"></path>
            <path d="M12.8590945,24.9484461 C12.8590945,23.8263565 13.7508699,22.9098935 14.8670916,22.8551837 L20.0888696,28.3504378 C20.2749886,28.5462775 20.5341168,28.6573609 20.805364,28.6573609 C21.0766111,28.6573609 21.3357393,28.5463753 21.5218583,28.3504378 L26.7440304,22.8547922 C27.7643846,22.9052936 28.6076843,23.6811161 28.7340955,24.685467 C28.6432528,25.1747236 28.60128,25.678465 28.60128,26.1607727 L28.60128,27.26642 C28.60128,27.2892239 28.6020682,27.3120278 28.6037432,27.3348317 L28.7516334,29.432694 L28.7516334,30.626523 L12.8590945,30.626523 L12.8590945,24.9484461 L12.8590945,24.9484461 Z" id="Path" fill="#D4EDEB"></path>
            <path d="M23.0127815,23.929806 L20.805364,26.2527713 L18.598045,23.929806 L20.5101746,24.5262311 C20.5342154,24.5337672 20.5584532,24.5403245 20.5828881,24.5459032 C20.6560943,24.562737 20.7307784,24.5711538 20.805364,24.5711538 C20.8766981,24.5711538 20.9479337,24.5631284 21.017987,24.5477627 C21.0457719,24.5416947 21.0733596,24.5347459 21.1005533,24.5262311 L23.0127815,23.929806 Z" id="Path" fill="#F95632"></path>
            <path d="M30.5720336,26.1606748 C30.5720336,26.0618252 30.5747924,25.9622905 30.5796203,25.8628537 C30.5800144,25.8549262 30.5804085,25.8469008 30.5808026,25.8389732 C30.585926,25.7416896 30.5931186,25.6444059 30.6027743,25.5479052 C30.603464,25.5413479 30.6042522,25.5348884 30.6049419,25.5284289 C30.613908,25.4406387 30.6251401,25.3536315 30.6377517,25.2675052 C30.6404119,25.2493012 30.6430722,25.2310972 30.6459295,25.2130889 C30.6582455,25.134205 30.672335,25.0565934 30.6877053,24.9800584 C30.8480101,24.1860319 31.1554169,23.6001769 31.4829234,23.5819729 C33.644624,23.4618853 36.9662927,23.057385 37.2418751,23.0235216 C38.1969053,22.9346549 39.1559752,23.2426545 39.8765092,23.8708877 C40.5871905,24.4905082 40.9952928,25.3415934 41.0258364,26.2684306 C41.0272158,26.3082641 41.0279055,26.347706 41.0279055,26.3865608 L41.0279055,26.6515951 L40.7757728,30.6890625 C40.7684817,30.6910199 40.7615847,30.6943475 40.7543922,30.6964028 C40.7231589,30.7054069 40.6924182,30.715977 40.6620716,30.728113 C40.6505439,30.7327129 40.6390161,30.7371171 40.6275869,30.7422064 C40.5880772,30.7597253 40.5491587,30.7791037 40.5117182,30.8020055 C40.220864,30.9802284 40.0438095,31.2954705 40.0438095,31.6348867 L40.0438095,31.7109323 C40.0438095,33.3976391 39.0564621,34.8927146 37.5131222,35.5675343 L34.0868169,35.5675343 C32.543674,34.8927146 31.5562281,33.3976391 31.5562281,31.7109323 L31.5562281,31.6395845 C31.5562281,31.3060405 31.3852823,30.9954962 31.1025075,30.8155117 C31.0750182,30.7979928 31.0466422,30.7825292 31.0178721,30.7679464 C31.0093987,30.7636401 31.0008267,30.7597253 30.9922548,30.7557126 C30.969889,30.7451425 30.9471291,30.7355512 30.9241721,30.7267428 C30.9164869,30.7238067 30.9089988,30.7206748 30.9013136,30.7179344 C30.8731347,30.7079516 30.8447587,30.6989475 30.8159885,30.6916071 L30.5720336,27.2320673 L30.5720336,26.1606748 L30.5720336,26.1606748 Z" id="Path" fill="#FFFFFF"></path>
            <path d="M11.8493416,34.4218341 C11.8364851,34.359542 11.8176948,34.2972499 11.7929708,34.2369353 C11.7682468,34.1776094 11.7375889,34.1202611 11.7018874,34.0668679 C11.6652959,34.0124859 11.6237595,33.9620589 11.5782672,33.9165758 C11.532775,33.8701039 11.482338,33.8295646 11.4279451,33.7929803 C11.3745412,33.7573848 11.3171814,33.7267332 11.2578437,33.7020141 C11.197517,33.677295 11.1352125,33.6585084 11.0729079,33.6456545 C10.9453319,33.6199467 10.8138,33.6199467 10.6862239,33.6456545 C10.6229304,33.6585084 10.5606258,33.677295 10.5012881,33.7020141 C10.4409615,33.7267332 10.3836017,33.7573848 10.3301978,33.7929803 C10.2758049,33.8295646 10.2253679,33.8701039 10.1798756,33.9165758 C10.1343834,33.9620589 10.092847,34.0124859 10.0572444,34.0668679 C10.0216418,34.1202611 9.99098397,34.1776094 9.96625993,34.2369353 C9.94153589,34.2972499 9.92274562,34.359542 9.90988912,34.4218341 C9.89703262,34.4861037 9.89010989,34.5513622 9.89010989,34.6156318 C9.89010989,34.6799015 9.89703262,34.7451599 9.90988912,34.8084407 C9.92274562,34.8717216 9.94153589,34.9340137 9.96625993,34.9933396 C9.99098397,35.0536542 10.0216418,35.1110025 10.0572444,35.1643957 C10.092847,35.2187777 10.1343834,35.2692047 10.1798756,35.3146878 C10.2253679,35.3601709 10.2758049,35.401699 10.3301978,35.4372945 C10.3836017,35.47289 10.4409615,35.5035417 10.5012881,35.5282608 C10.5606258,35.5529799 10.6229304,35.5717664 10.6862239,35.5846203 C10.7495175,35.5974743 10.8147889,35.6043956 10.8790714,35.6043956 C10.9433539,35.6043956 11.0086254,35.5974743 11.0729079,35.5846203 C11.1352125,35.5717664 11.197517,35.5529799 11.2578437,35.5282608 C11.3171814,35.5035417 11.3745412,35.47289 11.4279451,35.4372945 C11.482338,35.401699 11.532775,35.3601709 11.5782672,35.3146878 C11.6237595,35.2692047 11.6652959,35.2187777 11.7018874,35.1643957 C11.73749,35.1110025 11.7682468,35.0536542 11.7929708,34.9933396 C11.8176948,34.9340137 11.8364851,34.8717216 11.8493416,34.8084407 C11.8621981,34.7451599 11.8681319,34.6799015 11.8681319,34.6156318 C11.8681319,34.5513622 11.8621981,34.4861037 11.8493416,34.4218341 Z" id="Shape" fill="#26A59A" fill-rule="nonzero"></path>
            <polygon id="Triangle" fill="#D4EDEB" points="51.4285714 8.57142857 34.2857143 17.1428571 34.2857143 0"></polygon>
            <polygon id="Triangle-Copy-3" fill="#F95632" points="60 27.3626374 50.1098901 32.3076923 50.1098901 22.4175824"></polygon>
            <path d="M0.560528995,12.5942624 L11.5232282,19.8324288 L1.34761538,25.7073215 L0.560528995,12.5942624 Z M2.16207983,15.6275181 L2.60660298,23.0333867 L8.35348857,19.7154208 L2.16207983,15.6275181 Z" id="Combined-Shape" fill="#26A59A"></path>
        </g>
    </g>
</svg>