<?xml version="1.0" encoding="UTF-8"?>
<svg width="100%" height="100%" viewBox="0 0 18 18" version="1.1" xmlns="http://www.w3.org/2000/svg" xmlns:xlink="http://www.w3.org/1999/xlink">
    <!-- Generator: Sketch 52.2 (67145) - http://www.bohemiancoding.com/sketch -->
    <title>18px / search profiles</title>
    <desc>Created with Sketch.</desc>
    <g id="18px-/-search-profiles" stroke="none" stroke-width="1" fill="none" fill-rule="evenodd">
        <path d="M14.4444444,2.5 L11.1933333,2.5 C10.8666667,1.63 10.0111111,1 9,1 C7.98888889,1 7.13333333,1.63 6.80666667,2.5 L3.55555556,2.5 C2.7,2.5 2,3.175 2,4 L2,14.5 C2,15.325 2.7,16 3.55555556,16 L14.4444444,16 C15.3,16 16,15.325 16,14.5 L16,4 C16,3.175 15.3,2.5 14.4444444,2.5 Z M9,2.3125 C9.17111111,2.3125 9.31888889,2.3875 9.42777778,2.5 C9.52111111,2.5975 9.58333333,2.7325 9.58333333,2.875 C9.58333333,3.1825 9.31888889,3.4375 9,3.4375 C8.68111111,3.4375 8.41666667,3.1825 8.41666667,2.875 C8.41666667,2.7325 8.47888889,2.5975 8.57222222,2.5 C8.68111111,2.3875 8.82888889,2.3125 9,2.3125 Z M14.4444444,14.5 L3.55555556,14.5 L3.55555556,4 L14.4444444,4 L14.4444444,14.5 Z M9,4.75 C7.71666667,4.75 6.66666667,5.7625 6.66666667,7 C6.66666667,8.2375 7.71666667,9.25 9,9.25 C10.2833333,9.25 11.3333333,8.2375 11.3333333,7 C11.3333333,5.7625 10.2833333,4.75 9,4.75 Z M9,7.75 C8.57222222,7.75 8.22222222,7.4125 8.22222222,7 C8.22222222,6.5875 8.57222222,6.25 9,6.25 C9.42777778,6.25 9.77777778,6.5875 9.77777778,7 C9.77777778,7.4125 9.42777778,7.75 9,7.75 Z M4.33333333,12.6025 L4.33333333,13.75 L13.6666667,13.75 L13.6666667,12.6025 C13.6666667,10.7275 10.5788889,9.9175 9,9.9175 C7.42111111,9.9175 4.33333333,10.72 4.33333333,12.6025 Z M6.13,12.25 C6.66666667,11.83 7.98111111,11.41 9,11.41 C10.0188889,11.41 11.3411111,11.83 11.87,12.25 L6.13,12.25 Z" id="Combined-Shape" fill="#3D3D3D" fill-rule="nonzero"></path>
    </g>
</svg>