<?xml version="1.0" encoding="UTF-8"?>
<svg width="60px" height="60px" viewBox="0 0 60 60" version="1.1" xmlns="http://www.w3.org/2000/svg" xmlns:xlink="http://www.w3.org/1999/xlink">
    <!-- Generator: Sketch 64 (93537) - https://sketch.com -->
    <title>60 px / smartphone</title>
    <desc>Created with Sketch.</desc>
    <g id="60-px-/-smartphone" stroke="none" stroke-width="1" fill="none" fill-rule="evenodd">
        <rect id="Rectangle" x="0" y="0" width="60" height="60"></rect>
        <g id="smartphone" transform="translate(1.000000, 0.000000)">
            <polygon id="Triangle" fill="#D4EDEB" points="18.7951807 38.313253 0 47.7108434 3.87095047e-15 28.9156627"></polygon>
            <polygon id="Triangle-Copy" fill="#F95632" transform="translate(50.602410, 20.963855) rotate(-225.000000) translate(-50.602410, -20.963855) " points="55.6626506 20.9638554 45.5421687 26.0240964 45.5421687 15.9036145"></polygon>
            <path d="M40.417399,0 L15.2452516,0 C12.8189724,0 10.8433735,1.977 10.8433735,4.405 L10.8433735,55.594 C10.8433735,58.023 12.8189724,60 15.2452516,60 L40.4163997,60 C42.8436782,60 44.8192771,58.023 44.8192771,55.595 L44.8192771,4.405 C44.8192771,1.977 42.8436782,0 40.417399,0 Z M12.8419561,8 L42.8206945,8 L42.8206945,46 L12.8419561,46 L12.8419561,8 Z M15.2452516,2 L40.4163997,2 C41.7424592,2 42.8206945,3.079 42.8206945,4.405 L42.8206945,6 L12.8419561,6 L12.8419561,4.405 C12.8419561,3.079 13.9201914,2 15.2452516,2 Z M40.417399,58 L15.2452516,58 C13.9201914,58 12.8419561,56.921 12.8419561,55.595 L12.8419561,48 L42.8206945,48 L42.8206945,55.595 C42.8206945,56.921 41.7424592,58 40.417399,58 Z" id="Shape" fill="#333333" fill-rule="nonzero"></path>
            <path d="M27.8313253,48.4337349 C25.6386145,48.4337349 23.8554217,50.2169277 23.8554217,52.4096386 C23.8554217,54.6023494 25.6386145,56.3855422 27.8313253,56.3855422 C30.0240361,56.3855422 31.8072289,54.6023494 31.8072289,52.4096386 C31.8072289,50.2169277 30.0240361,48.4337349 27.8313253,48.4337349 Z M27.8313253,54.3975904 C26.7349699,54.3975904 25.8433735,53.505994 25.8433735,52.4096386 C25.8433735,51.3132831 26.7349699,50.4216867 27.8313253,50.4216867 C28.9276807,50.4216867 29.8192771,51.3132831 29.8192771,52.4096386 C29.8192771,53.505994 28.9276807,54.3975904 27.8313253,54.3975904 Z" id="Shape" fill="#F95632" fill-rule="nonzero"></path>
            <path d="M24.0963855,5.06024096 L27.9518072,5.06024096 C28.4848193,5.06024096 28.9156627,4.57554217 28.9156627,3.97590361 C28.9156627,3.37626506 28.4848193,2.89156627 27.9518072,2.89156627 L24.0963855,2.89156627 C23.5633735,2.89156627 23.1325301,3.37626506 23.1325301,3.97590361 C23.1325301,4.57554217 23.5633735,5.06024096 24.0963855,5.06024096 Z" id="Shape" fill="#26A59A" fill-rule="nonzero"></path>
            <path d="M30.6024096,5.06024096 L31.5662651,5.06024096 C32.0992771,5.06024096 32.5301205,4.57554217 32.5301205,3.97590361 C32.5301205,3.37626506 32.0992771,2.89156627 31.5662651,2.89156627 L30.6024096,2.89156627 C30.0693976,2.89156627 29.6385542,3.37626506 29.6385542,3.97590361 C29.6385542,4.57554217 30.0693976,5.06024096 30.6024096,5.06024096 Z" id="Shape" fill="#F95632" fill-rule="nonzero"></path>
            <path d="M35.4772938,21.414924 C38.2368489,21.414924 40.4819277,19.2058698 40.4819277,16.4905945 C40.4819277,13.7753193 38.2368489,11.5662651 35.4772938,11.5662651 L19.4624652,11.5662651 C16.7029101,11.5662651 14.4578313,13.7753193 14.4578313,16.4905945 L14.4578313,26.746988 L19.8768489,21.414924 L35.4772938,21.414924 Z" id="Shape" fill="#26A59A" fill-rule="nonzero"></path>
            <path d="M16.4596849,21.9920554 L16.4596849,16.4905945 C16.4596849,14.8616263 17.8069323,13.5359968 19.4624652,13.5359968 L35.4772938,13.5359968 C37.1328267,13.5359968 38.4800741,14.8616263 38.4800741,16.4905945 C38.4800741,18.1195627 37.1328267,19.4451922 35.4772938,19.4451922 L19.0480816,19.4451922 L16.4596849,21.9920554 Z" id="Path" fill="#D4EDEB"></path>
            <path d="M35.4772938,27.4698795 L19.4624652,27.4698795 C16.7029101,27.4698795 14.4578313,29.6789337 14.4578313,32.394209 C14.4578313,35.1094843 16.7029101,37.3185385 19.4624652,37.3185385 L35.0629101,37.3185385 L40.4819277,42.6506024 L40.4819277,32.394209 C40.4819277,29.6789337 38.2368489,27.4698795 35.4772938,27.4698795 Z M38.4800741,37.8956699 L35.8916775,35.3488067 L19.4624652,35.3488067 C17.8069323,35.3488067 16.4596849,34.0231772 16.4596849,32.394209 C16.4596849,30.7652408 17.8069323,29.4396113 19.4624652,29.4396113 L35.4772938,29.4396113 C37.1328267,29.4396113 38.4800741,30.7652408 38.4800741,32.394209 L38.4800741,37.8956699 Z" id="Shape" fill="#F95632" fill-rule="nonzero"></path>
        </g>
    </g>
</svg>