<?xml version="1.0" encoding="UTF-8"?>
<svg width="100%" height="100%" viewBox="0 0 18 18" version="1.1" xmlns="http://www.w3.org/2000/svg" xmlns:xlink="http://www.w3.org/1999/xlink">
    <!-- Generator: Sketch 52.2 (67145) - http://www.bohemiancoding.com/sketch -->
    <title>18px / team</title>
    <desc>Created with Sketch.</desc>
    <g id="18px-/-team" stroke="none" stroke-width="1" fill="none" fill-rule="evenodd">
        <path d="M15.5,4.5 L9.5,4.5 L8,3 L3.5,3 C2.675,3 2.0075,3.675 2.0075,4.5 L2,13.5 C2,14.325 2.675,15 3.5,15 L15.5,15 C16.325,15 17,14.325 17,13.5 L17,6 C17,5.175 16.325,4.5 15.5,4.5 Z M15.5,13.5 L3.5,13.5 L3.5,4.5 L7.3775,4.5 L8.8775,6 L15.5,6 L15.5,13.5 Z M11.75,9.75 C12.575,9.75 13.25,9.075 13.25,8.25 C13.25,7.425 12.575,6.75 11.75,6.75 C10.925,6.75 10.25,7.425 10.25,8.25 C10.25,9.075 10.925,9.75 11.75,9.75 Z M8.75,12.75 L14.75,12.75 L14.75,12 C14.75,11.0025 12.7475,10.5 11.75,10.5 C10.7525,10.5 8.75,11.0025 8.75,12 L8.75,12.75 Z" id="Combined-Shape" fill="#F57C00" fill-rule="nonzero"></path>
    </g>
</svg>