<?xml version="1.0" encoding="UTF-8"?>
<svg  viewBox="0 0 18 18" version="1.1" xmlns="http://www.w3.org/2000/svg" xmlns:xlink="http://www.w3.org/1999/xlink">
    <!-- Generator: Sketch 56.2 (81672) - https://sketch.com -->
    <title>18px / uploading</title>
    <desc>Created with Sketch.</desc>
    <g id="18px-/-uploading" stroke="none" stroke-width="1" fill="none" fill-rule="evenodd">
        <rect id="Rectangle" x="0" y="0" width="18" height="18"></rect>
        <path d="M3,9 C3,10.6575 3.70777778,12.15 4.83555556,13.23 L3.66111111,14.3625 C3.42,14.595 3.59111111,15 3.94111111,15 L7.27777778,15 C7.49555556,15 7.66666667,14.835 7.66666667,14.625 L7.66666667,11.4075 C7.66666667,11.07 7.24666667,10.905 7.00555556,11.145 L5.92444444,12.1875 C5.08444444,11.3625 4.55555556,10.245 4.55555556,9 C4.55555556,7.2075 5.64444444,5.655 7.22333333,4.935 C7.48777778,4.815 7.66666667,4.5825 7.66666667,4.305 L7.66666667,4.1625 C7.66666667,3.6525 7.11444444,3.33 6.64,3.5475 C4.49333333,4.4925 3,6.5775 3,9 Z M15.0588889,3 L11.7222222,3 C11.5044444,3 11.3333333,3.165 11.3333333,3.375 L11.3333333,6.5925 C11.3333333,6.93 11.7533333,7.095 11.9944444,6.855 L13.0755556,5.8125 C13.9155556,6.6375 14.4444444,7.755 14.4444444,9 C14.4444444,10.7925 13.3555556,12.345 11.7766667,13.065 C11.5122222,13.185 11.3333333,13.4175 11.3333333,13.695 L11.3333333,13.83 C11.3333333,14.34 11.8855556,14.6625 12.36,14.445 C14.5066667,13.5075 16,11.4225 16,9 C16,7.3425 15.2922222,5.85 14.1644444,4.77 L15.3388889,3.6375 C15.58,3.405 15.4088889,3 15.0588889,3 L15.0588889,3 Z" id="Shape" fill="currentColor" fill-rule="nonzero"></path>
    </g>
</svg>
