<?xml version="1.0" encoding="UTF-8"?>
<svg width="24px" height="24px" viewBox="0 0 24 24" version="1.1" xmlns="http://www.w3.org/2000/svg" xmlns:xlink="http://www.w3.org/1999/xlink">
    <!-- Generator: Sketch 56.3 (81716) - https://sketch.com -->
    <title>24px / urgent</title>
    <desc>Created with Sketch.</desc>
    <g id="24px-/-urgent" stroke="none" stroke-width="1" fill="none" fill-rule="evenodd">
        <rect id="Rectangle" x="0" y="0" width="24" height="24"></rect>
        <path d="M10.01,20.51 C10.01,21.61 10.9,22.5 12,22.5 C13.1,22.5 13.99,21.61 13.99,20.51 L10.01,20.51 Z M12,5.5 C14.76,5.5 17,7.74 17,10.5 L17,17.5 L7,17.5 L7,10.5 C7,7.74 9.24,5.5 12,5.5 L12,5.5 Z M12,1 C11.17,1 10.5,1.67 10.5,2.5 L10.5,3.67 C7.36,4.35 5,7.15 5,10.5 L5,16.5 L3,18.5 L3,19.5 L21,19.5 L21,18.5 L19,16.5 L19,10.5 C19,7.15 16.64,4.35 13.5,3.67 L13.5,2.5 C13.5,1.67 12.83,1 12,1 L12,1 Z M11,7.5 L13,7.5 L13,11.5 L11,11.5 L11,7.5 Z M11,13.5 L13,13.5 L13,15.5 L11,15.5 L11,13.5 Z" id="Combined-Shape" fill="#3D3D3D" fill-rule="nonzero"></path>
    </g>
</svg>