<?xml version="1.0" encoding="UTF-8"?>
<svg width="100%" height="100%" viewBox="0 0 18 18" version="1.1" xmlns="http://www.w3.org/2000/svg" xmlns:xlink="http://www.w3.org/1999/xlink">
    <!-- Generator: Sketch 52.2 (67145) - http://www.bohemiancoding.com/sketch -->
    <title>18px / users</title>
    <desc>Created with Sketch.</desc>
    <g id="18px-/-users" stroke="none" stroke-width="1" fill="none" fill-rule="evenodd">
        <path d="M7.25,10.875 C5.495,10.875 2,11.7942857 2,13.625 L2,15 L12.5,15 L12.5,13.625 C12.5,11.7942857 9.005,10.875 7.25,10.875 Z M3.755,13.4285714 C4.385,12.9728571 5.9075,12.4464286 7.25,12.4464286 C8.5925,12.4464286 10.115,12.9728571 10.745,13.4285714 L3.755,13.4285714 Z M7.25,9.5 C8.6975,9.5 9.875,8.26642857 9.875,6.75 C9.875,5.23357143 8.6975,4 7.25,4 C5.8025,4 4.625,5.23357143 4.625,6.75 C4.625,8.26642857 5.8025,9.5 7.25,9.5 Z M7.25,5.57142857 C7.8725,5.57142857 8.375,6.09785714 8.375,6.75 C8.375,7.40214286 7.8725,7.92857143 7.25,7.92857143 C6.6275,7.92857143 6.125,7.40214286 6.125,6.75 C6.125,6.09785714 6.6275,5.57142857 7.25,5.57142857 Z M12.53,10.9221429 C13.4,11.5821429 14,12.4621429 14,13.625 L14,15 L17,15 L17,13.625 C17,12.0378571 14.375,11.1342857 12.53,10.9221429 Z M11.75,9.5 C13.1975,9.5 14.375,8.26642857 14.375,6.75 C14.375,5.23357143 13.1975,4 11.75,4 C11.345,4 10.97,4.10214286 10.625,4.275 C11.0975,4.97428571 11.375,5.83071429 11.375,6.75 C11.375,7.66928571 11.0975,8.52571429 10.625,9.225 C10.97,9.39785714 11.345,9.5 11.75,9.5 Z" id="Combined-Shape" fill="#3D3D3D" fill-rule="nonzero"></path>
    </g>
</svg>