<?xml version="1.0" encoding="UTF-8"?>
<svg width="18px" height="18px" viewBox="0 0 18 18" version="1.1" xmlns="http://www.w3.org/2000/svg" xmlns:xlink="http://www.w3.org/1999/xlink">
    <!-- Generator: Sketch 56.2 (81672) - https://sketch.com -->
    <title>18px / wait</title>
    <desc>Created with Sketch.</desc>
    <g id="18px-/-wait" stroke="none" stroke-width="1" fill="none" fill-rule="evenodd">
        <rect id="Rectangle" x="0" y="0" width="18" height="18"></rect>
        <path d="M8.993,2 C5.129,2 2,5.136 2,9 C2,12.864 5.129,16 8.993,16 C12.864,16 16,12.864 16,9 C16,5.136 12.864,2 8.993,2 Z M9,14.6 C5.906,14.6 3.4,12.094 3.4,9 C3.4,5.906 5.906,3.4 9,3.4 C12.094,3.4 14.6,5.906 14.6,9 C14.6,12.094 12.094,14.6 9,14.6 Z M9.35,5.5 L8.3,5.5 L8.3,9.7 L11.975,11.905 L12.5,11.044 L9.35,9.175 L9.35,5.5 Z" id="Combined-Shape" fill="#F57C00" fill-rule="nonzero"></path>
    </g>
</svg>